<svg id="svg" version="1.1" xmlns="http://www.w3.org/2000/svg" xmlns:xlink="http://www.w3.org/1999/xlink" width="400" height="400" viewBox="0, 0, 400,400"><g id="svgg"><path id="path0" d="M183.867 67.467 C 183.217 68.116,183.573 99.504,184.233 99.757 C 185.367 100.193,215.193 100.032,216.026 99.586 C 216.980 99.075,217.261 68.621,216.320 67.680 C 215.798 67.158,184.382 66.952,183.867 67.467 M215.200 83.600 L 215.200 99.200 200.000 99.200 L 184.800 99.200 184.800 83.600 L 184.800 68.000 200.000 68.000 L 215.200 68.000 215.200 83.600 M84.400 117.318 L 83.400 117.823 83.295 133.412 C 83.198 147.711,83.245 149.041,83.871 149.500 C 84.589 150.026,114.012 150.254,115.900 149.748 L 116.800 149.507 116.800 133.618 L 116.800 117.728 115.781 117.264 C 114.272 116.577,85.769 116.625,84.400 117.318 M134.269 117.394 L 133.400 117.830 133.541 133.615 C 133.642 144.922,133.812 149.483,134.141 149.694 C 134.879 150.166,165.134 150.064,166.026 149.586 C 166.998 149.066,167.261 118.470,166.300 117.694 C 165.572 117.106,135.405 116.823,134.269 117.394 M184.100 117.465 C 183.712 117.622,183.600 121.225,183.600 133.587 L 183.600 149.507 184.500 149.748 C 186.030 150.158,214.665 150.031,215.774 149.610 L 216.800 149.220 216.800 133.624 C 216.800 118.614,216.771 118.013,216.026 117.614 C 215.243 117.195,185.118 117.054,184.100 117.465 M110.942 117.861 L 115.209 118.122 115.105 133.761 L 115.000 149.400 99.900 149.505 L 84.800 149.610 84.800 133.871 C 84.800 125.215,84.920 118.013,85.067 117.867 C 85.410 117.523,105.354 117.519,110.942 117.861 M165.200 133.555 L 165.200 149.110 155.500 149.384 C 150.165 149.535,143.370 149.600,140.400 149.529 L 135.000 149.400 134.895 133.700 L 134.791 118.000 149.995 118.000 L 165.200 118.000 165.200 133.555 M215.200 133.600 L 215.200 149.200 200.000 149.200 L 184.800 149.200 184.800 133.600 L 184.800 118.000 200.000 118.000 L 215.200 118.000 215.200 133.600 M318.632 156.365 C 316.223 159.027,314.471 174.368,315.385 184.800 C 316.914 202.251,310.415 212.863,296.000 216.454 L 292.600 217.301 155.330 217.074 C 34.744 216.874,18.000 216.918,17.570 217.436 C 16.977 218.151,17.323 225.977,18.180 231.200 C 18.486 233.070,18.855 235.860,18.999 237.400 C 19.143 238.940,19.508 241.100,19.809 242.200 C 20.110 243.300,20.482 245.274,20.635 246.588 C 20.789 247.901,21.158 249.560,21.457 250.275 C 21.756 250.990,22.000 252.029,22.000 252.586 C 22.000 253.142,22.363 254.723,22.807 256.098 C 23.252 257.474,23.993 259.860,24.456 261.400 C 24.918 262.940,25.635 264.970,26.048 265.911 C 26.462 266.852,26.800 267.822,26.800 268.067 C 26.800 268.312,27.180 269.342,27.643 270.356 C 28.107 271.370,28.809 272.920,29.203 273.800 C 30.117 275.842,31.904 279.344,33.082 281.400 C 33.586 282.280,34.224 283.453,34.500 284.006 C 35.018 285.049,38.542 290.282,41.121 293.841 C 46.603 301.404,59.432 312.673,67.709 317.194 C 69.427 318.133,76.415 321.594,78.200 322.391 C 79.080 322.783,80.660 323.486,81.711 323.952 C 82.762 324.419,83.932 324.806,84.311 324.814 C 84.690 324.821,85.720 325.175,86.600 325.600 C 87.480 326.025,88.560 326.385,89.000 326.400 C 89.440 326.415,90.520 326.775,91.400 327.200 C 92.280 327.625,93.540 327.980,94.200 327.989 C 94.860 327.998,95.878 328.254,96.461 328.559 C 97.045 328.863,98.661 329.245,100.052 329.406 C 101.444 329.568,103.233 329.929,104.028 330.210 C 104.823 330.490,106.897 330.845,108.637 330.998 C 110.377 331.150,113.060 331.573,114.600 331.938 C 118.705 332.909,150.611 332.886,155.400 331.908 C 157.160 331.549,160.310 331.140,162.400 330.999 C 164.490 330.859,167.100 330.494,168.200 330.190 C 169.300 329.885,171.549 329.510,173.198 329.357 C 174.847 329.203,176.776 328.835,177.485 328.539 C 178.194 328.242,179.409 328.000,180.186 328.000 C 180.962 328.000,182.633 327.655,183.898 327.233 C 185.164 326.812,187.094 326.345,188.186 326.196 C 189.278 326.047,190.533 325.672,190.975 325.363 C 191.417 325.053,192.413 324.794,193.189 324.786 C 193.965 324.779,195.320 324.425,196.200 324.000 C 197.080 323.575,198.250 323.215,198.800 323.200 C 199.350 323.185,200.520 322.825,201.400 322.400 C 202.280 321.975,203.360 321.615,203.800 321.600 C 204.240 321.585,205.320 321.225,206.200 320.800 C 207.080 320.375,208.116 320.021,208.501 320.014 C 208.887 320.006,209.875 319.640,210.696 319.200 C 211.516 318.760,212.416 318.400,212.696 318.400 C 212.975 318.400,213.875 318.040,214.696 317.600 C 215.516 317.160,216.574 316.800,217.045 316.800 C 217.516 316.800,218.117 316.542,218.379 316.226 C 218.641 315.910,219.365 315.539,219.989 315.403 C 220.612 315.266,221.808 314.804,222.646 314.377 C 223.484 313.950,224.379 313.600,224.636 313.600 C 224.892 313.600,225.310 313.349,225.565 313.042 C 225.820 312.735,226.634 312.370,227.374 312.231 C 228.114 312.092,228.930 311.725,229.187 311.415 C 229.445 311.105,230.170 310.738,230.800 310.600 C 231.430 310.462,232.150 310.102,232.400 309.800 C 232.650 309.498,233.381 309.136,234.023 308.995 C 234.665 308.854,235.285 308.586,235.400 308.400 C 235.515 308.215,236.732 307.490,238.104 306.791 C 239.477 306.092,241.320 305.090,242.200 304.563 C 243.080 304.037,244.340 303.329,245.000 302.990 C 245.660 302.652,247.460 301.575,249.000 300.598 C 250.540 299.621,252.250 298.595,252.800 298.319 C 253.350 298.042,253.895 297.686,254.012 297.527 C 254.428 296.959,257.809 294.814,258.300 294.807 C 258.575 294.803,258.800 294.614,258.800 294.387 C 258.800 294.160,259.121 293.845,259.513 293.687 C 260.296 293.372,261.016 292.868,265.348 289.600 C 266.952 288.390,268.772 287.040,269.393 286.600 C 270.014 286.160,270.878 285.461,271.313 285.048 C 273.120 283.331,278.395 279.200,278.782 279.200 C 279.012 279.200,279.200 278.945,279.200 278.633 C 279.200 278.322,279.380 278.007,279.599 277.933 C 281.530 277.288,301.312 257.102,304.382 252.645 C 304.702 252.180,305.173 251.620,305.429 251.400 C 305.818 251.065,308.161 248.069,311.487 243.652 C 311.879 243.131,312.515 242.366,312.900 241.952 C 313.285 241.539,313.600 241.081,313.600 240.936 C 313.600 240.791,314.320 239.719,315.200 238.554 C 316.080 237.388,316.800 236.274,316.800 236.079 C 316.800 235.884,317.160 235.398,317.600 235.000 C 318.040 234.602,318.400 234.056,318.400 233.787 C 318.400 233.518,318.666 233.077,318.992 232.807 C 319.317 232.537,319.857 231.795,320.192 231.158 C 320.526 230.521,321.083 229.460,321.429 228.800 C 321.775 228.140,322.206 227.600,322.386 227.600 C 322.566 227.600,322.818 227.183,322.946 226.674 C 323.074 226.164,323.543 225.327,323.989 224.813 C 324.435 224.298,324.800 223.633,324.800 223.335 C 324.800 222.098,328.966 216.800,329.938 216.800 C 330.268 216.800,330.842 216.524,331.215 216.186 C 331.622 215.818,333.236 215.431,335.247 215.218 C 337.091 215.023,339.584 214.579,340.787 214.232 C 341.990 213.884,343.481 213.600,344.101 213.600 C 344.721 213.600,345.627 213.350,346.114 213.043 C 346.601 212.737,347.851 212.367,348.891 212.220 C 349.931 212.074,350.883 211.789,351.008 211.588 C 351.132 211.386,351.991 211.020,352.917 210.774 C 353.843 210.527,354.870 210.092,355.200 209.807 C 355.530 209.522,356.373 209.167,357.072 209.019 C 357.772 208.870,358.559 208.490,358.821 208.174 C 359.083 207.858,359.612 207.600,359.995 207.600 C 360.378 207.600,361.150 207.240,361.709 206.800 C 362.269 206.360,362.840 206.000,362.979 206.000 C 363.118 206.000,363.720 205.668,364.316 205.263 C 364.912 204.857,366.210 204.002,367.200 203.363 C 369.344 201.978,369.193 202.088,372.145 199.745 C 373.435 198.721,375.287 197.108,376.261 196.161 L 378.033 194.440 376.416 194.004 C 375.527 193.765,374.800 193.396,374.800 193.185 C 374.800 192.973,374.478 192.800,374.085 192.800 C 373.691 192.800,372.669 192.443,371.814 192.007 C 370.959 191.571,369.300 191.037,368.128 190.821 C 366.956 190.604,365.593 190.196,365.099 189.914 C 363.089 188.769,350.211 189.229,347.000 190.561 C 338.502 194.085,333.515 190.710,332.801 180.953 C 332.604 178.260,332.224 176.019,331.838 175.273 C 331.487 174.595,331.200 173.713,331.200 173.314 C 331.200 172.915,330.865 171.961,330.456 171.194 C 330.047 170.427,329.574 169.360,329.404 168.823 C 329.235 168.285,328.490 166.982,327.748 165.927 C 327.007 164.872,326.400 163.911,326.400 163.792 C 326.400 163.292,320.015 155.600,319.599 155.600 C 319.448 155.600,319.012 155.944,318.632 156.365 M34.089 167.423 L 33.200 168.045 33.200 183.609 C 33.200 198.586,33.229 199.187,33.974 199.586 C 34.806 200.032,64.284 200.181,65.900 199.748 L 66.800 199.507 66.800 183.618 L 66.800 167.728 65.781 167.264 C 64.055 166.478,35.232 166.622,34.089 167.423 M84.400 167.310 L 83.400 167.823 83.295 183.412 C 83.198 197.711,83.245 199.041,83.871 199.500 C 84.753 200.147,114.828 200.227,116.026 199.586 C 117.137 198.991,117.244 168.467,116.139 167.549 C 115.194 166.764,85.893 166.544,84.400 167.310 M133.867 167.467 C 133.217 168.116,133.573 199.504,134.233 199.757 C 135.367 200.193,165.193 200.032,166.026 199.586 C 166.980 199.075,167.261 168.621,166.320 167.680 C 165.798 167.158,134.382 166.952,133.867 167.467 M184.100 167.465 C 183.712 167.622,183.600 171.225,183.600 183.587 L 183.600 199.507 184.500 199.748 C 186.030 200.158,214.665 200.031,215.774 199.610 L 216.800 199.220 216.800 183.624 C 216.800 168.614,216.771 168.013,216.026 167.614 C 215.243 167.195,185.118 167.054,184.100 167.465 M234.100 167.465 C 233.712 167.622,233.600 171.225,233.600 183.587 L 233.600 199.507 234.500 199.748 C 235.674 200.063,264.326 200.063,265.500 199.748 L 266.400 199.507 266.400 183.596 C 266.400 169.457,266.330 167.659,265.767 167.443 C 265.012 167.153,234.821 167.174,234.100 167.465 M65.394 167.990 C 65.527 168.205,65.509 175.405,65.354 183.990 L 65.073 199.600 49.999 199.600 L 34.925 199.600 34.662 193.536 C 34.321 185.644,34.324 168.210,34.667 167.867 C 35.104 167.429,65.122 167.550,65.394 167.990 M101.105 167.995 L 115.209 168.000 115.105 183.700 L 115.000 199.400 100.000 199.400 L 85.000 199.400 84.895 184.001 C 84.781 167.308,84.775 167.393,86.105 167.749 C 86.597 167.881,93.347 167.992,101.105 167.995 M165.200 183.600 L 165.200 199.200 150.000 199.200 L 134.800 199.200 134.800 183.600 L 134.800 168.000 150.000 168.000 L 165.200 168.000 165.200 183.600 M215.200 183.600 L 215.200 199.200 200.263 199.200 L 185.326 199.200 185.063 192.536 C 184.918 188.871,184.800 181.851,184.800 176.936 L 184.800 168.000 200.000 168.000 L 215.200 168.000 215.200 183.600 M264.800 183.600 L 264.800 199.200 250.000 199.200 L 235.200 199.200 235.200 183.600 L 235.200 168.000 250.000 168.000 L 264.800 168.000 264.800 183.600 M186.866 218.000 L 288.400 218.000 288.400 220.400 C 288.400 222.533,288.311 222.800,287.600 222.800 C 286.933 222.800,286.800 223.067,286.800 224.400 C 286.800 225.733,286.667 226.000,286.000 226.000 C 285.333 226.000,285.200 226.267,285.200 227.600 C 285.200 228.933,285.067 229.200,284.400 229.200 C 283.752 229.200,283.600 229.467,283.600 230.600 C 283.600 231.733,283.448 232.000,282.800 232.000 C 282.133 232.000,282.000 232.267,282.000 233.600 C 282.000 234.933,281.867 235.200,281.200 235.200 C 280.533 235.200,280.400 235.467,280.400 236.800 C 280.400 237.956,280.233 238.400,279.800 238.400 C 279.367 238.400,279.200 238.844,279.200 240.000 C 279.200 241.333,279.067 241.600,278.400 241.600 C 277.697 241.600,277.600 241.867,277.600 243.800 C 277.600 245.733,277.503 246.000,276.800 246.000 C 276.133 246.000,276.000 246.267,276.000 247.600 C 276.000 248.933,275.867 249.200,275.200 249.200 C 274.533 249.200,274.400 249.467,274.400 250.800 C 274.400 252.133,274.267 252.400,273.600 252.400 C 272.933 252.400,272.800 252.667,272.800 254.000 C 272.800 255.333,272.667 255.600,272.000 255.600 C 271.333 255.600,271.200 255.867,271.200 257.200 C 271.200 258.533,271.067 258.800,270.400 258.800 C 269.733 258.800,269.600 259.067,269.600 260.400 C 269.600 261.733,269.467 262.000,268.800 262.000 C 268.152 262.000,268.000 262.267,268.000 263.400 C 268.000 264.533,267.848 264.800,267.200 264.800 C 266.489 264.800,266.400 265.067,266.400 267.200 C 266.400 269.333,266.311 269.600,265.600 269.600 C 264.933 269.600,264.800 269.867,264.800 271.200 C 264.800 272.533,264.667 272.800,264.000 272.800 C 263.333 272.800,263.200 273.067,263.200 274.400 C 263.200 275.556,263.033 276.000,262.600 276.000 C 262.167 276.000,262.000 276.444,262.000 277.600 C 262.000 278.933,261.867 279.200,261.200 279.200 C 260.552 279.200,260.400 279.467,260.400 280.600 C 260.400 281.733,260.248 282.000,259.600 282.000 C 258.933 282.000,258.800 282.267,258.800 283.600 L 258.800 285.200 257.200 285.200 C 255.867 285.200,255.600 285.333,255.600 286.000 C 255.600 286.533,255.333 286.800,254.800 286.800 C 254.267 286.800,254.000 287.067,254.000 287.600 C 254.000 288.267,253.733 288.400,252.400 288.400 C 251.067 288.400,250.800 288.533,250.800 289.200 C 250.800 289.733,250.533 290.000,250.000 290.000 C 249.467 290.000,249.200 290.267,249.200 290.800 C 249.200 291.467,248.933 291.600,247.600 291.600 C 246.267 291.600,246.000 291.733,246.000 292.400 C 246.000 293.048,245.733 293.200,244.600 293.200 C 243.467 293.200,243.200 293.352,243.200 294.000 C 243.200 294.533,242.933 294.800,242.400 294.800 C 241.956 294.800,241.600 295.067,241.600 295.400 C 241.600 295.833,241.156 296.000,240.000 296.000 C 238.667 296.000,238.400 296.133,238.400 296.800 C 238.400 297.467,238.133 297.600,236.800 297.600 C 235.467 297.600,235.200 297.733,235.200 298.400 C 235.200 299.067,234.933 299.200,233.600 299.200 C 232.267 299.200,232.000 299.333,232.000 300.000 C 232.000 300.648,231.733 300.800,230.600 300.800 C 229.486 300.800,229.200 300.957,229.200 301.568 C 229.200 302.100,228.823 302.419,227.973 302.606 C 227.298 302.754,226.649 303.128,226.530 303.438 C 226.412 303.747,225.792 304.000,225.153 304.000 C 224.487 304.000,223.700 304.341,223.307 304.800 C 222.928 305.243,222.127 305.600,221.514 305.600 C 220.840 305.600,220.211 305.913,219.907 306.400 C 219.574 306.934,218.974 307.200,218.104 307.200 C 217.333 307.200,216.473 307.527,216.000 308.000 C 215.497 308.503,214.667 308.800,213.763 308.800 C 212.662 308.800,212.276 308.987,212.116 309.600 C 211.943 310.261,211.570 310.400,209.967 310.400 C 208.438 310.400,207.938 310.569,207.600 311.200 C 207.272 311.814,206.762 312.000,205.414 312.000 C 204.337 312.000,203.410 312.248,203.018 312.640 C 202.666 312.991,201.618 313.380,200.689 313.503 C 199.704 313.633,198.782 314.033,198.477 314.463 C 198.120 314.966,197.454 315.200,196.376 315.200 C 195.508 315.200,194.125 315.560,193.304 316.000 C 192.419 316.474,191.048 316.800,189.934 316.800 C 188.837 316.800,187.819 317.038,187.483 317.374 C 187.168 317.690,185.760 318.068,184.355 318.214 C 182.950 318.361,181.119 318.822,180.288 319.240 C 179.411 319.681,177.943 320.000,176.796 320.000 C 175.707 320.000,174.138 320.260,173.308 320.578 C 172.479 320.897,169.802 321.328,167.360 321.537 C 164.919 321.747,162.579 322.108,162.160 322.339 C 161.742 322.571,158.250 322.946,154.400 323.172 C 150.550 323.397,146.680 323.791,145.800 324.046 C 143.603 324.683,122.383 324.717,120.200 324.086 C 119.320 323.832,116.260 323.442,113.400 323.219 C 110.540 322.996,107.568 322.634,106.795 322.414 C 106.022 322.194,104.312 321.852,102.995 321.652 C 98.947 321.040,93.122 319.513,86.600 317.354 C 80.539 315.348,79.778 315.060,79.169 314.539 C 78.821 314.243,78.306 314.000,78.023 314.000 C 77.740 314.000,76.854 313.663,76.054 313.251 C 75.255 312.839,73.610 312.009,72.400 311.407 C 71.190 310.806,69.300 309.792,68.200 309.155 C 67.100 308.517,65.930 307.871,65.600 307.718 C 64.796 307.345,58.757 303.245,58.000 302.558 C 57.670 302.258,56.230 301.080,54.800 299.939 C 51.946 297.662,43.606 289.479,43.589 288.938 C 43.583 288.752,42.861 287.790,41.984 286.800 C 41.108 285.810,40.253 284.820,40.084 284.600 C 39.451 283.772,37.785 281.392,37.400 280.765 C 37.180 280.407,36.464 279.324,35.808 278.357 C 34.256 276.068,34.065 275.746,32.353 272.524 C 31.558 271.026,30.620 269.260,30.269 268.600 C 29.919 267.940,29.265 266.545,28.816 265.500 C 28.367 264.455,27.659 262.835,27.241 261.900 C 26.824 260.965,26.350 259.750,26.188 259.200 C 26.025 258.650,25.646 257.845,25.346 257.411 C 25.046 256.977,24.800 256.250,24.800 255.796 C 24.800 255.341,24.440 254.263,24.000 253.400 C 23.560 252.537,23.200 251.426,23.200 250.930 C 23.200 250.435,22.853 249.078,22.428 247.915 C 22.003 246.752,21.438 244.360,21.171 242.600 C 20.904 240.840,20.530 239.093,20.339 238.718 C 20.147 238.343,19.732 235.333,19.416 232.029 C 19.099 228.726,18.651 225.669,18.420 225.238 C 18.189 224.806,18.000 222.881,18.000 220.960 L 18.000 217.468 51.666 217.734 C 70.183 217.880,131.023 218.000,186.866 218.000 M76.300 250.663 C 75.255 251.187,74.400 251.792,74.400 252.008 C 74.400 252.223,74.125 252.400,73.789 252.400 C 73.111 252.400,69.600 255.743,69.600 256.389 C 69.600 256.615,69.240 257.160,68.800 257.600 C 68.360 258.040,68.000 258.831,68.000 259.357 C 68.000 259.884,67.730 260.418,67.400 260.545 C 66.692 260.816,66.493 272.563,67.189 272.993 C 67.402 273.125,67.938 273.991,68.379 274.917 C 69.685 277.661,69.910 277.938,73.321 280.995 C 73.937 281.548,74.773 282.000,75.178 282.000 C 75.583 282.000,76.013 282.257,76.134 282.572 C 76.258 282.894,77.194 283.268,78.277 283.427 C 79.335 283.583,80.555 283.955,80.989 284.255 C 82.028 284.972,86.562 284.981,87.275 284.268 C 87.568 283.975,88.706 283.614,89.804 283.465 C 90.902 283.316,92.000 282.926,92.244 282.597 C 92.488 282.269,93.000 282.000,93.382 282.000 C 93.763 282.000,94.169 281.640,94.284 281.200 C 94.399 280.760,94.750 280.400,95.065 280.400 C 95.737 280.400,97.323 278.899,97.707 277.899 C 97.854 277.515,98.165 277.200,98.397 277.200 C 98.630 277.200,99.003 276.795,99.227 276.300 C 99.451 275.805,99.894 274.950,100.211 274.400 C 100.529 273.850,100.791 272.834,100.794 272.143 C 100.798 271.399,101.045 270.792,101.400 270.655 C 101.875 270.473,102.000 269.631,102.000 266.600 C 102.000 263.569,101.875 262.727,101.400 262.545 C 101.070 262.418,100.797 261.839,100.794 261.257 C 100.791 260.676,100.529 259.750,100.211 259.200 C 99.894 258.650,99.440 257.767,99.203 257.238 C 98.578 255.841,93.720 251.317,92.523 251.016 C 91.962 250.876,91.242 250.499,90.923 250.180 C 89.844 249.101,78.680 249.469,76.300 250.663 M89.803 250.916 C 103.619 257.013,104.655 274.890,91.595 281.829 C 88.727 283.352,79.561 283.614,77.400 282.233 C 71.647 278.558,69.828 276.518,68.050 271.745 C 63.421 259.313,77.746 245.595,89.803 250.916 " stroke="none" fill="#4ea6eb" fill-rule="evenodd"></path><path id="path1" d="M184.800 83.600 L 184.800 99.200 200.000 99.200 L 215.200 99.200 215.200 83.600 L 215.200 68.000 200.000 68.000 L 184.800 68.000 184.800 83.600 M134.895 133.700 L 135.000 149.400 140.400 149.529 C 143.370 149.600,150.165 149.535,155.500 149.384 L 165.200 149.110 165.200 133.555 L 165.200 118.000 149.995 118.000 L 134.791 118.000 134.895 133.700 M184.800 133.600 L 184.800 149.200 200.000 149.200 L 215.200 149.200 215.200 133.600 L 215.200 118.000 200.000 118.000 L 184.800 118.000 184.800 133.600 M113.200 140.800 C 113.200 142.667,113.067 143.200,112.600 143.200 C 112.181 143.200,112.000 143.622,112.000 144.600 C 112.000 145.733,111.848 146.000,111.200 146.000 C 110.533 146.000,110.400 146.267,110.400 147.600 L 110.400 149.200 112.800 149.200 L 115.200 149.200 115.200 144.433 C 115.200 139.121,115.051 138.400,113.957 138.400 C 113.298 138.400,113.200 138.712,113.200 140.800 M100.800 168.800 C 100.800 169.333,100.533 169.600,100.000 169.600 C 99.333 169.600,99.200 169.867,99.200 171.200 C 99.200 172.533,99.067 172.800,98.400 172.800 C 97.733 172.800,97.600 173.067,97.600 174.400 C 97.600 175.733,97.467 176.000,96.800 176.000 C 96.133 176.000,96.000 176.267,96.000 177.600 C 96.000 178.756,95.833 179.200,95.400 179.200 C 94.981 179.200,94.800 179.622,94.800 180.600 C 94.800 181.733,94.648 182.000,94.000 182.000 C 93.289 182.000,93.200 182.267,93.200 184.400 C 93.200 186.533,93.111 186.800,92.400 186.800 C 91.733 186.800,91.600 187.067,91.600 188.400 C 91.600 189.733,91.467 190.000,90.800 190.000 C 90.133 190.000,90.000 190.267,90.000 191.600 C 90.000 192.933,89.867 193.200,89.200 193.200 C 88.552 193.200,88.400 193.467,88.400 194.600 C 88.400 195.733,88.248 196.000,87.600 196.000 C 86.938 196.000,86.800 196.267,86.800 197.547 L 86.800 199.093 90.700 199.247 C 92.845 199.331,99.190 199.400,104.800 199.400 L 115.000 199.400 115.105 183.700 L 115.209 168.000 108.005 168.000 C 101.067 168.000,100.800 168.030,100.800 168.800 M134.800 183.600 L 134.800 199.200 150.000 199.200 L 165.200 199.200 165.200 183.600 L 165.200 168.000 150.000 168.000 L 134.800 168.000 134.800 183.600 M184.800 176.936 C 184.800 181.851,184.918 188.871,185.063 192.536 L 185.326 199.200 200.263 199.200 L 215.200 199.200 215.200 183.600 L 215.200 168.000 200.000 168.000 L 184.800 168.000 184.800 176.936 M235.200 183.600 L 235.200 199.200 250.000 199.200 L 264.800 199.200 264.800 183.600 L 264.800 168.000 250.000 168.000 L 235.200 168.000 235.200 183.600 M77.600 218.800 C 77.600 219.333,77.333 219.600,76.800 219.600 C 76.133 219.600,76.000 219.867,76.000 221.200 C 76.000 222.533,75.867 222.800,75.200 222.800 C 74.533 222.800,74.400 223.067,74.400 224.400 C 74.400 225.733,74.267 226.000,73.600 226.000 C 72.933 226.000,72.800 226.267,72.800 227.600 C 72.800 228.933,72.667 229.200,72.000 229.200 C 71.297 229.200,71.200 229.467,71.200 231.400 C 71.200 233.333,71.103 233.600,70.400 233.600 C 69.733 233.600,69.600 233.867,69.600 235.200 C 69.600 236.533,69.467 236.800,68.800 236.800 C 68.133 236.800,68.000 237.067,68.000 238.400 C 68.000 239.733,67.867 240.000,67.200 240.000 C 66.533 240.000,66.400 240.267,66.400 241.600 C 66.400 242.933,66.267 243.200,65.600 243.200 C 64.952 243.200,64.800 243.467,64.800 244.600 C 64.800 245.733,64.648 246.000,64.000 246.000 C 63.333 246.000,63.200 246.267,63.200 247.600 C 63.200 248.756,63.033 249.200,62.600 249.200 C 62.167 249.200,62.000 249.644,62.000 250.800 C 62.000 252.133,61.867 252.400,61.200 252.400 C 60.489 252.400,60.400 252.667,60.400 254.800 C 60.400 256.933,60.311 257.200,59.600 257.200 C 58.933 257.200,58.800 257.467,58.800 258.800 C 58.800 260.133,58.667 260.400,58.000 260.400 C 57.352 260.400,57.200 260.667,57.200 261.800 C 57.200 262.933,57.048 263.200,56.400 263.200 C 55.733 263.200,55.600 263.467,55.600 264.800 C 55.600 266.133,55.467 266.400,54.800 266.400 C 54.133 266.400,54.000 266.667,54.000 268.000 C 54.000 269.333,53.867 269.600,53.200 269.600 C 52.533 269.600,52.400 269.867,52.400 271.200 C 52.400 272.533,52.267 272.800,51.600 272.800 C 50.933 272.800,50.800 273.067,50.800 274.400 C 50.800 275.733,50.667 276.000,50.000 276.000 C 49.297 276.000,49.200 276.267,49.200 278.200 C 49.200 280.133,49.103 280.400,48.400 280.400 C 47.733 280.400,47.600 280.667,47.600 282.000 C 47.600 283.333,47.467 283.600,46.800 283.600 C 46.133 283.600,46.000 283.867,46.000 285.200 C 46.000 286.407,45.841 286.800,45.353 286.800 C 44.879 286.800,44.758 287.067,44.898 287.800 C 45.003 288.350,44.979 288.797,44.845 288.794 C 44.366 288.782,43.532 288.105,43.566 287.755 C 43.585 287.560,43.375 287.392,43.100 287.382 C 42.825 287.372,42.645 287.147,42.700 286.882 C 42.755 286.617,42.609 286.400,42.376 286.400 C 42.143 286.400,42.056 286.232,42.183 286.027 C 42.310 285.822,42.037 285.391,41.577 285.069 C 41.117 284.747,40.916 284.376,41.129 284.244 C 41.342 284.112,41.619 284.274,41.746 284.602 C 42.079 285.472,42.800 285.334,42.800 284.400 C 42.800 283.956,42.533 283.600,42.200 283.600 C 41.867 283.600,41.600 283.244,41.600 282.800 C 41.600 282.267,41.333 282.000,40.800 282.000 C 40.267 282.000,40.000 281.733,40.000 281.200 C 40.000 280.702,39.735 280.402,39.300 280.406 C 38.740 280.411,38.711 280.483,39.158 280.766 C 39.485 280.973,39.608 281.403,39.454 281.805 C 39.227 282.395,39.094 282.414,38.495 281.945 C 37.865 281.451,37.852 281.466,38.353 282.105 C 38.737 282.594,39.053 282.688,39.386 282.412 C 40.087 281.829,41.404 282.891,41.068 283.768 C 40.924 284.143,40.641 284.349,40.440 284.225 C 40.239 284.101,40.283 284.449,40.537 285.000 C 40.793 285.554,41.233 285.913,41.521 285.805 C 41.807 285.697,41.929 285.792,41.791 286.015 C 41.299 286.811,49.945 296.065,54.800 299.939 C 56.230 301.080,57.670 302.258,58.000 302.558 C 58.757 303.245,64.796 307.345,65.600 307.718 C 65.930 307.871,67.100 308.517,68.200 309.155 C 69.300 309.792,71.190 310.806,72.400 311.407 C 73.610 312.009,75.255 312.839,76.054 313.251 C 76.854 313.663,77.740 314.000,78.023 314.000 C 78.306 314.000,78.821 314.243,79.169 314.539 C 79.778 315.060,80.539 315.348,86.600 317.354 C 93.122 319.513,98.947 321.040,102.995 321.652 C 104.312 321.852,106.022 322.194,106.795 322.414 C 107.568 322.634,110.540 322.996,113.400 323.219 C 116.260 323.442,119.320 323.832,120.200 324.086 C 122.383 324.717,143.603 324.683,145.800 324.046 C 146.680 323.791,150.550 323.397,154.400 323.172 C 158.250 322.946,161.742 322.571,162.160 322.339 C 162.579 322.108,164.919 321.747,167.360 321.537 C 169.802 321.328,172.479 320.897,173.308 320.578 C 174.138 320.260,175.707 320.000,176.796 320.000 C 177.943 320.000,179.411 319.681,180.288 319.240 C 181.119 318.822,182.950 318.361,184.355 318.214 C 185.760 318.068,187.168 317.690,187.483 317.374 C 187.819 317.038,188.837 316.800,189.934 316.800 C 191.048 316.800,192.419 316.474,193.304 316.000 C 194.125 315.560,195.508 315.200,196.376 315.200 C 197.454 315.200,198.120 314.966,198.477 314.463 C 198.782 314.033,199.704 313.633,200.689 313.503 C 201.618 313.380,202.666 312.991,203.018 312.640 C 203.410 312.248,204.337 312.000,205.414 312.000 C 206.762 312.000,207.272 311.814,207.600 311.200 C 207.938 310.569,208.438 310.400,209.967 310.400 C 211.570 310.400,211.943 310.261,212.116 309.600 C 212.276 308.987,212.662 308.800,213.763 308.800 C 214.667 308.800,215.497 308.503,216.000 308.000 C 216.473 307.527,217.333 307.200,218.104 307.200 C 218.974 307.200,219.574 306.934,219.907 306.400 C 220.211 305.913,220.840 305.600,221.514 305.600 C 222.127 305.600,222.928 305.243,223.307 304.800 C 223.700 304.341,224.487 304.000,225.153 304.000 C 225.792 304.000,226.412 303.747,226.530 303.438 C 226.649 303.128,227.298 302.754,227.973 302.606 C 228.823 302.419,229.200 302.100,229.200 301.568 C 229.200 300.957,229.486 300.800,230.600 300.800 C 231.733 300.800,232.000 300.648,232.000 300.000 C 232.000 299.333,232.267 299.200,233.600 299.200 C 234.933 299.200,235.200 299.067,235.200 298.400 C 235.200 297.733,235.467 297.600,236.800 297.600 C 238.133 297.600,238.400 297.467,238.400 296.800 C 238.400 296.133,238.667 296.000,240.000 296.000 C 241.156 296.000,241.600 295.833,241.600 295.400 C 241.600 295.067,241.956 294.800,242.400 294.800 C 242.933 294.800,243.200 294.533,243.200 294.000 C 243.200 293.352,243.467 293.200,244.600 293.200 C 245.733 293.200,246.000 293.048,246.000 292.400 C 246.000 291.733,246.267 291.600,247.600 291.600 C 248.933 291.600,249.200 291.467,249.200 290.800 C 249.200 290.267,249.467 290.000,250.000 290.000 C 250.533 290.000,250.800 289.733,250.800 289.200 C 250.800 288.533,251.067 288.400,252.400 288.400 C 253.733 288.400,254.000 288.267,254.000 287.600 C 254.000 287.067,254.267 286.800,254.800 286.800 C 255.333 286.800,255.600 286.533,255.600 286.000 C 255.600 285.333,255.867 285.200,257.200 285.200 L 258.800 285.200 258.800 283.600 C 258.800 282.267,258.933 282.000,259.600 282.000 C 260.248 282.000,260.400 281.733,260.400 280.600 C 260.400 279.467,260.552 279.200,261.200 279.200 C 261.867 279.200,262.000 278.933,262.000 277.600 C 262.000 276.444,262.167 276.000,262.600 276.000 C 263.033 276.000,263.200 275.556,263.200 274.400 C 263.200 273.067,263.333 272.800,264.000 272.800 C 264.667 272.800,264.800 272.533,264.800 271.200 C 264.800 269.867,264.933 269.600,265.600 269.600 C 266.311 269.600,266.400 269.333,266.400 267.200 C 266.400 265.067,266.489 264.800,267.200 264.800 C 267.848 264.800,268.000 264.533,268.000 263.400 C 268.000 262.267,268.152 262.000,268.800 262.000 C 269.467 262.000,269.600 261.733,269.600 260.400 C 269.600 259.067,269.733 258.800,270.400 258.800 C 271.067 258.800,271.200 258.533,271.200 257.200 C 271.200 255.867,271.333 255.600,272.000 255.600 C 272.667 255.600,272.800 255.333,272.800 254.000 C 272.800 252.667,272.933 252.400,273.600 252.400 C 274.267 252.400,274.400 252.133,274.400 250.800 C 274.400 249.467,274.533 249.200,275.200 249.200 C 275.867 249.200,276.000 248.933,276.000 247.600 C 276.000 246.267,276.133 246.000,276.800 246.000 C 277.503 246.000,277.600 245.733,277.600 243.800 C 277.600 241.867,277.697 241.600,278.400 241.600 C 279.067 241.600,279.200 241.333,279.200 240.000 C 279.200 238.844,279.367 238.400,279.800 238.400 C 280.233 238.400,280.400 237.956,280.400 236.800 C 280.400 235.467,280.533 235.200,281.200 235.200 C 281.867 235.200,282.000 234.933,282.000 233.600 C 282.000 232.267,282.133 232.000,282.800 232.000 C 283.448 232.000,283.600 231.733,283.600 230.600 C 283.600 229.467,283.752 229.200,284.400 229.200 C 285.067 229.200,285.200 228.933,285.200 227.600 C 285.200 226.267,285.333 226.000,286.000 226.000 C 286.667 226.000,286.800 225.733,286.800 224.400 C 286.800 223.067,286.933 222.800,287.600 222.800 C 288.311 222.800,288.400 222.533,288.400 220.400 L 288.400 218.000 183.000 218.000 C 77.867 218.000,77.600 218.002,77.600 218.800 M90.923 250.180 C 91.242 250.499,91.962 250.876,92.523 251.016 C 93.720 251.317,98.578 255.841,99.203 257.238 C 99.440 257.767,99.894 258.650,100.211 259.200 C 100.529 259.750,100.791 260.676,100.794 261.257 C 100.797 261.839,101.070 262.418,101.400 262.545 C 101.875 262.727,102.000 263.569,102.000 266.600 C 102.000 269.631,101.875 270.473,101.400 270.655 C 101.045 270.792,100.798 271.399,100.794 272.143 C 100.791 272.834,100.529 273.850,100.211 274.400 C 99.894 274.950,99.451 275.805,99.227 276.300 C 99.003 276.795,98.630 277.200,98.397 277.200 C 98.165 277.200,97.854 277.515,97.707 277.899 C 97.323 278.899,95.737 280.400,95.065 280.400 C 94.750 280.400,94.399 280.760,94.284 281.200 C 94.169 281.640,93.763 282.000,93.382 282.000 C 93.000 282.000,92.488 282.269,92.244 282.597 C 92.000 282.926,90.902 283.316,89.804 283.465 C 88.706 283.614,87.568 283.975,87.275 284.268 C 86.562 284.981,82.028 284.972,80.989 284.255 C 80.555 283.955,79.335 283.583,78.277 283.427 C 77.194 283.268,76.258 282.894,76.134 282.572 C 76.013 282.257,75.583 282.000,75.178 282.000 C 74.773 282.000,73.937 281.548,73.321 280.995 C 69.910 277.938,69.685 277.661,68.379 274.917 C 67.938 273.991,67.402 273.125,67.189 272.993 C 66.493 272.563,66.692 260.816,67.400 260.545 C 67.730 260.418,68.000 259.884,68.000 259.357 C 68.000 258.831,68.360 258.040,68.800 257.600 C 69.240 257.160,69.600 256.615,69.600 256.389 C 69.600 255.743,73.111 252.400,73.789 252.400 C 74.125 252.400,74.400 252.223,74.400 252.008 C 74.400 250.060,89.170 248.427,90.923 250.180 M37.497 278.100 C 37.715 278.375,37.993 278.870,38.115 279.200 C 38.241 279.542,38.350 279.327,38.368 278.700 C 38.390 277.939,38.200 277.600,37.751 277.600 C 37.288 277.600,37.215 277.743,37.497 278.100 " stroke="none" fill="#59b4f4" fill-rule="evenodd"></path><path id="path2" d="M169.400 50.000 C 169.002 50.440,168.447 50.800,168.167 50.800 C 167.353 50.800,166.400 51.977,166.400 52.982 C 166.400 53.570,166.109 53.983,165.600 54.116 C 164.812 54.322,164.800 54.662,164.800 76.763 L 164.800 99.200 117.462 99.200 C 70.632 99.200,70.116 99.209,69.400 100.000 C 69.002 100.440,68.447 100.800,68.167 100.800 C 67.353 100.800,66.400 101.977,66.400 102.982 C 66.400 103.570,66.109 103.983,65.600 104.116 C 64.812 104.322,64.800 104.662,64.800 126.763 L 64.800 149.200 42.462 149.200 C 20.632 149.200,20.108 149.218,19.400 150.000 C 19.002 150.440,18.447 150.800,18.167 150.800 C 17.353 150.800,16.400 151.977,16.400 152.982 C 16.400 153.570,16.109 153.983,15.600 154.116 C 14.812 154.322,14.800 154.662,14.800 176.763 L 14.800 199.200 8.600 199.200 C 2.667 199.200,2.400 199.234,2.400 200.000 C 2.400 200.533,2.133 200.800,1.600 200.800 C 1.067 200.800,0.800 201.067,0.800 201.600 C 0.800 202.040,0.620 202.400,0.400 202.400 C 0.140 202.400,0.000 208.400,0.000 219.600 C 0.000 230.800,0.140 236.800,0.400 236.800 C 0.645 236.800,0.800 238.732,0.800 241.797 C 0.800 246.360,0.869 246.837,1.600 247.293 C 2.302 247.731,2.400 248.226,2.400 251.334 C 2.400 254.538,2.476 254.895,3.200 255.084 C 3.910 255.270,4.000 255.630,4.000 258.284 C 4.000 260.938,4.090 261.298,4.800 261.484 C 5.486 261.663,5.600 262.030,5.600 264.047 C 5.600 266.133,5.691 266.400,6.400 266.400 C 7.111 266.400,7.200 266.667,7.200 268.800 C 7.200 270.585,7.343 271.200,7.757 271.200 C 8.472 271.200,8.800 272.077,8.800 273.986 C 8.800 275.128,8.984 275.555,9.539 275.700 C 10.083 275.842,10.258 276.226,10.203 277.157 C 10.154 277.973,10.431 278.748,10.982 279.343 C 11.486 279.886,11.813 280.729,11.777 281.392 C 11.744 282.022,12.043 282.843,12.459 283.259 C 12.866 283.666,13.200 284.440,13.200 284.977 C 13.200 285.515,13.560 286.207,13.999 286.514 C 14.439 286.822,14.840 287.580,14.892 288.199 C 14.948 288.885,15.260 289.395,15.692 289.508 C 16.198 289.640,16.400 290.090,16.400 291.084 C 16.400 292.138,16.594 292.525,17.200 292.684 C 17.643 292.800,18.000 293.230,18.000 293.647 C 18.000 294.133,18.283 294.400,18.800 294.400 C 19.467 294.400,19.600 294.667,19.600 296.000 C 19.600 297.333,19.733 297.600,20.400 297.600 C 20.933 297.600,21.200 297.867,21.200 298.400 C 21.200 298.840,21.560 299.560,22.000 300.000 C 22.440 300.440,22.800 301.160,22.800 301.600 C 22.800 302.133,23.067 302.400,23.600 302.400 C 24.133 302.400,24.400 302.667,24.400 303.200 C 24.400 303.640,24.662 304.000,24.982 304.000 C 25.330 304.000,25.669 304.562,25.826 305.400 C 25.977 306.202,26.326 306.800,26.645 306.800 C 26.950 306.800,27.200 307.074,27.200 307.410 C 27.200 307.745,27.647 308.190,28.192 308.397 C 28.852 308.648,29.106 308.980,28.950 309.387 C 28.784 309.818,28.965 310.000,29.557 310.000 C 30.133 310.000,30.400 310.253,30.400 310.800 C 30.400 311.333,30.667 311.600,31.200 311.600 C 31.733 311.600,32.000 311.867,32.000 312.400 C 32.000 312.933,32.267 313.200,32.800 313.200 C 33.333 313.200,33.600 313.467,33.600 314.000 C 33.600 314.533,33.867 314.800,34.400 314.800 C 34.933 314.800,35.200 315.067,35.200 315.600 C 35.200 316.133,35.467 316.400,36.000 316.400 C 36.533 316.400,36.800 316.667,36.800 317.200 C 36.800 317.733,37.067 318.000,37.600 318.000 C 38.133 318.000,38.400 318.267,38.400 318.800 C 38.400 319.333,38.667 319.600,39.200 319.600 C 39.733 319.600,40.000 319.867,40.000 320.400 C 40.000 320.917,40.267 321.200,40.753 321.200 C 41.170 321.200,41.600 321.557,41.716 322.000 C 41.831 322.440,42.212 322.800,42.563 322.800 C 42.913 322.800,43.200 323.070,43.200 323.400 C 43.200 323.730,43.430 324.000,43.711 324.000 C 43.992 324.000,44.530 324.360,44.907 324.800 C 45.284 325.240,46.044 325.600,46.596 325.600 C 47.321 325.600,47.600 325.814,47.600 326.372 C 47.600 326.868,47.922 327.190,48.500 327.272 C 48.995 327.342,49.400 327.670,49.400 328.000 C 49.400 328.405,49.889 328.640,50.900 328.724 C 52.075 328.821,52.400 329.016,52.400 329.624 C 52.400 330.117,52.674 330.400,53.153 330.400 C 53.570 330.400,54.000 330.757,54.116 331.200 C 54.276 331.813,54.662 332.000,55.763 332.000 C 56.933 332.000,57.200 332.148,57.200 332.800 C 57.200 333.463,57.467 333.600,58.756 333.600 C 59.991 333.600,60.300 333.744,60.256 334.300 C 60.220 334.754,60.535 335.047,61.154 335.135 C 61.679 335.209,62.478 335.614,62.930 336.035 C 63.381 336.456,64.043 336.800,64.400 336.800 C 64.757 336.800,65.436 337.160,65.908 337.600 C 66.420 338.077,67.319 338.400,68.137 338.400 C 69.170 338.400,69.558 338.596,69.716 339.200 C 69.876 339.813,70.262 340.000,71.363 340.000 C 72.320 340.000,72.800 340.185,72.800 340.553 C 72.800 341.179,73.997 341.586,75.857 341.595 C 76.602 341.598,77.208 341.845,77.345 342.200 C 77.494 342.588,78.113 342.800,79.099 342.800 C 80.127 342.800,80.845 343.060,81.307 343.600 C 81.851 344.235,82.487 344.400,84.396 344.400 C 86.533 344.400,86.800 344.489,86.800 345.200 C 86.800 345.923,87.067 346.000,89.586 346.000 C 91.962 346.000,92.435 346.118,92.800 346.800 C 93.169 347.489,93.638 347.600,96.167 347.600 C 98.770 347.600,99.131 347.692,99.316 348.400 C 99.510 349.142,99.862 349.200,104.163 349.200 C 107.844 349.200,108.800 349.314,108.800 349.753 C 108.800 350.735,110.216 350.789,135.937 350.795 C 160.941 350.800,161.278 350.789,161.484 350.000 C 161.681 349.248,162.030 349.200,167.247 349.200 C 172.267 349.200,172.877 349.123,173.600 348.400 C 174.288 347.712,174.933 347.600,178.200 347.600 C 181.733 347.600,182.000 347.544,182.000 346.800 C 182.000 346.056,182.267 346.000,185.800 346.000 C 189.333 346.000,189.600 345.944,189.600 345.200 C 189.600 344.470,189.867 344.400,192.637 344.400 C 195.338 344.400,195.698 344.311,195.884 343.600 C 196.065 342.907,196.430 342.800,198.598 342.800 C 200.336 342.800,201.254 342.616,201.600 342.200 C 201.874 341.870,202.751 341.598,203.549 341.595 C 205.592 341.587,206.800 341.200,206.800 340.553 C 206.800 340.182,207.292 339.998,208.300 339.995 C 210.338 339.987,211.600 339.608,211.600 339.004 C 211.600 338.691,212.380 338.427,213.667 338.303 C 214.930 338.182,215.920 337.851,216.211 337.452 C 216.496 337.063,217.256 336.800,218.097 336.800 C 219.170 336.800,219.557 336.609,219.716 336.000 C 219.890 335.334,220.262 335.200,221.936 335.200 C 223.595 335.200,223.990 335.060,224.200 334.400 C 224.384 333.820,224.805 333.600,225.731 333.600 C 226.574 333.600,227.177 333.329,227.507 332.800 C 227.889 332.189,228.440 332.000,229.841 332.000 C 231.338 332.000,231.713 331.853,231.884 331.200 C 232.043 330.594,232.430 330.400,233.484 330.400 C 234.538 330.400,234.925 330.206,235.084 329.600 C 235.243 328.994,235.630 328.800,236.684 328.800 C 237.738 328.800,238.125 328.606,238.284 328.000 C 238.443 327.394,238.830 327.200,239.884 327.200 C 240.938 327.200,241.325 327.006,241.484 326.400 C 241.641 325.799,242.030 325.600,243.047 325.600 C 243.983 325.600,244.400 325.415,244.400 325.000 C 244.400 324.632,244.774 324.400,245.367 324.400 C 246.725 324.400,247.600 324.005,247.600 323.392 C 247.600 323.095,248.289 322.754,249.200 322.600 C 250.184 322.434,250.800 322.112,250.800 321.765 C 250.800 321.454,251.160 321.200,251.600 321.200 C 252.040 321.200,252.760 320.840,253.200 320.400 C 253.640 319.960,254.287 319.600,254.637 319.600 C 254.988 319.600,255.369 319.240,255.484 318.800 C 255.641 318.199,256.030 318.000,257.047 318.000 C 258.133 318.000,258.400 317.842,258.400 317.200 C 258.400 316.613,258.667 316.400,259.400 316.400 C 259.950 316.400,260.760 316.040,261.200 315.600 C 261.640 315.160,262.270 314.800,262.600 314.800 C 262.933 314.800,263.200 314.444,263.200 314.000 C 263.200 313.348,263.467 313.200,264.637 313.200 C 265.738 313.200,266.124 313.013,266.284 312.400 C 266.400 311.957,266.830 311.600,267.247 311.600 C 267.733 311.600,268.000 311.317,268.000 310.800 C 268.000 310.158,268.267 310.000,269.353 310.000 C 270.370 310.000,270.759 309.801,270.916 309.200 C 271.041 308.721,271.462 308.400,271.963 308.400 C 272.440 308.400,272.800 308.142,272.800 307.800 C 272.800 307.470,273.002 307.200,273.248 307.200 C 274.006 307.200,277.170 305.030,277.185 304.500 C 277.193 304.225,277.560 304.000,278.000 304.000 C 278.533 304.000,278.800 303.733,278.800 303.200 C 278.800 302.667,279.067 302.400,279.600 302.400 C 280.040 302.400,280.760 302.040,281.200 301.600 C 281.640 301.160,282.287 300.800,282.637 300.800 C 282.988 300.800,283.369 300.440,283.484 300.000 C 283.600 299.557,284.030 299.200,284.447 299.200 C 284.933 299.200,285.200 298.917,285.200 298.400 C 285.200 297.867,285.467 297.600,286.000 297.600 C 286.533 297.600,286.800 297.333,286.800 296.800 C 286.800 296.276,287.067 296.000,287.573 296.000 C 287.998 296.000,288.460 295.640,288.600 295.200 C 288.766 294.678,289.205 294.400,289.864 294.400 C 290.538 294.400,290.945 294.134,291.084 293.600 C 291.200 293.157,291.630 292.800,292.047 292.800 C 292.461 292.800,292.800 292.530,292.800 292.200 C 292.800 291.870,293.087 291.600,293.437 291.600 C 293.788 291.600,294.169 291.240,294.284 290.800 C 294.399 290.360,294.759 290.000,295.084 290.000 C 295.409 290.000,295.769 289.640,295.884 289.200 C 295.999 288.760,296.359 288.400,296.684 288.400 C 297.009 288.400,297.369 288.040,297.484 287.600 C 297.600 287.157,298.030 286.800,298.447 286.800 C 298.933 286.800,299.200 286.517,299.200 286.000 C 299.200 285.467,299.467 285.200,300.000 285.200 C 300.533 285.200,300.800 284.933,300.800 284.400 C 300.800 283.867,301.067 283.600,301.600 283.600 C 302.133 283.600,302.400 283.333,302.400 282.800 C 302.400 282.267,302.667 282.000,303.200 282.000 C 303.733 282.000,304.000 281.733,304.000 281.200 C 304.000 280.667,304.267 280.400,304.800 280.400 C 305.333 280.400,305.600 280.133,305.600 279.600 C 305.600 279.067,305.867 278.800,306.400 278.800 C 306.933 278.800,307.200 278.533,307.200 278.000 C 307.200 277.556,307.467 277.200,307.800 277.200 C 308.133 277.200,308.400 276.844,308.400 276.400 C 308.400 275.867,308.667 275.600,309.200 275.600 C 309.644 275.600,310.000 275.333,310.000 275.000 C 310.000 274.667,310.356 274.400,310.800 274.400 C 311.333 274.400,311.600 274.133,311.600 273.600 C 311.600 273.135,311.867 272.800,312.237 272.800 C 312.588 272.800,312.969 272.440,313.084 272.000 C 313.199 271.560,313.559 271.200,313.884 271.200 C 314.209 271.200,314.569 270.840,314.684 270.400 C 314.799 269.960,315.148 269.600,315.459 269.600 C 315.770 269.600,316.138 269.285,316.277 268.900 C 316.415 268.515,316.859 267.878,317.264 267.484 C 317.669 267.091,318.000 266.326,318.000 265.784 C 318.000 265.067,318.217 264.800,318.800 264.800 C 319.333 264.800,319.600 264.533,319.600 264.000 C 319.600 263.467,319.867 263.200,320.400 263.200 C 320.933 263.200,321.200 262.933,321.200 262.400 C 321.200 261.935,321.467 261.600,321.837 261.600 C 322.188 261.600,322.569 261.240,322.684 260.800 C 322.799 260.360,323.122 260.000,323.402 260.000 C 323.682 260.000,324.029 259.370,324.174 258.600 C 324.331 257.762,324.670 257.200,325.018 257.200 C 325.338 257.200,325.600 256.840,325.600 256.400 C 325.600 255.935,325.867 255.600,326.237 255.600 C 326.588 255.600,326.967 255.246,327.081 254.813 C 327.194 254.381,327.627 253.918,328.043 253.786 C 328.592 253.612,328.800 253.169,328.800 252.173 C 328.800 251.067,328.955 250.800,329.600 250.800 C 330.133 250.800,330.400 250.533,330.400 250.000 C 330.400 249.467,330.667 249.200,331.200 249.200 C 331.822 249.200,332.000 248.933,332.000 248.003 C 332.000 247.240,332.290 246.626,332.800 246.307 C 333.240 246.032,333.600 245.491,333.600 245.104 C 333.600 244.667,333.903 244.400,334.400 244.400 C 335.042 244.400,335.200 244.133,335.200 243.047 C 335.200 242.030,335.399 241.641,336.000 241.484 C 336.479 241.359,336.800 240.938,336.800 240.437 C 336.800 239.977,337.051 239.600,337.357 239.600 C 337.960 239.600,338.400 238.762,338.400 237.614 C 338.400 237.218,338.747 236.803,339.171 236.692 C 339.702 236.553,339.983 236.071,340.071 235.145 C 340.198 233.823,340.237 233.798,342.300 233.679 C 344.073 233.577,344.400 233.437,344.400 232.779 C 344.400 232.079,344.694 231.999,347.300 231.995 C 350.733 231.988,352.000 231.707,352.000 230.953 C 352.000 230.544,352.623 230.400,354.400 230.400 C 356.533 230.400,356.800 230.311,356.800 229.600 C 356.800 228.907,357.067 228.800,358.797 228.800 C 360.360 228.800,360.902 228.626,361.293 228.000 C 361.649 227.430,362.226 227.200,363.296 227.200 C 364.533 227.200,364.800 227.058,364.800 226.400 C 364.800 225.733,365.067 225.600,366.400 225.600 C 367.556 225.600,368.000 225.433,368.000 225.000 C 368.000 224.632,368.374 224.400,368.967 224.400 C 370.318 224.400,371.200 224.006,371.200 223.402 C 371.200 223.120,371.830 222.771,372.600 222.626 C 373.438 222.469,374.000 222.130,374.000 221.782 C 374.000 221.462,374.317 221.200,374.704 221.200 C 375.091 221.200,375.632 220.840,375.907 220.400 C 376.226 219.890,376.840 219.600,377.603 219.600 C 378.533 219.600,378.800 219.422,378.800 218.800 C 378.800 218.267,379.067 218.000,379.600 218.000 C 380.133 218.000,380.400 217.733,380.400 217.200 C 380.400 216.548,380.667 216.400,381.837 216.400 C 382.938 216.400,383.324 216.213,383.484 215.600 C 383.600 215.157,384.030 214.800,384.447 214.800 C 384.933 214.800,385.200 214.517,385.200 214.000 C 385.200 213.467,385.467 213.200,386.000 213.200 C 386.533 213.200,386.800 212.933,386.800 212.400 C 386.800 211.867,387.067 211.600,387.600 211.600 C 388.133 211.600,388.400 211.333,388.400 210.800 C 388.400 210.267,388.667 210.000,389.200 210.000 C 389.733 210.000,390.000 209.733,390.000 209.200 C 390.000 208.667,390.267 208.400,390.800 208.400 C 391.244 208.400,391.600 208.133,391.600 207.800 C 391.600 207.470,391.870 207.200,392.200 207.200 C 392.533 207.200,392.800 206.844,392.800 206.400 C 392.800 205.867,393.067 205.600,393.600 205.600 C 394.133 205.600,394.400 205.333,394.400 204.800 C 394.400 204.267,394.667 204.000,395.200 204.000 C 395.717 204.000,396.000 203.733,396.000 203.247 C 396.000 202.830,396.357 202.400,396.800 202.284 C 397.279 202.159,397.600 201.738,397.600 201.237 C 397.600 200.777,397.851 200.400,398.157 200.400 C 398.769 200.400,399.200 199.559,399.200 198.367 C 399.200 197.945,399.380 197.600,399.600 197.600 C 399.849 197.600,400.000 195.267,400.000 191.400 C 400.000 187.533,399.849 185.200,399.600 185.200 C 399.380 185.200,399.200 184.840,399.200 184.400 C 399.200 183.956,398.933 183.600,398.600 183.600 C 398.270 183.600,397.640 183.240,397.200 182.800 C 396.760 182.360,395.971 182.000,395.447 182.000 C 394.830 182.000,394.419 181.718,394.284 181.200 C 394.137 180.636,393.738 180.400,392.934 180.400 C 392.226 180.400,391.603 180.096,391.293 179.600 C 391.010 179.148,390.360 178.800,389.797 178.800 C 389.248 178.800,388.440 178.440,388.000 178.000 C 387.560 177.560,386.744 177.200,386.187 177.200 C 385.631 177.200,385.076 176.941,384.954 176.625 C 384.820 176.275,383.881 175.943,382.567 175.779 C 381.118 175.598,380.400 175.324,380.400 174.954 C 380.400 174.544,379.778 174.400,378.000 174.400 C 375.867 174.400,375.600 174.311,375.600 173.600 C 375.600 172.877,375.333 172.800,372.827 172.800 C 370.405 172.800,370.022 172.699,369.800 172.000 C 369.555 171.230,369.195 171.200,360.035 171.200 C 349.034 171.200,349.200 171.254,349.200 167.683 C 349.200 166.038,349.041 165.543,348.400 165.200 C 347.830 164.895,347.600 164.362,347.600 163.348 C 347.600 162.262,347.411 161.876,346.800 161.716 C 346.199 161.559,346.000 161.170,346.000 160.153 C 346.000 159.067,345.842 158.800,345.200 158.800 C 344.533 158.800,344.400 158.533,344.400 157.200 C 344.400 155.867,344.267 155.600,343.600 155.600 C 343.082 155.600,342.800 155.333,342.800 154.843 C 342.800 154.426,342.530 153.982,342.200 153.855 C 341.870 153.729,341.600 153.274,341.600 152.845 C 341.600 151.671,341.176 150.800,340.604 150.800 C 340.323 150.800,339.999 150.440,339.884 150.000 C 339.769 149.560,339.388 149.200,339.037 149.200 C 338.687 149.200,338.400 148.936,338.400 148.614 C 338.400 148.292,338.055 147.843,337.633 147.617 C 337.210 147.391,336.746 146.665,336.601 146.003 C 336.455 145.341,336.102 144.800,335.815 144.800 C 335.528 144.800,335.199 144.440,335.084 144.000 C 334.969 143.560,334.588 143.200,334.237 143.200 C 333.867 143.200,333.600 142.865,333.600 142.400 C 333.600 141.867,333.333 141.600,332.800 141.600 C 332.267 141.600,332.000 141.333,332.000 140.800 C 332.000 140.283,331.733 140.000,331.247 140.000 C 330.830 140.000,330.400 139.643,330.284 139.200 C 330.159 138.721,329.738 138.400,329.237 138.400 C 328.771 138.400,328.400 138.142,328.400 137.818 C 328.400 137.470,327.838 137.131,327.000 136.974 C 325.987 136.784,325.600 136.502,325.600 135.955 C 325.600 135.540,325.351 135.200,325.047 135.200 C 324.742 135.200,324.399 134.840,324.284 134.400 C 324.169 133.960,323.788 133.600,323.437 133.600 C 323.087 133.600,322.434 133.234,321.987 132.787 C 320.840 131.640,311.764 131.741,311.856 132.900 C 311.894 133.380,311.622 133.600,310.988 133.600 C 309.460 133.600,308.800 134.034,308.800 135.039 C 308.800 135.564,308.440 136.218,308.000 136.493 C 307.560 136.768,307.200 137.309,307.200 137.696 C 307.200 138.133,306.897 138.400,306.400 138.400 C 305.778 138.400,305.600 138.667,305.600 139.597 C 305.600 140.360,305.310 140.974,304.800 141.293 C 304.360 141.568,304.000 142.019,304.000 142.296 C 304.000 142.573,303.640 143.160,303.200 143.600 C 302.667 144.133,302.400 144.933,302.400 146.000 C 302.400 147.333,302.267 147.600,301.600 147.600 C 300.933 147.600,300.800 147.867,300.800 149.200 C 300.800 150.267,300.533 151.067,300.000 151.600 C 299.381 152.219,299.200 152.933,299.200 154.753 C 299.200 156.770,299.086 157.137,298.400 157.316 C 297.663 157.509,297.600 157.862,297.600 161.818 C 297.600 165.446,297.491 166.191,296.900 166.623 C 295.555 167.606,295.658 189.600,297.008 189.600 C 298.005 189.600,297.814 192.819,296.800 193.084 C 296.206 193.239,296.000 193.630,296.000 194.600 C 296.000 195.576,295.795 195.960,295.189 196.119 C 294.742 196.236,294.427 196.566,294.489 196.854 C 294.563 197.205,293.959 197.454,292.650 197.612 C 291.502 197.751,290.497 198.126,290.206 198.524 C 289.843 199.020,289.112 199.200,287.456 199.200 L 285.200 199.200 285.200 177.233 C 285.200 155.192,285.149 154.000,284.202 154.000 C 283.920 154.000,283.571 153.370,283.426 152.600 C 283.265 151.739,282.933 151.200,282.564 151.200 C 282.234 151.200,281.514 150.750,280.964 150.200 L 279.964 149.200 257.582 149.200 L 235.200 149.200 235.200 101.763 C 235.200 55.442,235.182 54.320,234.438 54.126 C 233.952 53.999,233.582 53.432,233.419 52.563 C 233.264 51.732,232.930 51.200,232.564 51.200 C 232.234 51.200,231.514 50.750,230.964 50.200 L 229.964 49.200 200.044 49.200 C 170.632 49.200,170.112 49.214,169.400 50.000 M216.942 66.336 C 217.546 67.003,217.599 68.649,217.504 83.636 L 217.400 100.200 200.000 100.200 L 182.600 100.200 182.496 83.636 C 182.401 68.649,182.454 67.003,183.058 66.336 C 183.684 65.644,184.700 65.600,200.000 65.600 C 215.300 65.600,216.316 65.644,216.942 66.336 M116.711 115.823 L 117.600 116.445 117.600 133.376 L 117.600 150.307 116.700 150.548 C 115.520 150.864,83.855 150.873,83.033 150.557 C 82.263 150.262,82.055 117.392,82.814 115.974 C 83.390 114.897,115.187 114.755,116.711 115.823 M166.844 116.240 C 167.838 117.139,168.043 149.855,167.057 150.233 C 166.207 150.560,133.885 150.635,133.100 150.313 C 132.194 149.940,132.003 117.464,132.900 116.310 C 133.720 115.256,134.364 115.223,150.544 115.393 C 164.506 115.539,166.165 115.626,166.844 116.240 M216.800 116.400 C 217.910 117.510,218.070 149.734,216.967 150.157 C 215.675 150.653,183.388 150.428,182.880 149.920 C 182.071 149.111,182.205 117.656,183.023 116.489 L 183.645 115.600 199.823 115.600 C 215.467 115.600,216.026 115.626,216.800 116.400 M321.984 156.751 C 323.203 158.044,324.918 160.159,325.795 161.451 C 326.672 162.743,327.526 163.900,327.693 164.023 C 328.128 164.342,331.600 171.216,331.600 171.759 C 331.600 172.008,331.960 172.884,332.400 173.704 C 332.840 174.525,333.200 175.842,333.200 176.630 C 333.200 180.571,334.793 187.213,336.076 188.623 C 338.208 190.966,343.834 191.510,346.933 189.673 C 350.216 187.728,361.744 187.706,367.136 189.636 C 368.310 190.056,369.665 190.400,370.147 190.400 C 370.628 190.400,371.377 190.646,371.811 190.946 C 372.245 191.246,373.050 191.619,373.600 191.773 C 375.584 192.331,378.389 193.794,378.619 194.391 C 378.969 195.300,371.866 201.853,368.252 203.955 C 367.344 204.483,366.240 205.216,365.800 205.582 C 365.360 205.948,364.550 206.460,364.000 206.721 C 363.450 206.981,362.730 207.362,362.400 207.566 C 361.176 208.325,355.055 211.200,354.635 211.214 C 354.396 211.221,353.480 211.575,352.600 212.000 C 351.720 212.425,350.705 212.779,350.344 212.786 C 349.983 212.794,348.903 213.156,347.944 213.591 C 346.985 214.026,345.699 214.386,345.087 214.391 C 344.475 214.396,343.316 214.675,342.512 215.011 C 341.707 215.347,339.496 215.783,337.597 215.979 C 331.276 216.633,328.500 218.237,326.482 222.400 C 325.577 224.269,323.510 227.788,322.754 228.750 C 322.339 229.277,322.000 229.853,322.000 230.030 C 322.000 230.289,317.905 236.602,316.700 238.200 C 316.407 238.588,315.084 240.481,312.227 244.600 C 311.464 245.700,310.291 247.196,309.620 247.925 C 308.949 248.653,308.400 249.342,308.400 249.454 C 308.400 250.589,292.479 267.763,285.552 274.101 C 280.048 279.137,279.005 280.045,275.000 283.286 C 272.800 285.066,270.820 286.722,270.600 286.967 C 270.380 287.211,269.750 287.722,269.200 288.102 C 268.650 288.482,266.850 289.783,265.200 290.994 C 263.550 292.205,261.210 293.868,260.000 294.691 C 258.790 295.513,257.620 296.329,257.400 296.504 C 257.012 296.812,255.342 297.880,250.800 300.728 C 249.590 301.487,248.150 302.404,247.600 302.766 C 247.050 303.129,245.700 303.869,244.600 304.413 C 243.500 304.956,242.464 305.611,242.298 305.869 C 242.131 306.127,241.456 306.456,240.798 306.601 C 240.139 306.745,239.600 307.010,239.600 307.188 C 239.600 307.367,238.925 307.804,238.100 308.159 C 237.275 308.513,236.330 308.983,236.000 309.202 C 235.670 309.421,234.950 309.780,234.400 309.999 C 233.850 310.219,233.130 310.566,232.800 310.771 C 232.254 311.110,227.417 313.386,223.400 315.193 C 222.520 315.589,220.970 316.293,219.956 316.757 C 218.942 317.220,217.911 317.600,217.666 317.600 C 217.420 317.600,216.630 317.959,215.910 318.399 C 215.189 318.838,214.323 319.198,213.985 319.199 C 213.646 319.199,212.663 319.560,211.800 320.000 C 210.937 320.440,209.903 320.800,209.501 320.800 C 209.100 320.800,208.373 321.052,207.886 321.361 C 207.399 321.669,206.370 322.047,205.600 322.200 C 204.830 322.353,203.825 322.715,203.367 323.005 C 202.908 323.294,201.691 323.657,200.662 323.812 C 199.632 323.966,198.699 324.239,198.588 324.419 C 198.477 324.599,197.354 324.945,196.093 325.189 C 194.832 325.432,193.350 325.874,192.800 326.171 C 192.250 326.468,190.814 326.843,189.610 327.005 C 188.405 327.167,187.055 327.527,186.610 327.805 C 186.164 328.083,184.676 328.429,183.302 328.575 C 181.928 328.720,180.179 329.100,179.415 329.420 C 178.651 329.739,177.233 330.000,176.265 330.000 C 175.297 330.000,173.446 330.334,172.152 330.742 C 170.858 331.150,168.042 331.595,165.893 331.732 C 163.744 331.868,161.586 332.193,161.098 332.455 C 160.568 332.738,157.140 333.049,152.605 333.225 C 148.422 333.387,142.454 333.744,139.343 334.019 C 134.827 334.417,132.609 334.417,128.343 334.020 C 125.404 333.746,120.210 333.395,116.800 333.239 C 113.207 333.075,110.223 332.750,109.703 332.466 C 109.210 332.196,107.320 331.866,105.503 331.732 C 103.687 331.598,101.721 331.247,101.134 330.952 C 100.548 330.657,99.018 330.297,97.734 330.154 C 96.451 330.010,94.950 329.657,94.400 329.369 C 93.850 329.081,92.547 328.734,91.505 328.599 C 90.462 328.463,89.377 328.119,89.092 327.835 C 88.807 327.550,87.740 327.192,86.720 327.039 C 85.700 326.886,84.649 326.500,84.384 326.180 C 84.119 325.861,83.512 325.600,83.036 325.600 C 82.559 325.600,81.463 325.240,80.600 324.800 C 79.737 324.360,78.733 324.000,78.369 324.000 C 78.006 324.000,77.250 323.640,76.691 323.200 C 76.131 322.760,75.411 322.400,75.091 322.400 C 74.770 322.400,74.050 322.040,73.491 321.600 C 72.931 321.160,72.125 320.800,71.699 320.800 C 71.273 320.800,70.598 320.440,70.200 320.000 C 69.802 319.560,69.142 319.200,68.734 319.200 C 68.326 319.200,67.684 318.840,67.307 318.400 C 66.930 317.960,66.414 317.600,66.160 317.600 C 65.906 317.600,65.489 317.348,65.233 317.039 C 64.977 316.731,64.320 316.366,63.773 316.229 C 63.227 316.092,62.437 315.669,62.018 315.290 C 60.531 313.942,59.814 313.394,58.932 312.934 C 57.926 312.409,57.458 312.033,55.155 309.900 C 54.264 309.075,53.359 308.400,53.145 308.400 C 52.502 308.400,43.200 298.870,43.200 298.210 C 43.200 297.875,42.924 297.600,42.587 297.600 C 42.251 297.600,41.859 297.299,41.718 296.931 C 41.577 296.562,41.124 295.887,40.712 295.431 C 39.447 294.028,39.018 293.466,37.788 291.600 C 37.136 290.610,36.450 289.689,36.265 289.554 C 35.877 289.271,35.081 287.944,34.234 286.168 C 33.911 285.491,33.366 284.704,33.023 284.419 C 32.680 284.135,32.400 283.517,32.400 283.047 C 32.400 282.577,32.040 281.968,31.600 281.693 C 31.160 281.418,30.800 280.785,30.800 280.286 C 30.800 279.786,30.440 279.070,30.000 278.693 C 29.557 278.314,29.200 277.513,29.200 276.900 C 29.200 276.226,28.887 275.597,28.400 275.293 C 27.948 275.010,27.600 274.360,27.600 273.797 C 27.600 273.248,27.240 272.440,26.800 272.000 C 26.360 271.560,26.000 270.719,26.000 270.131 C 26.000 269.544,25.722 268.756,25.383 268.381 C 25.043 268.006,24.659 267.002,24.529 266.150 C 24.398 265.297,24.031 264.299,23.712 263.931 C 23.393 263.563,23.028 262.484,22.900 261.532 C 22.773 260.581,22.339 259.262,21.936 258.601 C 21.505 257.895,21.202 256.637,21.201 255.549 C 21.201 254.450,20.972 253.509,20.639 253.232 C 20.313 252.962,19.960 251.560,19.796 249.883 C 19.641 248.297,19.261 246.712,18.951 246.361 C 18.592 245.955,18.293 244.278,18.131 241.761 C 17.990 239.582,17.654 237.440,17.385 237.000 C 17.078 236.499,16.807 233.694,16.662 229.501 C 16.534 225.816,16.263 222.486,16.061 222.101 C 15.086 220.247,15.105 217.355,16.101 216.198 L 17.060 215.082 154.430 215.546 C 294.462 216.019,297.587 215.998,299.200 214.587 C 299.530 214.299,300.340 213.929,301.000 213.765 C 302.094 213.494,303.172 212.857,305.337 211.200 C 306.346 210.427,308.827 207.946,309.600 206.937 C 311.011 205.094,312.000 203.612,312.000 203.342 C 312.000 203.183,312.348 202.321,312.773 201.426 C 313.481 199.938,313.978 197.922,314.780 193.289 C 314.956 192.271,314.867 190.408,314.559 188.689 C 313.928 185.161,313.847 171.247,314.445 169.000 C 314.679 168.120,315.045 165.960,315.259 164.200 C 315.472 162.440,315.906 160.601,316.223 160.114 C 316.540 159.627,316.800 158.763,316.800 158.194 C 316.800 156.976,317.767 154.959,318.492 154.668 C 319.505 154.260,319.804 154.438,321.984 156.751 M67.251 165.861 C 68.147 166.940,68.273 199.270,67.384 200.159 C 66.694 200.849,33.986 201.160,32.927 200.487 C 32.372 200.134,31.982 166.537,32.524 165.700 C 33.084 164.834,66.527 164.989,67.251 165.861 M117.033 166.176 C 117.819 167.252,117.883 199.769,117.100 200.276 C 116.303 200.792,84.157 200.912,83.205 200.403 C 82.418 199.981,82.400 199.598,82.400 183.209 L 82.400 166.445 83.300 165.810 C 84.818 164.737,116.231 165.079,117.033 166.176 M166.942 166.336 C 167.546 167.003,167.599 168.649,167.504 183.636 L 167.400 200.200 150.000 200.200 L 132.600 200.200 132.491 183.800 C 132.411 171.702,132.507 167.164,132.859 166.500 L 133.335 165.600 149.806 165.600 C 165.294 165.600,166.316 165.644,166.942 166.336 M216.970 166.600 C 217.772 167.662,217.913 199.127,217.120 199.920 C 216.430 200.610,183.570 200.610,182.880 199.920 C 182.186 199.226,182.217 167.672,182.913 166.765 C 183.749 165.675,184.213 165.648,200.483 165.725 C 215.852 165.798,216.386 165.826,216.970 166.600 M266.879 166.798 C 267.785 167.917,268.012 199.028,267.120 199.920 C 266.430 200.610,233.570 200.610,232.880 199.920 C 232.240 199.280,232.189 168.342,232.826 167.151 C 233.622 165.665,234.628 165.585,250.579 165.749 C 266.111 165.908,266.160 165.911,266.879 166.798 M81.024 251.413 C 80.596 251.736,79.766 252.000,79.177 252.000 C 78.589 252.000,77.679 252.322,77.154 252.716 C 76.629 253.110,75.705 253.646,75.100 253.907 C 74.495 254.169,74.000 254.567,74.000 254.791 C 74.000 255.016,73.726 255.200,73.390 255.200 C 73.055 255.200,72.609 255.650,72.400 256.200 C 72.191 256.750,71.847 257.200,71.637 257.200 C 71.426 257.200,71.130 257.605,70.980 258.100 C 70.829 258.595,70.451 259.291,70.139 259.647 C 68.370 261.666,68.312 271.317,70.056 273.554 C 70.465 274.079,70.800 274.739,70.800 275.022 C 70.800 275.552,74.243 279.200,74.743 279.200 C 74.896 279.200,75.330 279.560,75.707 280.000 C 76.084 280.440,76.820 280.800,77.342 280.800 C 77.865 280.800,78.750 281.160,79.309 281.600 C 80.167 282.275,80.932 282.400,84.200 282.400 C 87.468 282.400,88.233 282.275,89.091 281.600 C 89.650 281.160,90.422 280.800,90.805 280.800 C 91.188 280.800,91.720 280.537,91.987 280.215 C 92.254 279.894,92.861 279.509,93.336 279.360 C 94.378 279.033,95.781 277.584,96.611 275.978 C 96.946 275.330,97.396 274.800,97.610 274.800 C 97.825 274.800,98.001 274.485,98.003 274.100 C 98.004 273.715,98.363 272.860,98.800 272.200 C 99.979 270.420,99.979 262.808,98.800 261.309 C 98.360 260.750,98.000 259.866,98.000 259.346 C 98.000 258.763,97.765 258.400,97.387 258.400 C 97.051 258.400,96.660 258.085,96.519 257.700 C 96.225 256.898,93.297 253.879,92.400 253.453 C 92.070 253.297,91.350 252.908,90.800 252.590 C 90.250 252.272,89.339 252.009,88.776 252.006 C 88.214 252.003,87.404 251.736,86.976 251.413 C 86.512 251.062,85.315 250.825,84.000 250.825 C 82.685 250.825,81.488 251.062,81.024 251.413 M94.211 256.548 C 94.474 256.906,94.899 257.200,95.157 257.200 C 95.414 257.200,95.741 257.501,95.882 257.869 C 96.023 258.238,96.488 258.888,96.914 259.314 C 98.890 261.290,96.776 267.200,93.872 267.821 C 93.172 267.970,92.391 268.260,92.135 268.466 C 91.478 268.995,87.757 267.707,86.455 266.501 C 84.644 264.822,84.860 259.201,86.800 257.553 C 89.254 255.469,93.046 254.954,94.211 256.548 " stroke="none" fill="#455056" fill-rule="evenodd"></path><path id="path3" d="M85.067 117.867 C 84.920 118.013,84.800 125.213,84.800 133.867 L 84.800 149.600 99.900 149.524 C 108.205 149.483,113.965 149.384,112.700 149.304 L 110.400 149.160 110.400 147.580 C 110.400 146.267,110.535 146.000,111.200 146.000 C 111.848 146.000,112.000 145.733,112.000 144.600 C 112.000 143.622,112.181 143.200,112.600 143.200 C 113.067 143.200,113.200 142.667,113.200 140.800 C 113.200 138.447,114.277 137.268,114.935 138.900 C 115.046 139.175,115.151 134.612,115.168 128.761 L 115.200 118.122 110.938 117.861 C 105.353 117.519,85.410 117.524,85.067 117.867 M34.667 167.867 C 34.324 168.210,34.321 185.644,34.662 193.536 L 34.925 199.600 49.999 199.600 L 65.073 199.600 65.354 183.990 C 65.509 175.405,65.527 168.205,65.394 167.990 C 65.122 167.550,35.104 167.429,34.667 167.867 M85.000 168.056 C 84.885 168.356,84.837 175.532,84.895 184.001 L 85.000 199.400 89.200 199.426 C 92.575 199.447,92.752 199.424,90.100 199.310 L 86.800 199.168 86.800 197.584 C 86.800 196.267,86.935 196.000,87.600 196.000 C 88.248 196.000,88.400 195.733,88.400 194.600 C 88.400 193.467,88.552 193.200,89.200 193.200 C 89.867 193.200,90.000 192.933,90.000 191.600 C 90.000 190.267,90.133 190.000,90.800 190.000 C 91.467 190.000,91.600 189.733,91.600 188.400 C 91.600 187.067,91.733 186.800,92.400 186.800 C 93.111 186.800,93.200 186.533,93.200 184.400 C 93.200 182.267,93.289 182.000,94.000 182.000 C 94.648 182.000,94.800 181.733,94.800 180.600 C 94.800 179.622,94.981 179.200,95.400 179.200 C 95.833 179.200,96.000 178.756,96.000 177.600 C 96.000 176.267,96.133 176.000,96.800 176.000 C 97.467 176.000,97.600 175.733,97.600 174.400 C 97.600 173.067,97.733 172.800,98.400 172.800 C 99.067 172.800,99.200 172.533,99.200 171.200 C 99.200 169.867,99.333 169.600,100.000 169.600 C 100.533 169.600,100.800 169.333,100.800 168.800 C 100.800 168.031,100.532 168.000,93.900 167.995 C 90.105 167.992,86.597 167.881,86.105 167.749 C 85.536 167.597,85.133 167.708,85.000 168.056 M96.500 199.491 C 97.325 199.578,98.675 199.578,99.500 199.491 C 100.325 199.405,99.650 199.334,98.000 199.334 C 96.350 199.334,95.675 199.405,96.500 199.491 M18.000 221.026 C 18.000 222.911,18.189 224.806,18.420 225.238 C 18.651 225.669,19.099 228.726,19.416 232.029 C 19.732 235.333,20.147 238.343,20.339 238.718 C 20.530 239.093,20.904 240.840,21.171 242.600 C 21.438 244.360,22.003 246.752,22.428 247.915 C 22.853 249.078,23.200 250.435,23.200 250.930 C 23.200 251.426,23.560 252.537,24.000 253.400 C 24.440 254.263,24.800 255.341,24.800 255.796 C 24.800 256.250,25.046 256.977,25.346 257.411 C 25.646 257.845,26.025 258.650,26.188 259.200 C 26.350 259.750,26.824 260.965,27.241 261.900 C 27.659 262.835,28.367 264.455,28.816 265.500 C 29.265 266.545,29.919 267.940,30.269 268.600 C 30.620 269.260,31.525 270.970,32.280 272.400 C 34.529 276.656,35.054 277.403,35.758 277.342 C 36.287 277.296,36.331 277.401,35.965 277.842 C 35.613 278.266,35.616 278.400,35.975 278.400 C 36.235 278.400,36.340 278.574,36.208 278.787 C 36.077 279.000,36.336 279.403,36.784 279.683 C 37.233 279.963,37.600 280.466,37.600 280.800 C 37.600 281.775,39.155 282.582,39.467 281.769 C 39.606 281.407,39.469 280.963,39.158 280.766 C 38.711 280.483,38.740 280.411,39.300 280.406 C 39.735 280.402,40.000 280.702,40.000 281.200 C 40.000 281.733,40.267 282.000,40.800 282.000 C 41.333 282.000,41.600 282.267,41.600 282.800 C 41.600 283.244,41.867 283.600,42.200 283.600 C 42.533 283.600,42.800 283.956,42.800 284.400 C 42.800 285.334,42.079 285.472,41.746 284.602 C 41.619 284.274,41.372 284.094,41.195 284.203 C 41.019 284.312,40.965 284.056,41.075 283.635 C 41.353 282.573,39.886 281.773,39.193 282.608 C 38.851 283.021,38.838 283.200,39.151 283.200 C 39.398 283.200,39.600 283.470,39.600 283.800 C 39.600 284.130,39.825 284.355,40.100 284.300 C 40.375 284.245,40.562 284.404,40.516 284.653 C 40.469 284.902,40.735 285.082,41.106 285.053 C 41.477 285.024,41.785 285.232,41.790 285.515 C 41.796 285.798,42.040 286.178,42.334 286.359 C 42.628 286.541,42.853 286.849,42.834 287.045 C 42.815 287.240,42.980 287.400,43.200 287.400 C 43.420 287.400,43.585 287.560,43.566 287.755 C 43.532 288.105,44.366 288.782,44.845 288.794 C 44.979 288.797,45.003 288.350,44.898 287.800 C 44.758 287.067,44.879 286.800,45.353 286.800 C 45.841 286.800,46.000 286.407,46.000 285.200 C 46.000 283.867,46.133 283.600,46.800 283.600 C 47.467 283.600,47.600 283.333,47.600 282.000 C 47.600 280.667,47.733 280.400,48.400 280.400 C 49.103 280.400,49.200 280.133,49.200 278.200 C 49.200 276.267,49.297 276.000,50.000 276.000 C 50.667 276.000,50.800 275.733,50.800 274.400 C 50.800 273.067,50.933 272.800,51.600 272.800 C 52.267 272.800,52.400 272.533,52.400 271.200 C 52.400 269.867,52.533 269.600,53.200 269.600 C 53.867 269.600,54.000 269.333,54.000 268.000 C 54.000 266.667,54.133 266.400,54.800 266.400 C 55.467 266.400,55.600 266.133,55.600 264.800 C 55.600 263.467,55.733 263.200,56.400 263.200 C 57.048 263.200,57.200 262.933,57.200 261.800 C 57.200 260.667,57.352 260.400,58.000 260.400 C 58.667 260.400,58.800 260.133,58.800 258.800 C 58.800 257.467,58.933 257.200,59.600 257.200 C 60.311 257.200,60.400 256.933,60.400 254.800 C 60.400 252.667,60.489 252.400,61.200 252.400 C 61.867 252.400,62.000 252.133,62.000 250.800 C 62.000 249.644,62.167 249.200,62.600 249.200 C 63.033 249.200,63.200 248.756,63.200 247.600 C 63.200 246.267,63.333 246.000,64.000 246.000 C 64.648 246.000,64.800 245.733,64.800 244.600 C 64.800 243.467,64.952 243.200,65.600 243.200 C 66.267 243.200,66.400 242.933,66.400 241.600 C 66.400 240.267,66.533 240.000,67.200 240.000 C 67.867 240.000,68.000 239.733,68.000 238.400 C 68.000 237.067,68.133 236.800,68.800 236.800 C 69.467 236.800,69.600 236.533,69.600 235.200 C 69.600 233.867,69.733 233.600,70.400 233.600 C 71.103 233.600,71.200 233.333,71.200 231.400 C 71.200 229.467,71.297 229.200,72.000 229.200 C 72.667 229.200,72.800 228.933,72.800 227.600 C 72.800 226.267,72.933 226.000,73.600 226.000 C 74.267 226.000,74.400 225.733,74.400 224.400 C 74.400 223.067,74.533 222.800,75.200 222.800 C 75.867 222.800,76.000 222.533,76.000 221.200 C 76.000 219.867,76.133 219.600,76.800 219.600 C 77.310 219.600,77.600 219.333,77.600 218.864 C 77.600 217.952,66.268 217.602,36.700 217.601 L 18.000 217.600 18.000 221.026 M88.842 257.405 C 84.477 259.805,85.378 267.090,90.060 267.244 C 93.707 267.365,94.914 266.748,96.049 264.182 C 97.987 259.800,93.006 255.116,88.842 257.405 M38.368 278.700 C 38.350 279.327,38.241 279.542,38.115 279.200 C 37.993 278.870,37.715 278.375,37.497 278.100 C 37.215 277.743,37.288 277.600,37.751 277.600 C 38.200 277.600,38.390 277.939,38.368 278.700 " stroke="none" fill="#64b4f3" fill-rule="evenodd"></path><path id="path4" d="M183.058 66.336 C 182.454 67.003,182.401 68.649,182.496 83.636 L 182.600 100.200 200.000 100.200 L 217.400 100.200 217.504 83.636 C 217.599 68.649,217.546 67.003,216.942 66.336 C 216.316 65.644,215.300 65.600,200.000 65.600 C 184.700 65.600,183.684 65.644,183.058 66.336 M216.320 67.680 C 217.261 68.621,216.980 99.075,216.026 99.586 C 215.193 100.032,185.367 100.193,184.233 99.757 C 183.573 99.504,183.217 68.116,183.867 67.467 C 184.382 66.952,215.798 67.158,216.320 67.680 M82.814 115.974 C 82.055 117.392,82.263 150.262,83.033 150.557 C 83.855 150.873,115.520 150.864,116.700 150.548 L 117.600 150.307 117.600 133.376 L 117.600 116.445 116.711 115.823 C 115.187 114.755,83.390 114.897,82.814 115.974 M134.200 115.449 C 132.416 115.937,132.400 116.096,132.400 133.489 C 132.400 148.862,132.449 150.045,133.100 150.313 C 133.885 150.635,166.207 150.560,167.057 150.233 C 168.043 149.855,167.838 117.139,166.844 116.240 C 166.086 115.554,136.440 114.835,134.200 115.449 M183.023 116.489 C 182.205 117.656,182.071 149.111,182.880 149.920 C 183.388 150.428,215.675 150.653,216.967 150.157 C 218.070 149.734,217.910 117.510,216.800 116.400 C 216.026 115.626,215.467 115.600,199.823 115.600 L 183.645 115.600 183.023 116.489 M115.781 117.264 L 116.800 117.728 116.800 133.618 L 116.800 149.507 115.900 149.748 C 114.012 150.254,84.589 150.026,83.871 149.500 C 83.245 149.041,83.198 147.711,83.295 133.412 L 83.400 117.823 84.400 117.318 C 85.769 116.625,114.272 116.577,115.781 117.264 M166.300 117.694 C 167.261 118.470,166.998 149.066,166.026 149.586 C 165.134 150.064,134.879 150.166,134.141 149.694 C 133.812 149.483,133.642 144.922,133.541 133.615 L 133.400 117.830 134.269 117.394 C 135.405 116.823,165.572 117.106,166.300 117.694 M216.026 117.614 C 216.771 118.013,216.800 118.614,216.800 133.624 L 216.800 149.220 215.774 149.610 C 214.665 150.031,186.030 150.158,184.500 149.748 L 183.600 149.507 183.600 133.587 C 183.600 121.225,183.712 117.622,184.100 117.465 C 185.118 117.054,215.243 117.195,216.026 117.614 M318.492 154.668 C 317.767 154.959,316.800 156.976,316.800 158.194 C 316.800 158.763,316.540 159.627,316.223 160.114 C 315.906 160.601,315.472 162.440,315.259 164.200 C 315.045 165.960,314.679 168.120,314.445 169.000 C 313.847 171.247,313.928 185.161,314.559 188.689 C 314.867 190.408,314.956 192.271,314.780 193.289 C 313.978 197.922,313.481 199.938,312.773 201.426 C 312.348 202.321,312.000 203.183,312.000 203.342 C 312.000 203.612,311.011 205.094,309.600 206.937 C 307.390 209.823,303.071 213.253,301.000 213.765 C 300.340 213.929,299.530 214.299,299.200 214.587 C 297.587 215.998,294.462 216.019,154.430 215.546 L 17.060 215.082 16.101 216.198 C 15.105 217.355,15.086 220.247,16.061 222.101 C 16.263 222.486,16.534 225.816,16.662 229.501 C 16.807 233.694,17.078 236.499,17.385 237.000 C 17.654 237.440,17.990 239.582,18.131 241.761 C 18.293 244.278,18.592 245.955,18.951 246.361 C 19.261 246.712,19.641 248.297,19.796 249.883 C 19.960 251.560,20.313 252.962,20.639 253.232 C 20.972 253.509,21.201 254.450,21.201 255.549 C 21.202 256.637,21.505 257.895,21.936 258.601 C 22.339 259.262,22.773 260.581,22.900 261.532 C 23.028 262.484,23.393 263.563,23.712 263.931 C 24.031 264.299,24.398 265.297,24.529 266.150 C 24.659 267.002,25.043 268.006,25.383 268.381 C 25.722 268.756,26.000 269.544,26.000 270.131 C 26.000 270.719,26.360 271.560,26.800 272.000 C 27.240 272.440,27.600 273.248,27.600 273.797 C 27.600 274.360,27.948 275.010,28.400 275.293 C 28.887 275.597,29.200 276.226,29.200 276.900 C 29.200 277.513,29.557 278.314,30.000 278.693 C 30.440 279.070,30.800 279.786,30.800 280.286 C 30.800 280.785,31.160 281.418,31.600 281.693 C 32.040 281.968,32.400 282.577,32.400 283.047 C 32.400 283.517,32.680 284.135,33.023 284.419 C 33.366 284.704,33.911 285.491,34.234 286.168 C 35.081 287.944,35.877 289.271,36.265 289.554 C 36.450 289.689,37.136 290.610,37.788 291.600 C 39.018 293.466,39.447 294.028,40.712 295.431 C 41.124 295.887,41.577 296.562,41.718 296.931 C 41.859 297.299,42.251 297.600,42.587 297.600 C 42.924 297.600,43.200 297.875,43.200 298.210 C 43.200 298.870,52.502 308.400,53.145 308.400 C 53.359 308.400,54.264 309.075,55.155 309.900 C 57.458 312.033,57.926 312.409,58.932 312.934 C 59.814 313.394,60.531 313.942,62.018 315.290 C 62.437 315.669,63.227 316.092,63.773 316.229 C 64.320 316.366,64.977 316.731,65.233 317.039 C 65.489 317.348,65.906 317.600,66.160 317.600 C 66.414 317.600,66.930 317.960,67.307 318.400 C 67.684 318.840,68.326 319.200,68.734 319.200 C 69.142 319.200,69.802 319.560,70.200 320.000 C 70.598 320.440,71.273 320.800,71.699 320.800 C 72.125 320.800,72.931 321.160,73.491 321.600 C 74.050 322.040,74.770 322.400,75.091 322.400 C 75.411 322.400,76.131 322.760,76.691 323.200 C 77.250 323.640,78.006 324.000,78.369 324.000 C 78.733 324.000,79.737 324.360,80.600 324.800 C 81.463 325.240,82.559 325.600,83.036 325.600 C 83.512 325.600,84.119 325.861,84.384 326.180 C 84.649 326.500,85.700 326.886,86.720 327.039 C 87.740 327.192,88.807 327.550,89.092 327.835 C 89.377 328.119,90.462 328.463,91.505 328.599 C 92.547 328.734,93.850 329.081,94.400 329.369 C 94.950 329.657,96.451 330.010,97.734 330.154 C 99.018 330.297,100.548 330.657,101.134 330.952 C 101.721 331.247,103.687 331.598,105.503 331.732 C 107.320 331.866,109.210 332.196,109.703 332.466 C 110.223 332.750,113.207 333.075,116.800 333.239 C 120.210 333.395,125.404 333.746,128.343 334.020 C 132.609 334.417,134.827 334.417,139.343 334.019 C 142.454 333.744,148.422 333.387,152.605 333.225 C 157.140 333.049,160.568 332.738,161.098 332.455 C 161.586 332.193,163.744 331.868,165.893 331.732 C 168.042 331.595,170.858 331.150,172.152 330.742 C 173.446 330.334,175.297 330.000,176.265 330.000 C 177.233 330.000,178.651 329.739,179.415 329.420 C 180.179 329.100,181.928 328.720,183.302 328.575 C 184.676 328.429,186.164 328.083,186.610 327.805 C 187.055 327.527,188.405 327.167,189.610 327.005 C 190.814 326.843,192.250 326.468,192.800 326.171 C 193.350 325.874,194.832 325.432,196.093 325.189 C 197.354 324.945,198.477 324.599,198.588 324.419 C 198.699 324.239,199.632 323.966,200.662 323.812 C 201.691 323.657,202.908 323.294,203.367 323.005 C 203.825 322.715,204.830 322.353,205.600 322.200 C 206.370 322.047,207.399 321.669,207.886 321.361 C 208.373 321.052,209.100 320.800,209.501 320.800 C 209.903 320.800,210.937 320.440,211.800 320.000 C 212.663 319.560,213.646 319.199,213.985 319.199 C 214.323 319.198,215.189 318.838,215.910 318.399 C 216.630 317.959,217.420 317.600,217.666 317.600 C 217.911 317.600,218.942 317.220,219.956 316.757 C 220.970 316.293,222.520 315.589,223.400 315.193 C 227.417 313.386,232.254 311.110,232.800 310.771 C 233.130 310.566,233.850 310.219,234.400 309.999 C 234.950 309.780,235.670 309.421,236.000 309.202 C 236.330 308.983,237.275 308.513,238.100 308.159 C 238.925 307.804,239.600 307.367,239.600 307.188 C 239.600 307.010,240.139 306.745,240.798 306.601 C 241.456 306.456,242.131 306.127,242.298 305.869 C 242.464 305.611,243.500 304.956,244.600 304.413 C 245.700 303.869,247.050 303.129,247.600 302.766 C 248.150 302.404,249.590 301.487,250.800 300.728 C 255.342 297.880,257.012 296.812,257.400 296.504 C 257.620 296.329,258.790 295.513,260.000 294.691 C 261.210 293.868,263.550 292.205,265.200 290.994 C 266.850 289.783,268.650 288.482,269.200 288.102 C 269.750 287.722,270.380 287.211,270.600 286.967 C 270.820 286.722,272.800 285.066,275.000 283.286 C 279.005 280.045,280.048 279.137,285.552 274.101 C 292.479 267.763,308.400 250.589,308.400 249.454 C 308.400 249.342,308.949 248.653,309.620 247.925 C 310.291 247.196,311.464 245.700,312.227 244.600 C 315.084 240.481,316.407 238.588,316.700 238.200 C 317.905 236.602,322.000 230.289,322.000 230.030 C 322.000 229.853,322.339 229.277,322.754 228.750 C 323.510 227.788,325.577 224.269,326.482 222.400 C 328.500 218.237,331.276 216.633,337.597 215.979 C 339.496 215.783,341.707 215.347,342.512 215.011 C 343.316 214.675,344.475 214.396,345.087 214.391 C 345.699 214.386,346.985 214.026,347.944 213.591 C 348.903 213.156,349.983 212.794,350.344 212.786 C 350.705 212.779,351.720 212.425,352.600 212.000 C 353.480 211.575,354.396 211.221,354.635 211.214 C 355.055 211.200,361.176 208.325,362.400 207.566 C 362.730 207.362,363.450 206.981,364.000 206.721 C 364.550 206.460,365.360 205.948,365.800 205.582 C 366.240 205.216,367.344 204.483,368.252 203.955 C 371.866 201.853,378.969 195.300,378.619 194.391 C 378.389 193.794,375.584 192.331,373.600 191.773 C 373.050 191.619,372.245 191.246,371.811 190.946 C 371.377 190.646,370.628 190.400,370.147 190.400 C 369.665 190.400,368.310 190.056,367.136 189.636 C 361.744 187.706,350.216 187.728,346.933 189.673 C 343.834 191.510,338.208 190.966,336.076 188.623 C 334.793 187.213,333.200 180.571,333.200 176.630 C 333.200 175.842,332.840 174.525,332.400 173.704 C 331.960 172.884,331.600 172.008,331.600 171.759 C 331.600 171.216,328.128 164.342,327.693 164.023 C 327.526 163.900,326.672 162.743,325.795 161.451 C 323.988 158.790,319.965 154.384,319.384 154.432 C 319.173 154.449,318.771 154.555,318.492 154.668 M321.634 157.687 C 324.221 160.755,326.400 163.546,326.400 163.792 C 326.400 163.911,327.007 164.872,327.748 165.927 C 328.490 166.982,329.235 168.285,329.404 168.823 C 329.574 169.360,330.047 170.427,330.456 171.194 C 330.865 171.961,331.200 172.915,331.200 173.314 C 331.200 173.713,331.487 174.595,331.838 175.273 C 332.224 176.019,332.604 178.260,332.801 180.953 C 333.515 190.710,338.502 194.085,347.000 190.561 C 350.211 189.229,363.089 188.769,365.099 189.914 C 365.593 190.196,366.956 190.604,368.128 190.821 C 369.300 191.037,370.959 191.571,371.814 192.007 C 372.669 192.443,373.691 192.800,374.085 192.800 C 374.478 192.800,374.800 192.973,374.800 193.185 C 374.800 193.396,375.527 193.765,376.416 194.004 L 378.033 194.440 376.261 196.161 C 375.287 197.108,373.435 198.721,372.145 199.745 C 369.193 202.088,369.344 201.978,367.200 203.363 C 366.210 204.002,364.912 204.857,364.316 205.263 C 363.720 205.668,363.118 206.000,362.979 206.000 C 362.840 206.000,362.269 206.360,361.709 206.800 C 361.150 207.240,360.378 207.600,359.995 207.600 C 359.612 207.600,359.083 207.858,358.821 208.174 C 358.559 208.490,357.772 208.870,357.072 209.019 C 356.373 209.167,355.530 209.522,355.200 209.807 C 354.870 210.092,353.843 210.527,352.917 210.774 C 351.991 211.020,351.132 211.386,351.008 211.588 C 350.883 211.789,349.931 212.074,348.891 212.220 C 347.851 212.367,346.601 212.737,346.114 213.043 C 345.627 213.350,344.721 213.600,344.101 213.600 C 343.481 213.600,341.990 213.884,340.787 214.232 C 339.584 214.579,337.091 215.023,335.247 215.218 C 333.236 215.431,331.622 215.818,331.215 216.186 C 330.842 216.524,330.268 216.800,329.938 216.800 C 328.966 216.800,324.800 222.098,324.800 223.335 C 324.800 223.633,324.435 224.298,323.989 224.813 C 323.543 225.327,323.074 226.164,322.946 226.674 C 322.818 227.183,322.566 227.600,322.386 227.600 C 322.206 227.600,321.775 228.140,321.429 228.800 C 321.083 229.460,320.526 230.521,320.192 231.158 C 319.857 231.795,319.317 232.537,318.992 232.807 C 318.666 233.077,318.400 233.518,318.400 233.787 C 318.400 234.056,318.040 234.602,317.600 235.000 C 317.160 235.398,316.800 235.884,316.800 236.079 C 316.800 236.274,316.080 237.388,315.200 238.554 C 314.320 239.719,313.600 240.791,313.600 240.936 C 313.600 241.081,313.285 241.539,312.900 241.952 C 312.515 242.366,311.879 243.131,311.487 243.652 C 308.161 248.069,305.818 251.065,305.429 251.400 C 305.173 251.620,304.702 252.180,304.382 252.645 C 301.312 257.102,281.530 277.288,279.599 277.933 C 279.380 278.007,279.200 278.322,279.200 278.633 C 279.200 278.945,279.012 279.200,278.782 279.200 C 278.395 279.200,273.120 283.331,271.313 285.048 C 270.878 285.461,270.014 286.160,269.393 286.600 C 268.772 287.040,266.952 288.390,265.348 289.600 C 261.016 292.868,260.296 293.372,259.513 293.687 C 259.121 293.845,258.800 294.160,258.800 294.387 C 258.800 294.614,258.575 294.803,258.300 294.807 C 257.809 294.814,254.428 296.959,254.012 297.527 C 253.895 297.686,253.350 298.042,252.800 298.319 C 252.250 298.595,250.540 299.621,249.000 300.598 C 247.460 301.575,245.660 302.652,245.000 302.990 C 244.340 303.329,243.080 304.037,242.200 304.563 C 241.320 305.090,239.477 306.092,238.104 306.791 C 236.732 307.490,235.515 308.215,235.400 308.400 C 235.285 308.586,234.665 308.854,234.023 308.995 C 233.381 309.136,232.650 309.498,232.400 309.800 C 232.150 310.102,231.430 310.462,230.800 310.600 C 230.170 310.738,229.445 311.105,229.187 311.415 C 228.930 311.725,228.114 312.092,227.374 312.231 C 226.634 312.370,225.820 312.735,225.565 313.042 C 225.310 313.349,224.892 313.600,224.636 313.600 C 224.379 313.600,223.484 313.950,222.646 314.377 C 221.808 314.804,220.612 315.266,219.989 315.403 C 219.365 315.539,218.641 315.910,218.379 316.226 C 218.117 316.542,217.516 316.800,217.045 316.800 C 216.574 316.800,215.516 317.160,214.696 317.600 C 213.875 318.040,212.975 318.400,212.696 318.400 C 212.416 318.400,211.516 318.760,210.696 319.200 C 209.875 319.640,208.887 320.006,208.501 320.014 C 208.116 320.021,207.080 320.375,206.200 320.800 C 205.320 321.225,204.240 321.585,203.800 321.600 C 203.360 321.615,202.280 321.975,201.400 322.400 C 200.520 322.825,199.350 323.185,198.800 323.200 C 198.250 323.215,197.080 323.575,196.200 324.000 C 195.320 324.425,193.965 324.779,193.189 324.786 C 192.413 324.794,191.417 325.053,190.975 325.363 C 190.533 325.672,189.278 326.047,188.186 326.196 C 187.094 326.345,185.164 326.812,183.898 327.233 C 182.633 327.655,180.962 328.000,180.186 328.000 C 179.409 328.000,178.194 328.242,177.485 328.539 C 176.776 328.835,174.847 329.203,173.198 329.357 C 171.549 329.510,169.300 329.885,168.200 330.190 C 167.100 330.494,164.490 330.859,162.400 330.999 C 160.310 331.140,157.160 331.549,155.400 331.908 C 150.611 332.886,118.705 332.909,114.600 331.938 C 113.060 331.573,110.377 331.150,108.637 330.998 C 106.897 330.845,104.823 330.490,104.028 330.210 C 103.233 329.929,101.444 329.568,100.052 329.406 C 98.661 329.245,97.045 328.863,96.461 328.559 C 95.878 328.254,94.860 327.998,94.200 327.989 C 93.540 327.980,92.280 327.625,91.400 327.200 C 90.520 326.775,89.440 326.415,89.000 326.400 C 88.560 326.385,87.480 326.025,86.600 325.600 C 85.720 325.175,84.690 324.821,84.311 324.814 C 83.932 324.806,82.762 324.419,81.711 323.952 C 80.660 323.486,79.080 322.783,78.200 322.391 C 76.415 321.594,69.427 318.133,67.709 317.194 C 59.432 312.673,46.603 301.404,41.121 293.841 C 38.542 290.282,35.018 285.049,34.500 284.006 C 34.224 283.453,33.586 282.280,33.082 281.400 C 31.904 279.344,30.117 275.842,29.203 273.800 C 28.809 272.920,28.107 271.370,27.643 270.356 C 27.180 269.342,26.800 268.312,26.800 268.067 C 26.800 267.822,26.462 266.852,26.048 265.911 C 25.635 264.970,24.918 262.940,24.456 261.400 C 23.993 259.860,23.252 257.474,22.807 256.098 C 22.363 254.723,22.000 253.142,22.000 252.586 C 22.000 252.029,21.756 250.990,21.457 250.275 C 21.158 249.560,20.789 247.901,20.635 246.588 C 20.482 245.274,20.110 243.300,19.809 242.200 C 19.508 241.100,19.143 238.940,18.999 237.400 C 18.855 235.860,18.486 233.070,18.180 231.200 C 17.323 225.977,16.977 218.151,17.570 217.436 C 18.000 216.918,34.744 216.874,155.330 217.074 L 292.600 217.301 296.000 216.454 C 310.415 212.863,316.914 202.251,315.385 184.800 C 314.317 172.613,316.773 155.600,319.599 155.600 C 319.751 155.600,320.667 156.539,321.634 157.687 M32.524 165.700 C 31.982 166.537,32.372 200.134,32.927 200.487 C 33.986 201.160,66.694 200.849,67.384 200.159 C 68.273 199.270,68.147 166.940,67.251 165.861 C 66.527 164.989,33.084 164.834,32.524 165.700 M83.300 165.810 L 82.400 166.445 82.400 183.209 C 82.400 199.598,82.418 199.981,83.205 200.403 C 84.157 200.912,116.303 200.792,117.100 200.276 C 117.883 199.769,117.819 167.252,117.033 166.176 C 116.231 165.079,84.818 164.737,83.300 165.810 M132.859 166.500 C 132.507 167.164,132.411 171.702,132.491 183.800 L 132.600 200.200 150.000 200.200 L 167.400 200.200 167.504 183.636 C 167.599 168.649,167.546 167.003,166.942 166.336 C 166.316 165.644,165.294 165.600,149.806 165.600 L 133.335 165.600 132.859 166.500 M184.000 165.890 C 182.468 166.503,182.426 166.966,182.413 183.420 C 182.403 195.361,182.522 199.562,182.880 199.920 C 183.570 200.610,216.430 200.610,217.120 199.920 C 217.913 199.127,217.772 167.662,216.970 166.600 C 216.367 165.802,185.862 165.145,184.000 165.890 M234.126 165.972 C 233.646 166.183,233.061 166.713,232.826 167.151 C 232.189 168.342,232.240 199.280,232.880 199.920 C 233.570 200.610,266.430 200.610,267.120 199.920 C 268.012 199.028,267.785 167.917,266.879 166.798 C 266.083 165.815,236.205 165.061,234.126 165.972 M65.781 167.264 L 66.800 167.728 66.800 183.618 L 66.800 199.507 65.900 199.748 C 64.284 200.181,34.806 200.032,33.974 199.586 C 33.229 199.187,33.200 198.586,33.200 183.609 L 33.200 168.045 34.089 167.423 C 35.232 166.622,64.055 166.478,65.781 167.264 M116.139 167.549 C 117.244 168.467,117.137 198.991,116.026 199.586 C 114.828 200.227,84.753 200.147,83.871 199.500 C 83.245 199.041,83.198 197.711,83.295 183.412 L 83.400 167.823 84.400 167.310 C 85.893 166.544,115.194 166.764,116.139 167.549 M166.320 167.680 C 167.261 168.621,166.980 199.075,166.026 199.586 C 165.193 200.032,135.367 200.193,134.233 199.757 C 133.573 199.504,133.217 168.116,133.867 167.467 C 134.382 166.952,165.798 167.158,166.320 167.680 M216.026 167.614 C 216.771 168.013,216.800 168.614,216.800 183.624 L 216.800 199.220 215.774 199.610 C 214.665 200.031,186.030 200.158,184.500 199.748 L 183.600 199.507 183.600 183.587 C 183.600 171.225,183.712 167.622,184.100 167.465 C 185.118 167.054,215.243 167.195,216.026 167.614 M265.767 167.443 C 266.330 167.659,266.400 169.457,266.400 183.596 L 266.400 199.507 265.500 199.748 C 264.326 200.063,235.674 200.063,234.500 199.748 L 233.600 199.507 233.600 183.587 C 233.600 171.225,233.712 167.622,234.100 167.465 C 234.821 167.174,265.012 167.153,265.767 167.443 M78.200 250.956 C 65.628 256.402,63.318 272.882,74.119 280.080 C 78.800 283.199,78.125 283.000,84.000 282.997 C 95.348 282.992,102.366 274.670,100.427 263.516 C 98.703 253.600,87.157 247.076,78.200 250.956 M86.976 251.413 C 87.404 251.736,88.214 252.003,88.776 252.006 C 89.339 252.009,90.250 252.272,90.800 252.590 C 91.350 252.908,92.070 253.297,92.400 253.453 C 93.297 253.879,96.225 256.898,96.519 257.700 C 96.660 258.085,97.051 258.400,97.387 258.400 C 97.765 258.400,98.000 258.763,98.000 259.346 C 98.000 259.866,98.360 260.750,98.800 261.309 C 99.979 262.808,99.979 270.420,98.800 272.200 C 98.363 272.860,98.004 273.715,98.003 274.100 C 98.001 274.485,97.825 274.800,97.610 274.800 C 97.396 274.800,96.946 275.330,96.611 275.978 C 95.781 277.584,94.378 279.033,93.336 279.360 C 92.861 279.509,92.254 279.894,91.987 280.215 C 91.720 280.537,91.188 280.800,90.805 280.800 C 90.422 280.800,89.650 281.160,89.091 281.600 C 88.233 282.275,87.468 282.400,84.200 282.400 C 80.932 282.400,80.167 282.275,79.309 281.600 C 78.750 281.160,77.865 280.800,77.342 280.800 C 76.820 280.800,76.084 280.440,75.707 280.000 C 75.330 279.560,74.896 279.200,74.743 279.200 C 74.243 279.200,70.800 275.552,70.800 275.022 C 70.800 274.739,70.465 274.079,70.056 273.554 C 68.312 271.317,68.370 261.666,70.139 259.647 C 70.451 259.291,70.829 258.595,70.980 258.100 C 71.130 257.605,71.426 257.200,71.637 257.200 C 71.847 257.200,72.191 256.750,72.400 256.200 C 72.609 255.650,73.055 255.200,73.390 255.200 C 73.726 255.200,74.000 255.016,74.000 254.791 C 74.000 254.567,74.495 254.169,75.100 253.907 C 75.705 253.646,76.629 253.110,77.154 252.716 C 77.679 252.322,78.589 252.000,79.177 252.000 C 79.766 252.000,80.596 251.736,81.024 251.413 C 81.488 251.062,82.685 250.825,84.000 250.825 C 85.315 250.825,86.512 251.062,86.976 251.413 M89.000 255.986 C 85.247 257.761,83.741 263.985,86.455 266.501 C 87.757 267.707,91.478 268.995,92.135 268.466 C 92.391 268.260,93.172 267.970,93.872 267.821 C 96.776 267.200,98.890 261.290,96.914 259.314 C 96.488 258.888,96.023 258.238,95.882 257.869 C 95.741 257.501,95.414 257.200,95.157 257.200 C 94.899 257.200,94.474 256.906,94.211 256.548 C 93.652 255.783,90.213 255.412,89.000 255.986 M93.555 257.577 C 96.326 258.991,97.256 261.453,96.049 264.182 C 93.729 269.428,85.976 268.005,86.014 262.340 C 86.043 258.022,89.789 255.656,93.555 257.577 " stroke="none" fill="#4c6f86" fill-rule="evenodd"></path></g></svg>