<svg id="svg" version="1.1" xmlns="http://www.w3.org/2000/svg" xmlns:xlink="http://www.w3.org/1999/xlink" width="400" height="400" viewBox="0, 0, 400,400"><g id="svgg"><path id="path0" d="M0.000 200.000 L 0.000 400.000 200.000 400.000 L 400.000 400.000 400.000 200.000 L 400.000 0.000 200.000 0.000 L 0.000 0.000 0.000 200.000 M340.600 16.660 C 343.020 17.243,346.111 18.143,347.468 18.660 C 348.826 19.177,350.199 19.600,350.519 19.600 C 350.840 19.600,351.302 19.841,351.546 20.135 C 351.791 20.430,352.713 20.887,353.595 21.151 C 354.478 21.416,355.200 21.793,355.200 21.989 C 355.200 22.185,355.605 22.466,356.100 22.613 C 357.047 22.894,359.380 24.344,361.400 25.906 C 362.060 26.416,363.025 27.141,363.545 27.517 C 365.293 28.781,372.965 36.662,373.800 38.051 C 374.020 38.417,374.875 39.699,375.700 40.900 C 376.525 42.100,377.200 43.262,377.200 43.480 C 377.200 43.699,377.565 44.298,378.011 44.813 C 378.457 45.327,378.931 46.209,379.065 46.774 C 379.198 47.338,379.537 48.070,379.817 48.400 C 380.096 48.730,380.537 49.794,380.795 50.764 C 381.054 51.734,381.499 52.904,381.785 53.364 C 382.071 53.824,382.425 55.010,382.571 56.000 C 382.716 56.990,383.188 58.944,383.618 60.342 C 384.388 62.844,384.400 65.061,384.400 199.881 L 384.400 336.878 383.351 341.139 C 382.774 343.483,382.063 345.940,381.772 346.600 C 381.480 347.260,381.023 348.567,380.756 349.505 C 380.489 350.442,380.030 351.409,379.735 351.654 C 379.441 351.898,379.200 352.349,379.200 352.657 C 379.200 353.351,377.151 357.227,376.032 358.650 C 375.574 359.232,375.200 359.910,375.200 360.158 C 375.200 360.405,374.840 360.832,374.400 361.107 C 373.960 361.382,373.600 361.805,373.600 362.047 C 373.600 362.984,363.104 373.600,362.177 373.600 C 362.007 373.600,361.582 373.874,361.234 374.210 C 359.582 375.800,350.502 380.798,349.257 380.802 C 348.896 380.804,348.060 381.096,347.400 381.452 C 346.740 381.808,345.120 382.331,343.800 382.613 C 342.480 382.896,340.410 383.411,339.200 383.759 C 335.431 384.841,63.732 384.720,60.487 383.635 C 59.229 383.214,57.300 382.743,56.200 382.588 C 55.100 382.433,53.639 381.967,52.953 381.553 C 52.267 381.139,51.367 380.799,50.953 380.798 C 50.539 380.797,49.480 380.352,48.600 379.810 C 47.720 379.268,46.713 378.819,46.361 378.812 C 46.010 378.806,45.307 378.440,44.800 378.000 C 44.293 377.560,43.699 377.200,43.480 377.200 C 43.262 377.200,42.098 376.525,40.895 375.700 C 39.692 374.875,38.434 374.020,38.100 373.800 C 37.766 373.580,37.102 373.040,36.623 372.600 C 36.144 372.160,34.730 370.936,33.480 369.880 C 30.261 367.161,23.921 359.196,22.829 356.500 C 22.540 355.785,22.148 355.200,21.959 355.200 C 21.770 355.200,21.492 354.705,21.341 354.100 C 21.190 353.495,20.647 352.208,20.133 351.240 C 19.620 350.273,19.200 349.242,19.200 348.951 C 19.200 348.660,18.858 347.652,18.440 346.711 C 18.022 345.770,17.495 344.100,17.270 343.000 C 17.045 341.900,16.580 339.920,16.237 338.600 C 15.294 334.974,15.287 65.600,16.230 61.600 C 16.567 60.170,17.028 58.100,17.255 57.000 C 17.482 55.900,18.000 54.280,18.406 53.400 C 18.811 52.520,19.265 51.170,19.415 50.400 C 19.564 49.630,20.003 48.640,20.391 48.200 C 20.778 47.760,21.216 46.890,21.364 46.266 C 21.512 45.642,21.808 44.922,22.022 44.666 C 22.811 43.721,24.400 41.154,24.400 40.822 C 24.400 38.817,38.965 24.400,40.991 24.400 C 41.272 24.400,41.720 24.137,41.987 23.816 C 42.504 23.192,47.181 20.800,47.883 20.800 C 48.113 20.800,48.517 20.542,48.779 20.226 C 49.041 19.910,49.828 19.526,50.528 19.372 C 51.227 19.218,52.520 18.775,53.400 18.386 C 54.280 17.997,55.990 17.472,57.200 17.218 C 58.410 16.964,60.390 16.511,61.600 16.212 C 63.433 15.758,86.513 15.661,200.000 15.634 L 336.200 15.600 340.600 16.660 M285.200 53.992 C 259.944 54.213,255.220 54.532,248.892 56.443 C 247.512 56.859,245.979 57.200,245.486 57.200 C 244.992 57.200,243.916 57.560,243.096 58.000 C 242.275 58.440,241.305 58.800,240.941 58.800 C 240.357 58.800,236.839 60.305,235.200 61.257 C 234.870 61.448,233.976 61.919,233.212 62.302 C 232.449 62.686,231.504 63.315,231.112 63.700 C 230.721 64.085,230.243 64.400,230.051 64.400 C 228.735 64.400,221.171 71.673,219.027 75.000 C 218.601 75.660,218.016 76.438,217.727 76.729 C 217.437 77.019,217.200 77.486,217.200 77.767 C 217.200 78.047,216.840 78.602,216.400 79.000 C 215.960 79.398,215.600 80.032,215.600 80.408 C 215.600 80.784,215.251 81.536,214.825 82.078 C 214.398 82.620,213.927 83.589,213.777 84.232 C 213.627 84.874,213.276 85.769,212.996 86.219 C 212.717 86.669,212.194 88.186,211.834 89.590 C 211.474 90.993,211.025 92.335,210.835 92.571 C 210.645 92.807,210.361 93.990,210.203 95.200 C 210.046 96.410,209.552 98.930,209.106 100.800 C 208.360 103.925,208.274 105.990,208.047 126.315 C 207.834 145.354,207.717 148.483,207.200 148.809 C 206.853 149.028,200.780 149.190,192.780 149.194 C 182.571 149.198,178.835 149.325,178.480 149.680 C 177.972 150.188,177.755 196.045,178.252 197.900 L 178.493 198.800 192.767 198.800 C 203.335 198.800,207.165 198.925,207.520 199.280 C 207.890 199.650,208.000 216.148,208.000 271.106 C 208.000 319.522,208.133 342.701,208.414 343.226 C 208.936 344.201,265.649 344.470,266.276 343.500 C 266.454 343.225,266.690 310.600,266.800 271.000 L 267.000 199.000 286.480 198.800 C 301.263 198.648,306.081 198.480,306.458 198.102 C 306.777 197.783,307.069 195.485,307.273 191.702 C 307.447 188.456,307.861 184.540,308.192 183.000 C 308.524 181.460,308.977 177.285,309.199 173.721 C 309.422 170.158,309.772 166.800,309.977 166.260 C 310.183 165.719,310.547 162.334,310.785 158.738 C 311.024 155.142,311.317 151.718,311.436 151.128 C 311.819 149.223,311.551 149.200,288.906 149.200 C 272.993 149.200,267.641 149.081,267.280 148.720 C 266.298 147.738,266.668 118.505,267.718 114.099 C 268.611 110.352,271.101 106.400,272.568 106.400 C 272.856 106.400,273.532 106.054,274.069 105.631 C 276.086 104.045,285.181 103.192,299.322 103.261 C 306.421 103.296,310.592 103.168,310.852 102.908 C 311.121 102.639,311.245 94.292,311.215 78.365 C 311.169 53.414,311.173 53.472,309.600 53.698 C 309.270 53.746,298.290 53.878,285.200 53.992 " stroke="none" fill="#fbfbfb" fill-rule="evenodd"></path><path id="path1" d="M63.200 17.357 C 63.200 18.167,62.287 18.400,59.113 18.400 C 56.617 18.400,56.185 18.515,55.365 19.400 C 54.618 20.206,54.056 20.400,52.466 20.400 C 50.830 20.400,50.458 20.536,50.284 21.200 C 50.119 21.833,49.738 22.000,48.464 22.000 C 47.228 22.000,46.797 22.178,46.610 22.768 C 46.449 23.277,45.848 23.623,44.822 23.796 C 43.768 23.974,43.214 24.302,43.077 24.829 C 42.966 25.253,42.538 25.600,42.126 25.600 C 41.715 25.600,41.070 25.960,40.693 26.400 C 40.316 26.840,39.629 27.200,39.166 27.200 C 38.660 27.200,38.241 27.520,38.115 28.004 C 37.999 28.447,37.476 28.916,36.952 29.048 C 36.428 29.179,36.000 29.554,36.000 29.881 C 36.000 30.208,35.640 30.569,35.200 30.684 C 34.760 30.799,34.400 31.147,34.400 31.457 C 34.400 31.766,33.950 32.191,33.400 32.400 C 32.850 32.609,32.400 32.979,32.400 33.221 C 32.400 33.788,30.196 36.000,29.631 36.000 C 29.394 36.000,29.200 36.364,29.200 36.810 C 29.200 37.306,28.812 37.767,28.200 38.000 C 27.485 38.272,27.200 38.678,27.200 39.428 C 27.200 40.138,26.943 40.542,26.400 40.684 C 25.872 40.822,25.600 41.230,25.600 41.884 C 25.600 42.526,25.329 42.946,24.829 43.077 C 24.295 43.216,23.973 43.774,23.785 44.888 C 23.599 45.988,23.274 46.560,22.757 46.695 C 22.174 46.848,22.000 47.260,22.000 48.484 C 22.000 49.738,21.831 50.119,21.200 50.284 C 20.536 50.458,20.400 50.830,20.400 52.466 C 20.400 54.056,20.206 54.618,19.400 55.365 C 18.505 56.194,18.400 56.606,18.400 59.284 C 18.400 61.768,18.264 62.399,17.600 63.000 C 16.335 64.145,16.335 336.317,17.600 337.107 C 18.298 337.543,18.400 338.040,18.400 341.003 C 18.400 342.872,18.567 344.400,18.771 344.400 C 19.709 344.400,20.400 345.751,20.400 347.582 C 20.400 349.170,20.540 349.543,21.200 349.716 C 21.839 349.883,22.000 350.262,22.000 351.600 C 22.000 352.905,22.167 353.318,22.754 353.472 C 23.263 353.605,23.588 354.164,23.752 355.187 C 23.921 356.250,24.235 356.768,24.797 356.915 C 25.314 357.050,25.600 357.460,25.600 358.066 C 25.600 358.584,25.960 359.232,26.400 359.507 C 26.840 359.782,27.200 360.345,27.200 360.757 C 27.200 361.170,27.650 361.803,28.200 362.163 C 28.750 362.524,29.200 363.063,29.200 363.363 C 29.200 363.662,29.560 364.001,30.000 364.116 C 30.440 364.231,30.800 364.600,30.800 364.936 C 30.800 365.271,31.160 365.660,31.600 365.800 C 32.040 365.940,32.400 366.316,32.400 366.637 C 32.400 366.957,32.850 367.391,33.400 367.600 C 33.950 367.809,34.400 368.234,34.400 368.543 C 34.400 368.853,34.760 369.201,35.200 369.316 C 35.640 369.431,36.000 369.791,36.000 370.116 C 36.000 370.441,36.373 370.804,36.830 370.924 C 37.286 371.043,37.757 371.514,37.876 371.970 C 38.018 372.512,38.419 372.800,39.031 372.800 C 39.547 372.800,40.291 373.138,40.684 373.550 C 41.078 373.963,41.786 374.419,42.257 374.564 C 42.728 374.708,43.206 375.181,43.319 375.613 C 43.475 376.208,43.869 376.400,44.936 376.400 C 45.995 376.400,46.409 376.599,46.600 377.200 C 46.776 377.754,47.205 378.000,47.994 378.000 C 49.526 378.000,50.400 378.372,50.400 379.023 C 50.400 379.384,51.204 379.651,52.853 379.838 C 54.765 380.054,55.348 380.279,55.499 380.858 C 55.669 381.506,56.117 381.600,59.051 381.600 C 61.913 381.600,62.509 381.718,63.093 382.400 C 64.176 383.665,336.317 383.665,337.107 382.400 C 337.541 381.705,338.040 381.600,340.907 381.600 C 343.692 381.600,344.280 381.484,344.672 380.856 C 344.982 380.359,345.840 380.018,347.248 379.831 C 348.656 379.645,349.540 379.293,349.902 378.776 C 350.283 378.231,350.915 378.000,352.023 378.000 C 353.333 378.000,353.600 377.865,353.600 377.200 C 353.600 376.542,353.867 376.400,355.105 376.400 C 356.281 376.400,356.697 376.204,357.005 375.502 C 357.222 375.009,357.758 374.537,358.196 374.455 C 358.633 374.372,359.229 373.966,359.518 373.552 C 359.808 373.138,360.473 372.800,360.996 372.800 C 361.586 372.800,362.040 372.505,362.194 372.020 C 362.330 371.592,362.772 371.136,363.177 371.007 C 363.582 370.879,364.006 370.419,364.119 369.987 C 364.233 369.554,364.600 369.200,364.936 369.200 C 365.271 369.200,365.654 368.859,365.786 368.443 C 365.918 368.027,366.381 367.594,366.813 367.481 C 367.246 367.367,367.600 367.000,367.600 366.664 C 367.600 366.329,367.960 365.940,368.400 365.800 C 368.840 365.660,369.200 365.284,369.200 364.963 C 369.200 364.643,369.650 364.209,370.200 364.000 C 370.750 363.791,371.200 363.357,371.200 363.037 C 371.200 362.716,371.560 362.340,372.000 362.200 C 372.440 362.060,372.800 361.598,372.800 361.173 C 372.800 360.748,373.134 360.066,373.542 359.658 C 373.950 359.250,374.404 358.440,374.550 357.858 C 374.725 357.159,375.084 356.800,375.608 356.800 C 376.265 356.800,376.400 356.528,376.400 355.200 C 376.400 353.867,376.533 353.600,377.200 353.600 C 377.844 353.600,378.000 353.333,378.000 352.233 C 378.000 350.485,378.344 349.600,379.023 349.600 C 379.383 349.600,379.650 348.810,379.831 347.211 C 380.039 345.371,380.273 344.767,380.850 344.584 C 381.505 344.376,381.600 343.919,381.600 340.976 C 381.600 338.040,381.703 337.543,382.400 337.107 C 383.665 336.317,383.665 63.683,382.400 62.893 C 381.703 62.458,381.600 61.960,381.600 59.043 C 381.600 56.116,381.506 55.669,380.858 55.499 C 380.279 55.348,380.054 54.765,379.838 52.853 C 379.651 51.204,379.384 50.400,379.023 50.400 C 378.372 50.400,378.000 49.526,378.000 47.994 C 378.000 47.205,377.754 46.776,377.200 46.600 C 376.599 46.409,376.400 45.995,376.400 44.936 C 376.400 43.850,376.211 43.476,375.580 43.311 C 375.077 43.179,374.670 42.651,374.530 41.948 C 374.403 41.317,374.072 40.800,373.793 40.800 C 373.226 40.800,372.800 39.928,372.800 38.767 C 372.800 38.332,372.524 38.000,372.163 38.000 C 371.812 38.000,371.427 37.626,371.308 37.169 C 371.188 36.712,370.665 36.177,370.145 35.979 C 369.625 35.782,369.200 35.345,369.200 35.010 C 369.200 34.674,368.926 34.400,368.590 34.400 C 368.255 34.400,367.809 33.950,367.600 33.400 C 367.391 32.850,366.957 32.400,366.637 32.400 C 366.316 32.400,365.940 32.040,365.800 31.600 C 365.660 31.160,365.271 30.800,364.936 30.800 C 364.600 30.800,364.233 30.446,364.119 30.013 C 364.006 29.581,363.573 29.118,363.156 28.986 C 362.740 28.854,362.213 28.398,361.986 27.973 C 361.758 27.548,361.220 27.200,360.789 27.200 C 360.359 27.200,359.782 26.840,359.507 26.400 C 359.232 25.960,358.613 25.600,358.131 25.600 C 357.605 25.600,357.152 25.280,357.000 24.800 C 356.826 24.253,356.262 23.923,355.208 23.755 C 354.166 23.588,353.606 23.265,353.472 22.754 C 353.334 22.226,352.914 22.000,352.070 22.000 C 350.464 22.000,349.600 21.635,349.600 20.957 C 349.600 20.556,349.047 20.400,347.629 20.400 C 345.751 20.400,344.400 19.718,344.400 18.771 C 344.400 18.567,342.872 18.400,341.003 18.400 C 338.040 18.400,337.543 18.298,337.107 17.600 C 336.450 16.548,63.200 16.306,63.200 17.357 M211.400 31.123 C 264.413 31.500,259.463 31.432,276.200 32.007 C 289.974 32.481,290.689 32.544,292.639 33.451 C 293.760 33.973,295.125 34.400,295.672 34.400 C 296.934 34.400,297.316 34.778,296.748 35.463 C 296.490 35.774,295.505 36.000,294.413 36.000 C 293.032 36.000,292.329 36.215,291.800 36.800 C 291.262 37.395,290.568 37.600,289.096 37.600 C 287.460 37.600,286.978 37.774,286.329 38.600 C 285.686 39.417,285.193 39.600,283.633 39.600 C 282.232 39.600,281.531 39.813,281.000 40.400 C 280.466 40.990,279.768 41.200,278.341 41.200 C 276.840 41.200,276.295 41.379,275.907 42.000 C 275.514 42.629,274.974 42.800,273.376 42.800 C 271.707 42.800,271.189 42.979,270.475 43.800 C 269.764 44.617,269.240 44.800,267.606 44.800 C 266.040 44.800,265.499 44.973,265.107 45.600 C 264.803 46.087,264.174 46.400,263.501 46.400 C 262.819 46.400,262.061 46.784,261.525 47.400 C 260.830 48.199,260.282 48.400,258.790 48.400 C 257.432 48.400,256.727 48.618,256.200 49.200 C 255.673 49.782,254.968 50.000,253.610 50.000 C 252.118 50.000,251.570 50.201,250.875 51.000 C 250.171 51.810,249.636 52.000,248.065 52.000 C 246.632 52.000,245.934 52.209,245.400 52.800 C 244.873 53.382,244.168 53.600,242.808 53.600 C 241.332 53.600,240.742 53.810,240.000 54.600 C 239.263 55.385,238.666 55.600,237.226 55.600 C 235.826 55.600,235.274 55.789,234.893 56.400 C 234.492 57.041,233.960 57.200,232.211 57.200 C 230.438 57.200,229.948 57.350,229.600 58.000 C 229.254 58.647,228.762 58.800,227.032 58.800 C 225.191 58.800,224.801 58.940,224.237 59.800 C 223.676 60.656,223.280 60.800,221.487 60.800 C 219.826 60.800,219.289 60.965,218.893 61.600 C 218.501 62.227,217.960 62.400,216.394 62.400 C 214.760 62.400,214.236 62.583,213.525 63.400 C 212.830 64.199,212.282 64.400,210.790 64.400 C 209.432 64.400,208.727 64.618,208.200 65.200 C 207.673 65.782,206.968 66.000,205.610 66.000 C 204.118 66.000,203.570 66.201,202.875 67.000 C 202.339 67.616,201.581 68.000,200.899 68.000 C 200.226 68.000,199.597 68.313,199.293 68.800 C 198.899 69.430,198.360 69.600,196.754 69.600 C 195.056 69.600,194.584 69.767,193.929 70.600 C 193.270 71.437,192.804 71.600,191.067 71.600 C 189.426 71.600,188.888 71.767,188.493 72.400 C 188.105 73.021,187.560 73.200,186.059 73.200 C 184.632 73.200,183.934 73.410,183.400 74.000 C 182.873 74.582,182.168 74.800,180.810 74.800 C 179.318 74.800,178.770 75.001,178.075 75.800 C 177.364 76.617,176.840 76.800,175.206 76.800 C 173.640 76.800,173.099 76.973,172.707 77.600 C 172.311 78.235,171.774 78.400,170.113 78.400 C 168.320 78.400,167.924 78.544,167.363 79.400 C 166.799 80.260,166.409 80.400,164.568 80.400 C 162.838 80.400,162.346 80.553,162.000 81.200 C 161.658 81.839,161.162 82.000,159.532 82.000 C 157.870 82.000,157.320 82.185,156.565 83.000 C 155.824 83.799,155.253 84.000,153.715 84.000 C 152.226 84.000,151.680 84.180,151.293 84.800 C 150.899 85.430,150.360 85.600,148.754 85.600 C 147.056 85.600,146.584 85.767,145.929 86.600 C 145.436 87.226,144.738 87.600,144.060 87.600 C 143.465 87.600,142.670 87.960,142.293 88.400 C 141.778 89.001,141.113 89.200,139.618 89.200 C 138.038 89.200,137.540 89.365,137.200 90.000 C 136.852 90.650,136.362 90.800,134.595 90.800 C 132.715 90.800,132.329 90.936,131.763 91.800 C 131.199 92.660,130.809 92.800,128.968 92.800 C 127.238 92.800,126.746 92.953,126.400 93.600 C 126.054 94.247,125.562 94.400,123.832 94.400 C 121.991 94.400,121.601 94.540,121.037 95.400 C 120.488 96.238,120.069 96.400,118.453 96.400 C 117.032 96.400,116.333 96.611,115.800 97.200 C 115.273 97.782,114.568 98.000,113.210 98.000 C 111.718 98.000,111.170 98.201,110.475 99.000 C 109.765 99.816,109.239 100.000,107.617 100.000 C 106.038 100.000,105.540 100.165,105.200 100.800 C 104.855 101.445,104.362 101.600,102.658 101.600 C 100.902 101.600,100.397 101.769,99.675 102.600 C 98.974 103.406,98.434 103.600,96.892 103.600 C 95.473 103.600,94.801 103.807,94.293 104.400 C 93.778 105.001,93.113 105.200,91.618 105.200 C 90.038 105.200,89.540 105.365,89.200 106.000 C 88.852 106.650,88.362 106.800,86.595 106.800 C 84.715 106.800,84.329 106.936,83.763 107.800 C 83.199 108.660,82.809 108.800,80.968 108.800 C 79.238 108.800,78.746 108.953,78.400 109.600 C 78.121 110.122,77.562 110.400,76.795 110.400 C 75.981 110.400,75.416 110.708,74.963 111.400 C 74.399 112.260,74.009 112.400,72.168 112.400 C 70.438 112.400,69.946 112.553,69.600 113.200 C 69.258 113.839,68.762 114.000,67.132 114.000 C 65.470 114.000,64.920 114.185,64.165 115.000 C 63.424 115.799,62.853 116.000,61.315 116.000 C 59.826 116.000,59.280 116.180,58.893 116.800 C 58.494 117.439,57.960 117.600,56.243 117.600 C 54.390 117.600,54.001 117.739,53.437 118.600 C 52.876 119.456,52.480 119.600,50.687 119.600 C 49.026 119.600,48.489 119.765,48.093 120.400 C 47.705 121.021,47.160 121.200,45.659 121.200 C 44.232 121.200,43.534 121.410,43.000 122.000 C 42.473 122.582,41.768 122.800,40.410 122.800 C 38.918 122.800,38.370 123.001,37.675 123.800 C 36.966 124.615,36.439 124.800,34.825 124.800 C 33.242 124.800,32.723 124.975,32.232 125.676 C 31.427 126.825,31.122 126.444,30.804 123.900 C 30.359 120.333,30.349 104.325,30.790 102.000 C 31.019 100.790,31.403 98.450,31.642 96.800 C 31.881 95.150,32.333 93.396,32.645 92.903 C 32.958 92.410,33.322 91.150,33.454 90.103 C 33.586 89.056,34.033 87.605,34.447 86.877 C 34.861 86.150,35.200 85.150,35.200 84.655 C 35.200 84.160,35.650 83.145,36.200 82.400 C 36.750 81.655,37.200 80.654,37.200 80.176 C 37.200 79.699,37.562 78.848,38.004 78.286 C 38.445 77.725,38.921 76.695,39.060 75.998 C 39.200 75.301,39.558 74.637,39.857 74.523 C 40.156 74.408,40.400 73.987,40.400 73.588 C 40.400 73.188,40.850 72.327,41.400 71.673 C 41.950 71.019,42.400 70.363,42.400 70.216 C 42.400 70.068,42.850 69.357,43.400 68.636 C 43.950 67.914,44.400 67.177,44.400 66.996 C 44.400 66.671,44.562 66.469,46.572 64.282 C 47.137 63.667,47.600 63.018,47.600 62.840 C 47.600 62.662,48.005 62.071,48.500 61.527 C 48.995 60.982,50.236 59.561,51.258 58.368 C 54.471 54.617,60.266 49.200,61.065 49.200 C 61.254 49.200,61.632 48.840,61.907 48.400 C 62.182 47.960,62.675 47.600,63.003 47.600 C 63.332 47.600,63.600 47.430,63.600 47.221 C 63.600 46.780,67.674 44.000,68.322 44.000 C 68.563 44.000,68.904 43.749,69.080 43.443 C 69.256 43.137,70.075 42.606,70.900 42.263 C 71.725 41.921,72.400 41.460,72.400 41.239 C 72.400 41.017,73.018 40.720,73.774 40.579 C 74.529 40.437,75.457 39.979,75.836 39.560 C 76.214 39.142,76.832 38.800,77.208 38.800 C 77.584 38.800,78.364 38.429,78.940 37.976 C 79.516 37.523,80.665 37.051,81.494 36.927 C 82.322 36.804,83.182 36.479,83.405 36.205 C 83.628 35.931,84.790 35.497,85.989 35.240 C 87.187 34.983,88.445 34.533,88.784 34.239 C 89.123 33.946,90.451 33.589,91.734 33.446 C 93.018 33.302,94.610 32.905,95.272 32.563 C 96.012 32.180,98.428 31.794,101.538 31.562 C 104.322 31.354,107.590 31.034,108.800 30.852 C 111.017 30.517,135.014 30.581,211.400 31.123 M313.357 53.433 C 314.123 55.429,313.597 104.003,312.800 104.800 C 312.024 105.576,311.467 105.600,294.047 105.600 C 276.430 105.600,276.089 105.615,275.884 106.400 C 275.725 107.009,275.338 107.200,274.264 107.200 C 273.218 107.200,272.790 107.401,272.606 107.980 C 272.470 108.408,272.008 108.870,271.580 109.006 C 271.151 109.143,270.800 109.595,270.800 110.011 C 270.800 110.428,270.464 111.091,270.053 111.484 C 269.350 112.157,269.296 113.239,269.153 129.503 L 269.000 146.805 290.915 146.903 C 309.876 146.987,312.883 147.081,313.230 147.600 C 313.878 148.570,313.513 154.587,312.753 155.458 C 312.228 156.060,312.060 157.618,311.858 163.731 C 311.636 170.449,311.522 171.372,310.805 172.285 C 310.065 173.226,310.000 173.899,310.000 180.654 C 310.000 187.467,309.942 188.058,309.200 188.800 C 308.489 189.511,308.400 190.133,308.400 194.410 L 308.400 199.220 307.328 199.628 C 306.650 199.885,299.468 200.022,287.828 199.999 C 277.692 199.979,269.220 199.971,269.000 199.981 C 268.734 199.994,268.636 224.238,268.707 272.100 L 268.815 344.200 267.963 344.900 C 266.785 345.868,207.893 345.995,206.576 345.032 C 205.813 344.474,205.798 343.215,205.705 272.182 L 205.611 199.899 192.467 199.973 C 185.238 200.013,178.845 199.926,178.261 199.780 L 177.200 199.513 177.200 173.571 C 177.200 148.111,177.215 147.620,177.993 147.204 C 178.520 146.922,183.292 146.816,192.178 146.890 L 205.570 147.000 205.685 129.067 C 205.791 112.529,205.854 111.095,206.500 110.623 C 207.099 110.185,207.200 109.422,207.200 105.312 C 207.200 98.955,207.497 96.887,208.453 96.583 C 209.095 96.379,209.200 95.924,209.200 93.336 C 209.200 90.681,209.293 90.301,209.985 90.120 C 210.611 89.956,210.824 89.434,211.038 87.543 C 211.233 85.820,211.511 85.062,212.053 84.771 C 212.559 84.501,212.800 83.930,212.800 83.000 C 212.800 82.038,213.039 81.500,213.600 81.200 C 214.056 80.956,214.400 80.362,214.400 79.819 C 214.400 78.341,214.815 77.600,215.643 77.600 C 216.245 77.600,216.400 77.306,216.400 76.163 C 216.400 75.083,216.591 74.675,217.166 74.525 C 217.587 74.415,218.041 73.891,218.174 73.362 C 218.307 72.833,218.686 72.400,219.018 72.400 C 219.349 72.400,219.791 71.950,220.000 71.400 C 220.209 70.850,220.655 70.400,220.990 70.400 C 221.333 70.400,221.600 70.050,221.600 69.600 C 221.600 69.082,221.867 68.800,222.357 68.800 C 222.830 68.800,223.207 68.426,223.364 67.800 C 223.526 67.154,223.896 66.800,224.408 66.800 C 224.851 66.800,225.200 66.531,225.200 66.190 C 225.200 65.855,225.650 65.409,226.200 65.200 C 226.750 64.991,227.200 64.565,227.200 64.253 C 227.200 63.942,227.645 63.575,228.188 63.439 C 228.732 63.302,229.368 62.833,229.603 62.395 C 229.880 61.876,230.440 61.600,231.214 61.600 C 231.989 61.600,232.400 61.397,232.400 61.014 C 232.400 60.287,233.627 59.600,234.927 59.600 C 235.570 59.600,235.979 59.325,236.116 58.800 C 236.291 58.132,236.662 58.000,238.363 58.000 C 239.837 58.000,240.400 57.846,240.400 57.443 C 240.400 56.735,241.271 56.401,243.133 56.395 C 245.293 56.386,246.301 56.021,246.526 55.163 C 246.704 54.480,247.123 54.400,250.516 54.400 C 253.970 54.400,254.325 54.329,254.516 53.600 C 254.808 52.485,312.930 52.319,313.357 53.433 " stroke="none" fill="#0434c4" fill-rule="evenodd"></path><path id="path2" d="M61.600 16.212 C 60.390 16.511,58.410 16.964,57.200 17.218 C 55.990 17.472,54.280 17.997,53.400 18.386 C 52.520 18.775,51.227 19.218,50.528 19.372 C 49.828 19.526,49.041 19.910,48.779 20.226 C 48.517 20.542,48.113 20.800,47.883 20.800 C 47.181 20.800,42.504 23.192,41.987 23.816 C 41.720 24.137,41.272 24.400,40.991 24.400 C 38.965 24.400,24.400 38.817,24.400 40.822 C 24.400 41.154,22.811 43.721,22.022 44.666 C 21.808 44.922,21.512 45.642,21.364 46.266 C 21.216 46.890,20.778 47.760,20.391 48.200 C 20.003 48.640,19.564 49.630,19.415 50.400 C 19.265 51.170,18.811 52.520,18.406 53.400 C 18.000 54.280,17.482 55.900,17.255 57.000 C 17.028 58.100,16.567 60.170,16.230 61.600 C 15.287 65.600,15.294 334.974,16.237 338.600 C 16.580 339.920,17.045 341.900,17.270 343.000 C 17.495 344.100,18.022 345.770,18.440 346.711 C 18.858 347.652,19.200 348.660,19.200 348.951 C 19.200 349.242,19.620 350.273,20.133 351.240 C 20.647 352.208,21.190 353.495,21.341 354.100 C 21.492 354.705,21.770 355.200,21.959 355.200 C 22.148 355.200,22.540 355.785,22.829 356.500 C 23.921 359.196,30.261 367.161,33.480 369.880 C 34.730 370.936,36.144 372.160,36.623 372.600 C 37.102 373.040,37.766 373.580,38.100 373.800 C 38.434 374.020,39.692 374.875,40.895 375.700 C 42.098 376.525,43.262 377.200,43.480 377.200 C 43.699 377.200,44.293 377.560,44.800 378.000 C 45.307 378.440,46.010 378.806,46.361 378.812 C 46.713 378.819,47.720 379.268,48.600 379.810 C 49.480 380.352,50.539 380.797,50.953 380.798 C 51.367 380.799,52.267 381.139,52.953 381.553 C 53.639 381.967,55.100 382.433,56.200 382.588 C 57.300 382.743,59.229 383.214,60.487 383.635 C 63.732 384.720,335.431 384.841,339.200 383.759 C 340.410 383.411,342.480 382.896,343.800 382.613 C 345.120 382.331,346.740 381.808,347.400 381.452 C 348.060 381.096,348.896 380.804,349.257 380.802 C 350.502 380.798,359.582 375.800,361.234 374.210 C 361.582 373.874,362.007 373.600,362.177 373.600 C 363.104 373.600,373.600 362.984,373.600 362.047 C 373.600 361.805,373.960 361.382,374.400 361.107 C 374.840 360.832,375.200 360.405,375.200 360.158 C 375.200 359.910,375.574 359.232,376.032 358.650 C 377.151 357.227,379.200 353.351,379.200 352.657 C 379.200 352.349,379.441 351.898,379.735 351.654 C 380.030 351.409,380.489 350.442,380.756 349.505 C 381.023 348.567,381.480 347.260,381.772 346.600 C 382.063 345.940,382.774 343.483,383.351 341.139 L 384.400 336.878 384.400 199.881 C 384.400 65.061,384.388 62.844,383.618 60.342 C 383.188 58.944,382.716 56.990,382.571 56.000 C 382.425 55.010,382.071 53.824,381.785 53.364 C 381.499 52.904,381.054 51.734,380.795 50.764 C 380.537 49.794,380.096 48.730,379.817 48.400 C 379.537 48.070,379.198 47.338,379.065 46.774 C 378.931 46.209,378.457 45.327,378.011 44.813 C 377.565 44.298,377.200 43.699,377.200 43.480 C 377.200 43.262,376.525 42.100,375.700 40.900 C 374.875 39.699,374.020 38.417,373.800 38.051 C 372.965 36.662,365.293 28.781,363.545 27.517 C 363.025 27.141,362.060 26.416,361.400 25.906 C 359.380 24.344,357.047 22.894,356.100 22.613 C 355.605 22.466,355.200 22.185,355.200 21.989 C 355.200 21.793,354.478 21.416,353.595 21.151 C 352.713 20.887,351.791 20.430,351.546 20.135 C 351.302 19.841,350.840 19.600,350.519 19.600 C 350.199 19.600,348.826 19.177,347.468 18.660 C 346.111 18.143,343.020 17.243,340.600 16.660 L 336.200 15.600 200.000 15.634 C 86.513 15.661,63.433 15.758,61.600 16.212 M338.562 17.275 C 339.202 17.646,340.912 18.072,342.362 18.222 C 343.813 18.372,345.284 18.742,345.630 19.046 C 345.977 19.350,347.109 19.757,348.145 19.950 C 349.181 20.144,350.352 20.594,350.746 20.951 C 351.140 21.308,351.756 21.600,352.114 21.600 C 352.472 21.600,353.428 22.050,354.238 22.600 C 355.049 23.150,355.929 23.600,356.194 23.600 C 356.459 23.600,356.987 23.944,357.367 24.364 C 357.748 24.784,358.500 25.239,359.040 25.374 C 359.579 25.510,360.358 25.931,360.771 26.310 C 361.184 26.690,362.446 27.810,363.576 28.800 C 367.775 32.479,372.627 37.696,374.000 40.008 C 374.550 40.934,375.289 42.005,375.642 42.388 C 375.995 42.771,376.395 43.527,376.531 44.068 C 376.667 44.610,377.143 45.473,377.589 45.987 C 378.035 46.502,378.400 47.317,378.400 47.800 C 378.400 48.283,378.746 49.077,379.169 49.564 C 379.592 50.052,380.062 51.205,380.213 52.126 C 380.364 53.047,380.756 54.105,381.085 54.477 C 381.414 54.850,381.836 56.517,382.023 58.183 C 382.210 59.848,382.641 61.609,382.981 62.095 C 383.927 63.445,383.927 336.555,382.981 337.905 C 382.641 338.391,382.210 340.144,382.025 341.801 C 381.839 343.458,381.474 345.070,381.213 345.384 C 380.953 345.698,380.495 346.883,380.195 348.018 C 379.896 349.152,379.370 350.392,379.026 350.772 C 378.682 351.152,378.400 351.830,378.400 352.278 C 378.400 352.726,378.051 353.536,377.625 354.078 C 377.198 354.620,376.729 355.544,376.581 356.132 C 376.434 356.719,376.150 357.200,375.950 357.200 C 375.750 357.200,375.275 357.875,374.894 358.700 C 374.512 359.525,373.975 360.344,373.700 360.520 C 373.425 360.696,373.200 361.037,373.200 361.278 C 373.200 361.519,372.827 362.095,372.371 362.558 C 371.914 363.021,370.150 364.840,368.449 366.600 C 366.748 368.360,364.491 370.520,363.433 371.400 C 362.375 372.280,361.174 373.310,360.765 373.690 C 360.355 374.069,359.562 374.495,359.001 374.636 C 358.440 374.776,357.761 375.205,357.491 375.588 C 357.221 375.972,356.550 376.426,356.000 376.598 C 355.450 376.769,354.571 377.245,354.046 377.655 C 353.521 378.065,352.781 378.400,352.400 378.400 C 352.019 378.400,351.279 378.734,350.754 379.142 C 350.229 379.550,349.080 380.013,348.200 380.172 C 347.320 380.330,346.166 380.739,345.636 381.081 C 345.105 381.423,343.348 381.851,341.730 382.033 C 340.112 382.214,338.391 382.641,337.905 382.981 C 336.551 383.930,64.192 383.927,62.358 382.978 C 61.696 382.636,59.805 382.205,58.155 382.020 C 56.505 381.835,54.850 381.414,54.477 381.085 C 54.105 380.756,53.047 380.364,52.126 380.213 C 51.205 380.062,50.052 379.592,49.564 379.169 C 49.077 378.746,48.262 378.400,47.754 378.400 C 47.247 378.400,46.509 378.055,46.116 377.632 C 45.722 377.210,44.918 376.744,44.329 376.596 C 43.741 376.449,42.948 375.984,42.567 375.564 C 42.187 375.144,41.689 374.800,41.460 374.800 C 40.164 374.800,27.200 362.842,27.200 361.647 C 27.200 361.405,26.840 360.982,26.400 360.707 C 25.960 360.432,25.600 359.905,25.600 359.534 C 25.600 359.164,25.162 358.340,24.626 357.704 C 24.090 357.067,23.534 356.077,23.390 355.503 C 23.246 354.929,22.784 354.148,22.364 353.767 C 21.944 353.387,21.600 352.573,21.600 351.958 C 21.600 351.343,21.312 350.679,20.960 350.482 C 20.608 350.284,20.157 349.254,19.959 348.192 C 19.761 347.130,19.348 345.977,19.042 345.630 C 18.736 345.284,18.360 343.830,18.206 342.400 C 18.051 340.970,17.627 339.260,17.263 338.600 C 16.153 336.591,16.048 64.921,17.156 62.111 C 17.575 61.050,18.047 58.970,18.205 57.491 C 18.364 56.011,18.635 54.800,18.807 54.800 C 19.210 54.800,20.000 52.549,20.000 51.402 C 20.000 50.918,20.360 50.107,20.800 49.600 C 21.240 49.093,21.600 48.326,21.600 47.897 C 21.600 47.467,22.050 46.581,22.600 45.927 C 23.150 45.273,23.600 44.403,23.600 43.992 C 23.600 43.581,23.934 43.010,24.343 42.723 C 24.751 42.435,25.223 41.750,25.392 41.200 C 25.561 40.650,25.992 39.893,26.350 39.518 C 26.707 39.143,27.450 38.251,28.000 37.536 C 28.550 36.821,30.800 34.454,33.000 32.276 C 38.336 26.993,38.552 26.800,39.114 26.800 C 39.381 26.800,39.600 26.622,39.600 26.405 C 39.600 26.188,40.185 25.766,40.900 25.467 C 41.615 25.168,42.447 24.626,42.749 24.262 C 43.051 23.898,43.601 23.600,43.971 23.600 C 44.342 23.600,45.255 23.150,46.000 22.600 C 46.745 22.050,47.743 21.600,48.216 21.600 C 48.689 21.600,49.402 21.240,49.800 20.800 C 50.198 20.360,50.994 20.000,51.568 20.000 C 52.142 20.000,53.252 19.657,54.034 19.238 C 54.816 18.819,56.524 18.348,57.828 18.193 C 59.133 18.037,60.740 17.676,61.400 17.391 C 62.060 17.105,62.870 16.779,63.200 16.666 C 65.103 16.014,337.428 16.616,338.562 17.275 M260.315 53.197 C 258.399 53.351,256.571 53.692,256.254 53.955 C 255.937 54.218,253.949 54.579,251.836 54.758 C 249.380 54.965,247.742 55.300,247.297 55.687 C 246.914 56.020,245.648 56.399,244.485 56.529 C 243.265 56.666,241.930 57.112,241.331 57.583 C 240.760 58.032,239.801 58.400,239.200 58.400 C 238.599 58.400,237.679 58.734,237.154 59.142 C 236.629 59.550,235.525 60.104,234.700 60.373 C 233.875 60.642,233.200 61.016,233.200 61.204 C 233.200 61.392,232.795 61.669,232.300 61.819 C 231.805 61.969,231.040 62.411,230.600 62.800 C 230.160 63.189,229.395 63.631,228.900 63.781 C 228.404 63.931,227.813 64.402,227.586 64.827 C 227.358 65.252,226.971 65.600,226.725 65.600 C 225.537 65.600,216.400 76.089,216.400 77.453 C 216.400 77.656,216.040 78.130,215.600 78.507 C 215.160 78.884,214.800 79.526,214.800 79.935 C 214.800 80.343,214.440 81.093,214.000 81.600 C 213.560 82.107,213.200 82.921,213.200 83.407 C 213.200 83.894,212.822 84.773,212.360 85.360 C 211.898 85.947,211.419 87.186,211.296 88.114 C 211.172 89.041,210.758 90.250,210.376 90.800 C 209.963 91.393,209.587 92.922,209.450 94.558 C 209.305 96.289,208.973 97.588,208.558 98.047 C 208.031 98.629,207.827 100.147,207.556 105.489 C 207.368 109.180,207.033 113.910,206.811 116.000 C 206.588 118.090,206.431 125.885,206.461 133.321 C 206.497 141.859,206.370 146.990,206.118 147.242 C 205.867 147.493,200.745 147.630,192.330 147.611 C 179.159 147.581,178.929 147.594,178.171 148.432 C 177.345 149.345,176.922 198.255,177.733 199.067 C 177.916 199.250,184.446 199.490,192.244 199.600 L 206.422 199.800 206.406 270.753 C 206.388 348.381,206.273 344.466,208.583 345.023 C 209.032 345.132,222.270 345.171,238.000 345.110 L 266.600 345.000 267.302 343.600 C 267.964 342.280,268.004 338.116,267.991 271.000 L 267.978 199.800 287.289 199.703 C 310.235 199.588,307.990 200.243,308.018 193.656 C 308.029 190.820,308.241 188.866,308.651 187.800 C 309.068 186.719,309.368 183.863,309.577 179.000 C 309.808 173.613,310.060 171.397,310.575 170.200 C 311.092 168.999,311.316 167.005,311.474 162.200 C 311.629 157.490,311.893 155.092,312.475 153.119 C 314.158 147.416,314.855 147.582,289.355 147.607 C 276.909 147.620,268.534 147.477,268.258 147.249 C 267.044 146.243,268.471 111.440,269.756 110.721 C 270.110 110.523,270.400 110.168,270.400 109.934 C 270.400 109.318,273.249 106.800,273.947 106.800 C 274.271 106.800,274.868 106.500,275.273 106.134 C 276.355 105.155,281.644 104.842,297.464 104.819 L 311.129 104.800 312.186 103.544 C 312.767 102.853,313.143 102.028,313.021 101.711 C 312.900 101.394,312.800 90.534,312.800 77.578 L 312.800 54.021 311.620 53.410 C 310.351 52.754,268.029 52.579,260.315 53.197 M310.685 53.921 C 311.321 54.325,311.484 102.276,310.852 102.908 C 310.592 103.168,306.421 103.296,299.322 103.261 C 285.181 103.192,276.086 104.045,274.069 105.631 C 273.532 106.054,272.856 106.400,272.568 106.400 C 271.101 106.400,268.611 110.352,267.718 114.099 C 266.668 118.505,266.298 147.738,267.280 148.720 C 267.641 149.081,272.993 149.200,288.906 149.200 C 311.551 149.200,311.819 149.223,311.436 151.128 C 311.317 151.718,311.024 155.142,310.785 158.738 C 310.547 162.334,310.183 165.719,309.977 166.260 C 309.772 166.800,309.422 170.158,309.199 173.721 C 308.977 177.285,308.524 181.460,308.192 183.000 C 307.861 184.540,307.447 188.456,307.273 191.702 C 307.069 195.485,306.777 197.783,306.458 198.102 C 306.081 198.480,301.263 198.648,286.480 198.800 L 267.000 199.000 266.800 271.000 C 266.690 310.600,266.454 343.225,266.276 343.500 C 265.649 344.470,208.936 344.201,208.414 343.226 C 208.133 342.701,208.000 319.522,208.000 271.106 C 208.000 216.148,207.890 199.650,207.520 199.280 C 207.165 198.925,203.335 198.800,192.767 198.800 L 178.493 198.800 178.252 197.900 C 177.755 196.045,177.972 150.188,178.480 149.680 C 178.835 149.325,182.571 149.198,192.780 149.194 C 200.780 149.190,206.853 149.028,207.200 148.809 C 207.717 148.483,207.834 145.354,208.047 126.315 C 208.274 105.990,208.360 103.925,209.106 100.800 C 209.552 98.930,210.046 96.410,210.203 95.200 C 210.361 93.990,210.645 92.807,210.835 92.571 C 211.025 92.335,211.474 90.993,211.834 89.590 C 212.194 88.186,212.717 86.669,212.996 86.219 C 213.276 85.769,213.627 84.874,213.777 84.232 C 213.927 83.589,214.398 82.620,214.825 82.078 C 215.251 81.536,215.600 80.784,215.600 80.408 C 215.600 80.032,215.960 79.398,216.400 79.000 C 216.840 78.602,217.200 78.047,217.200 77.767 C 217.200 77.486,217.437 77.019,217.727 76.729 C 218.016 76.438,218.601 75.660,219.027 75.000 C 221.171 71.673,228.735 64.400,230.051 64.400 C 230.243 64.400,230.721 64.085,231.112 63.700 C 231.504 63.315,232.449 62.686,233.212 62.302 C 233.976 61.919,234.870 61.448,235.200 61.257 C 236.839 60.305,240.357 58.800,240.941 58.800 C 241.305 58.800,242.275 58.440,243.096 58.000 C 243.916 57.560,244.992 57.200,245.486 57.200 C 245.979 57.200,247.512 56.859,248.892 56.443 C 255.220 54.532,259.944 54.213,285.200 53.992 C 298.290 53.878,309.270 53.746,309.600 53.698 C 309.930 53.651,310.418 53.751,310.685 53.921 " stroke="none" fill="#576dce" fill-rule="evenodd"></path><path id="path3" d="M62.832 17.113 C 62.814 17.395,62.395 17.789,61.900 17.988 C 61.397 18.190,61.265 18.358,61.600 18.369 C 62.534 18.398,63.320 17.749,63.080 17.146 C 62.918 16.737,62.855 16.729,62.832 17.113 M336.800 17.132 C 336.800 17.651,337.896 18.504,338.350 18.338 C 338.557 18.262,338.293 17.877,337.763 17.481 C 337.233 17.086,336.800 16.929,336.800 17.132 M55.093 19.200 C 54.692 19.669,53.868 20.019,53.104 20.046 C 52.367 20.073,52.118 20.175,52.532 20.282 C 53.683 20.579,55.137 20.065,55.603 19.195 C 56.145 18.182,55.963 18.183,55.093 19.200 M344.627 19.326 C 344.919 20.087,346.354 20.570,347.468 20.282 C 347.929 20.163,347.767 20.076,347.031 20.046 C 346.389 20.021,345.526 19.695,345.114 19.322 C 344.410 18.685,344.381 18.686,344.627 19.326 M349.600 20.957 C 349.600 21.264,349.896 21.628,350.257 21.767 C 351.169 22.117,351.192 21.920,350.333 21.100 C 349.775 20.567,349.600 20.533,349.600 20.957 M40.102 26.385 C 39.698 27.032,39.711 27.132,40.175 26.954 C 40.780 26.722,41.367 25.600,40.884 25.600 C 40.723 25.600,40.372 25.953,40.102 26.385 M359.200 25.881 C 359.200 26.343,360.335 27.409,360.558 27.157 C 360.634 27.071,360.360 26.654,359.948 26.230 C 359.537 25.807,359.200 25.649,359.200 25.881 M108.800 30.852 C 107.590 31.034,104.322 31.354,101.538 31.562 C 98.428 31.794,96.012 32.180,95.272 32.563 C 94.610 32.905,93.018 33.302,91.734 33.446 C 90.451 33.589,89.123 33.946,88.784 34.239 C 88.445 34.533,87.187 34.983,85.989 35.240 C 84.790 35.497,83.628 35.931,83.405 36.205 C 83.182 36.479,82.322 36.804,81.494 36.927 C 80.665 37.051,79.516 37.523,78.940 37.976 C 78.364 38.429,77.584 38.800,77.208 38.800 C 76.832 38.800,76.214 39.142,75.836 39.560 C 75.457 39.979,74.529 40.437,73.774 40.579 C 73.018 40.720,72.400 41.017,72.400 41.239 C 72.400 41.460,71.725 41.921,70.900 42.263 C 70.075 42.606,69.256 43.137,69.080 43.443 C 68.904 43.749,68.563 44.000,68.322 44.000 C 67.674 44.000,63.600 46.780,63.600 47.221 C 63.600 47.430,63.332 47.600,63.003 47.600 C 62.675 47.600,62.182 47.960,61.907 48.400 C 61.632 48.840,61.254 49.200,61.065 49.200 C 60.266 49.200,54.471 54.617,51.258 58.368 C 50.236 59.561,48.995 60.982,48.500 61.527 C 48.005 62.071,47.600 62.662,47.600 62.840 C 47.600 63.018,47.137 63.667,46.572 64.282 C 44.562 66.469,44.400 66.671,44.400 66.996 C 44.400 67.177,43.950 67.914,43.400 68.636 C 42.850 69.357,42.400 70.068,42.400 70.216 C 42.400 70.363,41.950 71.019,41.400 71.673 C 40.850 72.327,40.400 73.188,40.400 73.588 C 40.400 73.987,40.156 74.408,39.857 74.523 C 39.558 74.637,39.200 75.301,39.060 75.998 C 38.921 76.695,38.445 77.725,38.004 78.286 C 37.562 78.848,37.200 79.699,37.200 80.176 C 37.200 80.654,36.750 81.655,36.200 82.400 C 35.650 83.145,35.200 84.160,35.200 84.655 C 35.200 85.150,34.861 86.150,34.447 86.877 C 34.033 87.605,33.586 89.056,33.454 90.103 C 33.322 91.150,32.958 92.410,32.645 92.903 C 32.333 93.396,31.881 95.150,31.642 96.800 C 31.403 98.450,31.019 100.790,30.790 102.000 C 30.349 104.325,30.359 120.333,30.804 123.900 C 31.122 126.444,31.427 126.825,32.232 125.676 C 32.723 124.975,33.242 124.800,34.825 124.800 C 36.439 124.800,36.966 124.615,37.675 123.800 C 38.370 123.001,38.918 122.800,40.410 122.800 C 41.768 122.800,42.473 122.582,43.000 122.000 C 43.534 121.410,44.232 121.200,45.659 121.200 C 47.160 121.200,47.705 121.021,48.093 120.400 C 48.489 119.765,49.026 119.600,50.687 119.600 C 52.480 119.600,52.876 119.456,53.437 118.600 C 54.001 117.739,54.390 117.600,56.243 117.600 C 57.960 117.600,58.494 117.439,58.893 116.800 C 59.280 116.180,59.826 116.000,61.315 116.000 C 62.853 116.000,63.424 115.799,64.165 115.000 C 64.920 114.185,65.470 114.000,67.132 114.000 C 68.762 114.000,69.258 113.839,69.600 113.200 C 69.946 112.553,70.438 112.400,72.168 112.400 C 74.009 112.400,74.399 112.260,74.963 111.400 C 75.416 110.708,75.981 110.400,76.795 110.400 C 77.562 110.400,78.121 110.122,78.400 109.600 C 78.746 108.953,79.238 108.800,80.968 108.800 C 82.809 108.800,83.199 108.660,83.763 107.800 C 84.329 106.936,84.715 106.800,86.595 106.800 C 88.362 106.800,88.852 106.650,89.200 106.000 C 89.540 105.365,90.038 105.200,91.618 105.200 C 93.113 105.200,93.778 105.001,94.293 104.400 C 94.801 103.807,95.473 103.600,96.892 103.600 C 98.434 103.600,98.974 103.406,99.675 102.600 C 100.397 101.769,100.902 101.600,102.658 101.600 C 104.362 101.600,104.855 101.445,105.200 100.800 C 105.540 100.165,106.038 100.000,107.617 100.000 C 109.239 100.000,109.765 99.816,110.475 99.000 C 111.170 98.201,111.718 98.000,113.210 98.000 C 114.568 98.000,115.273 97.782,115.800 97.200 C 116.333 96.611,117.032 96.400,118.453 96.400 C 120.069 96.400,120.488 96.238,121.037 95.400 C 121.601 94.540,121.991 94.400,123.832 94.400 C 125.562 94.400,126.054 94.247,126.400 93.600 C 126.746 92.953,127.238 92.800,128.968 92.800 C 130.809 92.800,131.199 92.660,131.763 91.800 C 132.329 90.936,132.715 90.800,134.595 90.800 C 136.362 90.800,136.852 90.650,137.200 90.000 C 137.540 89.365,138.038 89.200,139.618 89.200 C 141.113 89.200,141.778 89.001,142.293 88.400 C 142.670 87.960,143.465 87.600,144.060 87.600 C 144.738 87.600,145.436 87.226,145.929 86.600 C 146.584 85.767,147.056 85.600,148.754 85.600 C 150.360 85.600,150.899 85.430,151.293 84.800 C 151.680 84.180,152.226 84.000,153.715 84.000 C 155.253 84.000,155.824 83.799,156.565 83.000 C 157.320 82.185,157.870 82.000,159.532 82.000 C 161.162 82.000,161.658 81.839,162.000 81.200 C 162.346 80.553,162.838 80.400,164.568 80.400 C 166.409 80.400,166.799 80.260,167.363 79.400 C 167.924 78.544,168.320 78.400,170.113 78.400 C 171.774 78.400,172.311 78.235,172.707 77.600 C 173.099 76.973,173.640 76.800,175.206 76.800 C 176.840 76.800,177.364 76.617,178.075 75.800 C 178.770 75.001,179.318 74.800,180.810 74.800 C 182.168 74.800,182.873 74.582,183.400 74.000 C 183.934 73.410,184.632 73.200,186.059 73.200 C 187.560 73.200,188.105 73.021,188.493 72.400 C 188.888 71.767,189.426 71.600,191.067 71.600 C 192.804 71.600,193.270 71.437,193.929 70.600 C 194.584 69.767,195.056 69.600,196.754 69.600 C 198.360 69.600,198.899 69.430,199.293 68.800 C 199.597 68.313,200.226 68.000,200.899 68.000 C 201.581 68.000,202.339 67.616,202.875 67.000 C 203.570 66.201,204.118 66.000,205.610 66.000 C 206.968 66.000,207.673 65.782,208.200 65.200 C 208.727 64.618,209.432 64.400,210.790 64.400 C 212.282 64.400,212.830 64.199,213.525 63.400 C 214.236 62.583,214.760 62.400,216.394 62.400 C 217.960 62.400,218.501 62.227,218.893 61.600 C 219.289 60.965,219.826 60.800,221.487 60.800 C 223.280 60.800,223.676 60.656,224.237 59.800 C 224.801 58.940,225.191 58.800,227.032 58.800 C 228.762 58.800,229.254 58.647,229.600 58.000 C 229.948 57.350,230.438 57.200,232.211 57.200 C 233.960 57.200,234.492 57.041,234.893 56.400 C 235.274 55.789,235.826 55.600,237.226 55.600 C 238.666 55.600,239.263 55.385,240.000 54.600 C 240.742 53.810,241.332 53.600,242.808 53.600 C 244.168 53.600,244.873 53.382,245.400 52.800 C 245.934 52.209,246.632 52.000,248.065 52.000 C 249.636 52.000,250.171 51.810,250.875 51.000 C 251.570 50.201,252.118 50.000,253.610 50.000 C 254.968 50.000,255.673 49.782,256.200 49.200 C 256.727 48.618,257.432 48.400,258.790 48.400 C 260.282 48.400,260.830 48.199,261.525 47.400 C 262.061 46.784,262.819 46.400,263.501 46.400 C 264.174 46.400,264.803 46.087,265.107 45.600 C 265.499 44.973,266.040 44.800,267.606 44.800 C 269.240 44.800,269.764 44.617,270.475 43.800 C 271.189 42.979,271.707 42.800,273.376 42.800 C 274.974 42.800,275.514 42.629,275.907 42.000 C 276.295 41.379,276.840 41.200,278.341 41.200 C 279.768 41.200,280.466 40.990,281.000 40.400 C 281.531 39.813,282.232 39.600,283.633 39.600 C 285.193 39.600,285.686 39.417,286.329 38.600 C 286.978 37.774,287.460 37.600,289.096 37.600 C 290.568 37.600,291.262 37.395,291.800 36.800 C 292.329 36.215,293.032 36.000,294.413 36.000 C 295.505 36.000,296.490 35.774,296.748 35.463 C 297.316 34.778,296.934 34.400,295.672 34.400 C 295.125 34.400,293.760 33.973,292.639 33.451 C 290.689 32.544,289.974 32.481,276.200 32.007 C 259.463 31.432,264.413 31.500,211.400 31.123 C 135.014 30.581,111.017 30.517,108.800 30.852 M178.800 32.405 C 194.970 32.625,211.156 32.804,214.770 32.802 L 221.339 32.800 220.400 33.800 C 219.590 34.662,219.112 34.800,216.930 34.800 C 214.667 34.800,214.400 34.884,214.400 35.600 C 214.400 36.318,214.133 36.400,211.800 36.400 C 209.293 36.400,209.200 36.436,209.200 37.400 C 209.200 38.371,209.120 38.400,206.400 38.400 C 203.867 38.400,203.600 38.476,203.600 39.200 C 203.600 39.918,203.333 40.000,201.000 40.000 C 198.493 40.000,198.400 40.036,198.400 41.000 C 198.400 41.971,198.320 42.000,195.600 42.000 C 193.067 42.000,192.800 42.076,192.800 42.800 C 192.800 43.467,192.533 43.600,191.200 43.600 C 189.760 43.600,189.600 43.700,189.600 44.600 C 189.600 45.571,189.520 45.600,186.800 45.600 C 184.267 45.600,184.000 45.676,184.000 46.400 C 184.000 47.118,183.733 47.200,181.400 47.200 C 179.067 47.200,178.800 47.282,178.800 48.000 C 178.800 48.718,178.533 48.800,176.200 48.800 C 173.693 48.800,173.600 48.836,173.600 49.800 C 173.600 50.771,173.520 50.800,170.800 50.800 C 168.267 50.800,168.000 50.876,168.000 51.600 C 168.000 52.318,167.733 52.400,165.400 52.400 C 162.893 52.400,162.800 52.436,162.800 53.400 C 162.800 54.364,162.707 54.400,160.200 54.400 C 157.867 54.400,157.600 54.482,157.600 55.200 C 157.600 55.924,157.333 56.000,154.800 56.000 C 152.080 56.000,152.000 56.029,152.000 57.000 C 152.000 57.964,151.907 58.000,149.400 58.000 C 147.067 58.000,146.800 58.082,146.800 58.800 C 146.800 59.518,146.533 59.600,144.200 59.600 C 141.693 59.600,141.600 59.636,141.600 60.600 C 141.600 61.571,141.520 61.600,138.800 61.600 C 136.267 61.600,136.000 61.676,136.000 62.400 C 136.000 63.118,135.733 63.200,133.400 63.200 C 131.067 63.200,130.800 63.282,130.800 64.000 C 130.800 64.681,130.533 64.800,129.000 64.800 C 127.347 64.800,127.200 64.881,127.200 65.800 C 127.200 66.764,127.107 66.800,124.600 66.800 C 122.267 66.800,122.000 66.882,122.000 67.600 C 122.000 68.324,121.733 68.400,119.200 68.400 C 116.480 68.400,116.400 68.429,116.400 69.400 C 116.400 70.364,116.307 70.400,113.800 70.400 C 111.467 70.400,111.200 70.482,111.200 71.200 C 111.200 71.918,110.933 72.000,108.600 72.000 C 106.093 72.000,106.000 72.036,106.000 73.000 C 106.000 73.971,105.920 74.000,103.200 74.000 C 100.667 74.000,100.400 74.076,100.400 74.800 C 100.400 75.518,100.133 75.600,97.800 75.600 C 95.293 75.600,95.200 75.636,95.200 76.600 C 95.200 77.564,95.107 77.600,92.600 77.600 C 90.267 77.600,90.000 77.682,90.000 78.400 C 90.000 79.124,89.733 79.200,87.200 79.200 C 84.667 79.200,84.400 79.276,84.400 80.000 C 84.400 80.718,84.133 80.800,81.800 80.800 C 79.293 80.800,79.200 80.836,79.200 81.800 C 79.200 82.764,79.107 82.800,76.600 82.800 C 74.267 82.800,74.000 82.882,74.000 83.600 C 74.000 84.281,73.733 84.400,72.200 84.400 C 70.547 84.400,70.400 84.481,70.400 85.400 C 70.400 86.364,70.307 86.400,67.800 86.400 C 65.467 86.400,65.200 86.482,65.200 87.200 C 65.200 87.924,64.933 88.000,62.400 88.000 C 59.680 88.000,59.600 88.029,59.600 89.000 C 59.600 89.964,59.507 90.000,57.000 90.000 C 54.667 90.000,54.400 90.082,54.400 90.800 C 54.400 91.518,54.133 91.600,51.800 91.600 C 49.293 91.600,49.200 91.636,49.200 92.600 C 49.200 93.571,49.120 93.600,46.400 93.600 C 43.867 93.600,43.600 93.676,43.600 94.400 C 43.600 95.118,43.333 95.200,41.000 95.200 C 38.667 95.200,38.400 95.282,38.400 96.000 C 38.400 96.692,38.133 96.800,36.429 96.800 C 34.776 96.800,34.324 96.970,33.629 97.854 L 32.800 98.908 32.800 97.654 C 32.800 96.599,32.951 96.400,33.756 96.400 C 34.703 96.400,34.710 96.369,34.508 93.100 C 34.323 90.103,34.383 89.730,35.152 89.038 C 35.793 88.462,36.000 87.806,36.000 86.354 C 36.000 84.981,36.218 84.226,36.761 83.716 C 37.180 83.322,37.721 82.256,37.964 81.347 C 38.207 80.437,38.652 79.489,38.953 79.239 C 39.254 78.989,39.612 78.088,39.748 77.236 C 39.884 76.384,40.267 75.583,40.598 75.456 C 40.929 75.329,41.200 74.797,41.200 74.275 C 41.200 73.752,41.650 72.801,42.200 72.162 C 42.749 71.523,43.199 70.769,43.200 70.487 C 43.200 70.206,43.470 69.871,43.800 69.745 C 44.130 69.618,44.400 69.349,44.400 69.148 C 44.400 68.778,47.048 64.774,47.539 64.400 C 47.684 64.290,48.326 63.429,48.965 62.486 C 51.041 59.427,59.593 51.031,63.721 48.000 C 64.770 47.230,66.276 46.105,67.069 45.500 C 67.861 44.895,68.755 44.400,69.055 44.400 C 69.355 44.400,69.600 44.240,69.600 44.044 C 69.600 43.722,70.538 43.174,74.200 41.355 C 74.860 41.027,75.670 40.593,76.000 40.391 C 77.840 39.264,82.223 37.383,86.000 36.099 C 86.990 35.762,88.377 35.249,89.083 34.958 C 89.788 34.667,91.588 34.229,93.083 33.984 C 94.577 33.739,96.629 33.276,97.643 32.956 C 101.618 31.700,118.482 31.585,178.800 32.405 M367.600 33.609 C 367.600 33.838,367.878 34.132,368.217 34.262 C 369.155 34.622,369.266 34.233,368.382 33.681 C 367.887 33.372,367.600 33.346,367.600 33.609 M31.505 34.029 C 31.123 34.252,30.618 34.832,30.383 35.317 C 29.985 36.140,29.996 36.150,30.546 35.468 C 30.870 35.065,31.465 34.486,31.868 34.180 C 32.722 33.533,32.509 33.444,31.505 34.029 M372.806 39.500 C 372.818 40.082,373.512 40.896,373.870 40.749 C 374.070 40.667,373.911 40.285,373.517 39.900 C 373.123 39.515,372.803 39.335,372.806 39.500 M26.223 40.233 C 25.574 40.707,25.554 40.800,26.100 40.800 C 26.459 40.800,26.871 40.608,27.016 40.373 C 27.440 39.687,27.061 39.620,26.223 40.233 M378.054 48.267 C 377.984 49.394,378.378 50.400,378.892 50.400 C 379.164 50.400,379.163 50.235,378.887 49.900 C 378.661 49.625,378.394 48.950,378.293 48.400 C 378.133 47.529,378.102 47.512,378.054 48.267 M21.281 49.618 C 20.972 50.113,20.946 50.400,21.209 50.400 C 21.438 50.400,21.732 50.122,21.862 49.783 C 22.222 48.845,21.833 48.734,21.281 49.618 M20.046 52.974 C 20.021 53.620,19.595 54.589,19.100 55.129 L 18.200 56.109 19.095 55.643 C 20.051 55.145,20.591 53.730,20.282 52.532 C 20.163 52.073,20.075 52.238,20.046 52.974 M254.667 53.067 C 253.983 53.750,254.385 54.537,255.100 53.914 C 255.485 53.579,256.070 53.205,256.400 53.084 C 256.756 52.953,256.579 52.850,255.967 52.832 C 255.398 52.814,254.813 52.920,254.667 53.067 M312.500 53.232 C 313.155 53.613,313.200 55.248,313.200 78.550 L 313.200 103.461 312.280 104.325 C 311.377 105.174,311.092 105.192,296.980 105.300 L 282.600 105.410 297.300 105.505 C 311.533 105.597,312.025 105.575,312.800 104.800 C 313.583 104.017,313.600 103.467,313.600 79.033 C 313.600 53.384,313.574 52.791,312.457 52.812 C 311.874 52.823,311.879 52.870,312.500 53.232 M380.000 54.613 C 380.000 54.949,380.278 55.332,380.617 55.462 C 381.521 55.809,381.569 55.498,380.733 54.700 C 380.113 54.108,380.000 54.094,380.000 54.613 M246.667 54.667 C 246.174 55.159,246.383 55.712,246.900 55.284 C 247.175 55.057,247.940 54.792,248.600 54.695 C 249.736 54.529,249.724 54.517,248.367 54.460 C 247.578 54.427,246.813 54.520,246.667 54.667 M240.851 56.760 C 240.549 56.951,240.384 57.353,240.484 57.653 C 240.611 58.032,240.812 57.925,241.147 57.299 C 241.679 56.305,241.651 56.254,240.851 56.760 M236.267 58.267 C 236.120 58.413,236.000 58.808,236.000 59.143 C 236.000 59.669,236.069 59.664,236.500 59.105 C 236.775 58.748,237.450 58.378,238.000 58.283 C 238.875 58.131,238.846 58.102,237.767 58.054 C 237.088 58.025,236.413 58.120,236.267 58.267 M233.100 60.032 C 232.715 60.256,232.400 60.741,232.400 61.109 C 232.400 61.649,232.517 61.612,233.004 60.915 C 233.337 60.441,234.102 59.977,234.704 59.886 C 235.751 59.727,235.756 59.718,234.800 59.672 C 234.250 59.646,233.485 59.808,233.100 60.032 M381.641 61.020 C 381.600 62.242,382.193 63.205,382.980 63.194 C 383.211 63.191,383.157 63.034,382.860 62.846 C 382.563 62.657,382.177 61.895,382.001 61.152 L 381.682 59.800 381.641 61.020 M18.032 61.713 C 18.014 62.104,17.730 62.529,17.400 62.655 C 17.070 62.782,16.800 63.086,16.800 63.332 C 16.800 63.577,17.181 63.397,17.647 62.931 C 18.113 62.465,18.397 61.840,18.279 61.542 C 18.132 61.173,18.053 61.228,18.032 61.713 M229.330 62.607 C 228.200 63.897,228.844 63.892,230.238 62.600 C 230.886 62.000,231.094 61.603,230.758 61.607 C 230.451 61.611,229.809 62.061,229.330 62.607 M383.398 200.200 C 383.398 275.000,383.444 305.660,383.500 268.332 C 383.556 231.005,383.556 169.805,383.500 132.332 C 383.444 94.860,383.398 125.400,383.398 200.200 M216.584 74.827 C 216.160 75.513,216.539 75.580,217.377 74.967 C 218.026 74.493,218.046 74.400,217.500 74.400 C 217.141 74.400,216.729 74.592,216.584 74.827 M214.590 78.430 C 214.212 79.622,214.527 79.715,215.067 78.571 C 215.319 78.037,215.374 77.600,215.189 77.600 C 215.005 77.600,214.735 77.974,214.590 78.430 M208.051 96.760 C 207.749 96.951,207.574 97.322,207.661 97.584 C 207.764 97.893,208.087 97.767,208.572 97.231 C 209.336 96.387,209.049 96.128,208.051 96.760 M207.355 104.200 C 207.356 107.060,207.420 108.178,207.497 106.683 C 207.574 105.189,207.574 102.849,207.496 101.483 C 207.418 100.118,207.355 101.340,207.355 104.200 M206.124 110.900 C 205.946 111.175,205.789 119.410,205.775 129.200 L 205.749 147.000 205.975 129.520 C 206.145 116.319,206.322 111.917,206.700 111.540 C 206.975 111.265,207.200 110.896,207.200 110.720 C 207.200 110.223,206.484 110.343,206.124 110.900 M269.900 110.957 C 269.515 111.249,269.200 111.598,269.200 111.732 C 269.200 112.182,270.336 111.544,270.557 110.969 C 270.820 110.283,270.789 110.282,269.900 110.957 M268.977 124.600 C 268.977 131.200,269.032 133.956,269.099 130.725 C 269.166 127.493,269.166 122.093,269.099 118.725 C 269.032 115.356,268.977 118.000,268.977 124.600 M177.821 147.335 C 177.419 147.629,177.190 148.124,177.313 148.435 C 177.478 148.851,177.545 148.816,177.568 148.300 C 177.586 147.915,177.645 147.561,177.700 147.513 C 177.755 147.465,184.010 147.326,191.600 147.203 L 205.400 146.979 191.976 146.890 C 181.292 146.818,178.404 146.909,177.821 147.335 M290.639 147.186 C 313.207 147.413,312.944 147.388,313.322 149.329 C 313.473 150.110,313.496 150.096,313.539 149.200 C 313.651 146.894,314.735 147.001,291.115 146.986 L 269.400 146.973 290.639 147.186 M313.254 152.224 C 313.225 153.116,312.936 154.196,312.613 154.624 C 311.849 155.633,311.835 156.235,312.589 155.609 C 313.278 155.038,313.748 152.918,313.489 151.552 C 313.375 150.950,313.289 151.197,313.254 152.224 M311.754 161.600 C 311.754 164.350,311.818 165.475,311.896 164.100 C 311.974 162.725,311.974 160.475,311.896 159.100 C 311.818 157.725,311.754 158.850,311.754 161.600 M311.242 170.200 C 311.205 170.640,310.910 171.349,310.587 171.776 C 309.671 172.987,309.898 173.438,310.828 172.255 C 311.312 171.640,311.584 170.828,311.482 170.301 C 311.330 169.512,311.301 169.499,311.242 170.200 M309.670 185.811 C 309.631 186.697,309.320 187.822,308.977 188.311 C 308.635 188.800,308.539 189.200,308.763 189.200 C 309.502 189.200,310.047 187.599,309.892 185.885 L 309.740 184.200 309.670 185.811 M307.990 197.681 C 307.884 198.716,307.945 199.415,308.126 199.234 C 308.307 199.053,308.393 198.207,308.319 197.353 L 308.183 195.800 307.990 197.681 M184.700 199.899 C 188.275 199.966,194.125 199.966,197.700 199.899 C 201.275 199.833,198.350 199.779,191.200 199.779 C 184.050 199.779,181.125 199.833,184.700 199.899 M279.700 199.900 C 284.705 199.963,292.895 199.963,297.900 199.900 C 302.905 199.836,298.810 199.784,288.800 199.784 C 278.790 199.784,274.695 199.836,279.700 199.900 M205.804 201.300 C 205.059 205.464,205.807 344.469,206.576 345.032 C 207.891 345.994,208.515 345.661,207.322 344.635 L 206.200 343.669 206.200 271.835 C 206.200 232.326,206.163 200.000,206.118 200.000 C 206.073 200.000,205.932 200.585,205.804 201.300 M17.481 337.763 C 17.877 338.293,18.262 338.557,18.338 338.350 C 18.504 337.896,17.651 336.800,17.132 336.800 C 16.929 336.800,17.086 337.233,17.481 337.763 M382.080 337.280 C 381.816 337.544,381.625 338.309,381.654 338.980 C 381.703 340.070,381.728 340.093,381.891 339.200 C 381.991 338.650,382.354 337.885,382.698 337.500 C 383.395 336.721,382.837 336.523,382.080 337.280 M268.454 342.842 C 268.425 343.194,267.959 343.959,267.419 344.542 C 266.304 345.744,266.667 345.960,267.995 344.885 C 268.608 344.388,268.822 343.869,268.693 343.185 C 268.592 342.643,268.484 342.489,268.454 342.842 M19.322 345.114 C 19.695 345.526,20.021 346.389,20.046 347.031 C 20.076 347.767,20.163 347.929,20.282 347.468 C 20.570 346.354,20.087 344.919,19.326 344.627 C 18.686 344.381,18.685 344.410,19.322 345.114 M380.451 344.760 C 380.149 344.951,379.969 345.271,380.051 345.470 C 380.133 345.670,380.515 345.511,380.900 345.117 C 381.634 344.365,381.386 344.167,380.451 344.760 M379.654 348.500 C 379.621 349.180,379.374 349.600,379.008 349.600 C 378.345 349.600,377.829 351.148,378.118 352.268 C 378.229 352.699,378.326 352.486,378.354 351.749 C 378.383 350.958,378.709 350.292,379.240 349.940 C 379.832 349.547,380.025 349.090,379.894 348.391 C 379.714 347.427,379.707 347.430,379.654 348.500 M21.100 350.333 C 21.898 351.169,22.209 351.121,21.862 350.217 C 21.732 349.878,21.349 349.600,21.013 349.600 C 20.494 349.600,20.508 349.713,21.100 350.333 M373.156 360.100 C 372.686 360.995,372.688 360.996,373.542 360.238 C 374.495 359.391,374.582 359.200,374.014 359.200 C 373.802 359.200,373.416 359.605,373.156 360.100 M28.000 362.468 C 29.002 363.445,29.510 363.625,29.018 362.829 C 28.873 362.595,28.360 362.199,27.878 361.949 C 27.083 361.536,27.094 361.585,28.000 362.468 M369.319 364.787 C 369.206 365.219,368.773 365.682,368.357 365.814 C 367.941 365.946,367.600 366.226,367.600 366.436 C 367.600 366.646,368.050 366.524,368.600 366.163 C 369.150 365.803,369.600 365.274,369.600 364.987 C 369.600 364.701,369.825 364.376,370.100 364.265 C 370.476 364.113,370.467 364.055,370.063 364.032 C 369.767 364.014,369.433 364.354,369.319 364.787 M40.102 373.615 C 40.372 374.047,40.723 374.400,40.884 374.400 C 41.367 374.400,40.780 373.278,40.175 373.046 C 39.711 372.868,39.698 372.968,40.102 373.615 M359.592 373.410 C 358.819 374.341,359.371 374.517,360.198 373.602 C 360.597 373.161,360.738 372.800,360.511 372.800 C 360.284 372.800,359.870 373.074,359.592 373.410 M48.400 378.293 C 48.950 378.394,49.625 378.661,49.900 378.887 C 50.235 379.163,50.400 379.164,50.400 378.892 C 50.400 378.378,49.394 377.984,48.267 378.054 C 47.512 378.102,47.529 378.133,48.400 378.293 M349.913 378.760 C 349.620 379.179,348.935 379.604,348.390 379.706 C 347.417 379.888,347.419 379.892,348.486 379.946 C 349.189 379.981,349.718 379.727,349.986 379.225 C 350.228 378.775,350.945 378.383,351.701 378.289 L 353.000 378.128 351.723 378.064 C 350.869 378.021,350.269 378.252,349.913 378.760 M54.700 380.733 C 55.498 381.569,55.809 381.521,55.462 380.617 C 55.332 380.278,54.949 380.000,54.613 380.000 C 54.094 380.000,54.108 380.113,54.700 380.733 M61.152 382.001 C 61.895 382.177,62.650 382.558,62.830 382.848 C 63.010 383.139,63.265 383.268,63.397 383.136 C 63.898 382.635,62.291 381.602,61.071 381.641 L 59.800 381.682 61.152 382.001 M337.280 382.080 C 336.523 382.837,336.721 383.395,337.500 382.698 C 337.885 382.354,338.650 381.991,339.200 381.891 C 340.093 381.728,340.070 381.703,338.980 381.654 C 338.309 381.625,337.544 381.816,337.280 382.080 M132.332 383.500 C 169.805 383.556,231.005 383.556,268.332 383.500 C 305.660 383.444,275.000 383.398,200.200 383.398 C 125.400 383.398,94.860 383.444,132.332 383.500 " stroke="none" fill="#1444c4" fill-rule="evenodd"></path><path id="path4" d="M131.700 16.700 C 169.265 16.756,230.735 16.756,268.300 16.700 C 305.865 16.644,275.130 16.598,200.000 16.598 C 124.870 16.598,94.135 16.644,131.700 16.700 M61.735 17.225 C 61.501 17.459,60.430 17.798,59.355 17.978 L 57.400 18.306 59.074 18.353 C 60.942 18.405,62.800 17.836,62.800 17.210 C 62.800 16.678,62.274 16.686,61.735 17.225 M337.944 17.613 C 338.577 18.140,339.435 18.386,340.544 18.356 L 342.200 18.312 340.429 17.965 C 339.454 17.774,338.473 17.433,338.249 17.209 C 338.024 16.984,337.651 16.806,337.420 16.813 C 337.189 16.821,337.425 17.181,337.944 17.613 M54.006 19.223 C 52.870 19.857,52.772 20.000,53.478 20.000 C 54.227 20.000,55.600 19.076,55.600 18.571 C 55.600 18.337,55.583 18.344,54.006 19.223 M345.000 19.200 C 345.398 19.640,346.101 19.989,346.562 19.975 C 347.398 19.949,347.398 19.948,346.541 19.603 C 346.068 19.412,345.563 19.063,345.417 18.828 C 345.272 18.593,344.956 18.400,344.714 18.400 C 344.473 18.400,344.602 18.760,345.000 19.200 M49.820 20.777 C 49.433 21.205,48.641 21.628,48.058 21.718 L 47.000 21.880 48.084 21.940 C 48.694 21.974,49.482 21.669,49.884 21.243 C 50.278 20.827,50.960 20.398,51.400 20.290 C 52.170 20.100,52.168 20.091,51.362 20.046 C 50.901 20.021,50.207 20.350,49.820 20.777 M350.000 20.724 C 350.000 21.384,351.509 22.076,352.521 21.880 C 353.347 21.719,353.342 21.706,352.431 21.654 C 351.899 21.625,351.134 21.302,350.731 20.938 C 350.319 20.565,350.000 20.471,350.000 20.724 M45.656 22.813 C 45.136 23.246,44.898 23.600,45.127 23.600 C 45.531 23.600,46.800 22.516,46.800 22.171 C 46.800 21.899,46.658 21.978,45.656 22.813 M354.061 23.018 C 354.424 23.389,354.940 23.620,355.206 23.531 C 355.473 23.442,355.175 23.139,354.545 22.856 C 353.473 22.376,353.442 22.386,354.061 23.018 M42.278 24.613 C 41.105 25.644,41.144 25.872,42.379 25.211 C 42.779 24.997,43.211 24.547,43.340 24.211 C 43.641 23.427,43.613 23.438,42.278 24.613 M357.200 24.811 C 357.200 25.158,358.753 25.781,359.001 25.532 C 359.078 25.455,358.705 25.185,358.171 24.933 C 357.637 24.681,357.200 24.626,357.200 24.811 M39.737 26.111 C 39.551 26.426,39.130 26.785,38.800 26.910 C 38.297 27.100,38.305 27.142,38.851 27.168 C 39.552 27.202,40.657 26.124,40.294 25.760 C 40.172 25.639,39.922 25.797,39.737 26.111 M359.600 25.771 C 359.600 26.096,360.858 27.200,361.229 27.200 C 361.433 27.200,361.240 26.840,360.800 26.400 C 360.033 25.633,359.600 25.406,359.600 25.771 M33.200 31.887 C 31.550 33.560,30.559 34.674,30.997 34.364 C 32.590 33.237,36.956 28.674,36.300 28.823 C 36.245 28.835,34.850 30.214,33.200 31.887 M365.887 31.395 C 366.279 31.934,366.737 32.381,366.903 32.387 C 367.360 32.406,366.296 30.846,365.696 30.615 C 365.367 30.489,365.438 30.777,365.887 31.395 M104.643 32.087 C 101.807 32.244,98.657 32.636,97.643 32.956 C 96.629 33.276,94.577 33.739,93.083 33.984 C 91.588 34.229,89.788 34.667,89.083 34.958 C 88.377 35.249,86.990 35.762,86.000 36.099 C 82.223 37.383,77.840 39.264,76.000 40.391 C 75.670 40.593,74.860 41.027,74.200 41.355 C 70.538 43.174,69.600 43.722,69.600 44.044 C 69.600 44.240,69.355 44.400,69.055 44.400 C 68.755 44.400,67.861 44.895,67.069 45.500 C 66.276 46.105,64.770 47.230,63.721 48.000 C 59.593 51.031,51.041 59.427,48.965 62.486 C 48.326 63.429,47.684 64.290,47.539 64.400 C 47.048 64.774,44.400 68.778,44.400 69.148 C 44.400 69.349,44.130 69.618,43.800 69.745 C 43.470 69.871,43.200 70.206,43.200 70.487 C 43.199 70.769,42.749 71.523,42.200 72.162 C 41.650 72.801,41.200 73.752,41.200 74.275 C 41.200 74.797,40.929 75.329,40.598 75.456 C 40.267 75.583,39.884 76.384,39.748 77.236 C 39.612 78.088,39.254 78.989,38.953 79.239 C 38.652 79.489,38.207 80.437,37.964 81.347 C 37.721 82.256,37.180 83.322,36.761 83.716 C 36.218 84.226,36.000 84.981,36.000 86.354 C 36.000 87.806,35.793 88.462,35.152 89.038 C 34.383 89.730,34.323 90.103,34.508 93.100 C 34.710 96.369,34.703 96.400,33.756 96.400 C 32.951 96.400,32.800 96.599,32.800 97.654 L 32.800 98.908 33.629 97.854 C 34.324 96.970,34.776 96.800,36.429 96.800 C 38.133 96.800,38.400 96.692,38.400 96.000 C 38.400 95.282,38.667 95.200,41.000 95.200 C 43.333 95.200,43.600 95.118,43.600 94.400 C 43.600 93.676,43.867 93.600,46.400 93.600 C 49.120 93.600,49.200 93.571,49.200 92.600 C 49.200 91.636,49.293 91.600,51.800 91.600 C 54.133 91.600,54.400 91.518,54.400 90.800 C 54.400 90.082,54.667 90.000,57.000 90.000 C 59.507 90.000,59.600 89.964,59.600 89.000 C 59.600 88.029,59.680 88.000,62.400 88.000 C 64.933 88.000,65.200 87.924,65.200 87.200 C 65.200 86.482,65.467 86.400,67.800 86.400 C 70.307 86.400,70.400 86.364,70.400 85.400 C 70.400 84.481,70.547 84.400,72.200 84.400 C 73.733 84.400,74.000 84.281,74.000 83.600 C 74.000 82.882,74.267 82.800,76.600 82.800 C 79.107 82.800,79.200 82.764,79.200 81.800 C 79.200 80.836,79.293 80.800,81.800 80.800 C 84.133 80.800,84.400 80.718,84.400 80.000 C 84.400 79.276,84.667 79.200,87.200 79.200 C 89.733 79.200,90.000 79.124,90.000 78.400 C 90.000 77.682,90.267 77.600,92.600 77.600 C 95.107 77.600,95.200 77.564,95.200 76.600 C 95.200 75.636,95.293 75.600,97.800 75.600 C 100.133 75.600,100.400 75.518,100.400 74.800 C 100.400 74.076,100.667 74.000,103.200 74.000 C 105.920 74.000,106.000 73.971,106.000 73.000 C 106.000 72.036,106.093 72.000,108.600 72.000 C 110.933 72.000,111.200 71.918,111.200 71.200 C 111.200 70.482,111.467 70.400,113.800 70.400 C 116.307 70.400,116.400 70.364,116.400 69.400 C 116.400 68.429,116.480 68.400,119.200 68.400 C 121.733 68.400,122.000 68.324,122.000 67.600 C 122.000 66.882,122.267 66.800,124.600 66.800 C 127.107 66.800,127.200 66.764,127.200 65.800 C 127.200 64.881,127.347 64.800,129.000 64.800 C 130.533 64.800,130.800 64.681,130.800 64.000 C 130.800 63.282,131.067 63.200,133.400 63.200 C 135.733 63.200,136.000 63.118,136.000 62.400 C 136.000 61.676,136.267 61.600,138.800 61.600 C 141.520 61.600,141.600 61.571,141.600 60.600 C 141.600 59.636,141.693 59.600,144.200 59.600 C 146.533 59.600,146.800 59.518,146.800 58.800 C 146.800 58.082,147.067 58.000,149.400 58.000 C 151.907 58.000,152.000 57.964,152.000 57.000 C 152.000 56.029,152.080 56.000,154.800 56.000 C 157.333 56.000,157.600 55.924,157.600 55.200 C 157.600 54.482,157.867 54.400,160.200 54.400 C 162.707 54.400,162.800 54.364,162.800 53.400 C 162.800 52.436,162.893 52.400,165.400 52.400 C 167.733 52.400,168.000 52.318,168.000 51.600 C 168.000 50.876,168.267 50.800,170.800 50.800 C 173.520 50.800,173.600 50.771,173.600 49.800 C 173.600 48.836,173.693 48.800,176.200 48.800 C 178.533 48.800,178.800 48.718,178.800 48.000 C 178.800 47.282,179.067 47.200,181.400 47.200 C 183.733 47.200,184.000 47.118,184.000 46.400 C 184.000 45.676,184.267 45.600,186.800 45.600 C 189.520 45.600,189.600 45.571,189.600 44.600 C 189.600 43.700,189.760 43.600,191.200 43.600 C 192.533 43.600,192.800 43.467,192.800 42.800 C 192.800 42.076,193.067 42.000,195.600 42.000 C 198.320 42.000,198.400 41.971,198.400 41.000 C 198.400 40.036,198.493 40.000,201.000 40.000 C 203.333 40.000,203.600 39.918,203.600 39.200 C 203.600 38.476,203.867 38.400,206.400 38.400 C 209.120 38.400,209.200 38.371,209.200 37.400 C 209.200 36.436,209.293 36.400,211.800 36.400 C 214.133 36.400,214.400 36.318,214.400 35.600 C 214.400 34.884,214.667 34.800,216.930 34.800 C 219.112 34.800,219.590 34.662,220.400 33.800 L 221.339 32.800 214.770 32.802 C 211.156 32.804,194.970 32.625,178.800 32.405 C 138.861 31.862,110.843 31.742,104.643 32.087 M372.800 38.679 C 372.800 39.215,373.900 40.634,374.133 40.399 C 374.242 40.290,373.987 39.775,373.566 39.256 C 373.145 38.736,372.800 38.477,372.800 38.679 M26.230 39.652 C 25.807 40.063,25.649 40.400,25.881 40.400 C 26.343 40.400,27.409 39.265,27.157 39.042 C 27.071 38.966,26.654 39.240,26.230 39.652 M374.412 41.011 C 374.393 41.646,375.591 43.200,376.099 43.200 C 376.349 43.200,376.271 42.975,375.926 42.700 C 375.581 42.425,375.103 41.840,374.862 41.400 C 374.621 40.960,374.419 40.785,374.412 41.011 M376.412 44.820 C 376.398 45.529,377.158 46.403,377.780 46.394 C 378.061 46.390,378.056 46.290,377.766 46.094 C 377.527 45.932,377.127 45.440,376.878 45.000 C 376.542 44.407,376.421 44.360,376.412 44.820 M22.500 45.985 C 22.005 46.613,21.600 47.476,21.600 47.902 C 21.600 48.329,21.240 49.093,20.800 49.600 C 20.360 50.107,20.021 50.900,20.046 51.361 C 20.091 52.167,20.101 52.168,20.295 51.402 C 20.406 50.963,20.835 50.173,21.248 49.648 C 21.662 49.122,22.000 48.306,22.000 47.835 C 22.000 47.364,22.360 46.670,22.800 46.293 C 23.240 45.916,23.600 45.426,23.600 45.204 C 23.600 44.638,23.515 44.698,22.500 45.985 M378.400 49.077 C 378.400 49.296,378.760 49.802,379.200 50.200 C 379.640 50.598,380.000 50.834,380.000 50.723 C 380.000 50.613,379.640 50.107,379.200 49.600 C 378.760 49.093,378.400 48.857,378.400 49.077 M380.054 52.726 C 379.989 53.844,380.658 55.200,381.276 55.200 C 381.539 55.200,381.466 54.911,381.098 54.500 C 380.754 54.115,380.391 53.350,380.291 52.800 C 380.116 51.837,380.107 51.835,380.054 52.726 M19.474 53.700 C 19.315 54.305,19.008 54.800,18.792 54.800 C 18.577 54.800,18.400 55.020,18.400 55.289 C 18.400 55.563,18.769 55.409,19.239 54.939 C 19.700 54.477,20.007 53.762,19.921 53.350 C 19.797 52.759,19.702 52.833,19.474 53.700 M256.141 53.197 C 255.668 53.388,255.163 53.737,255.017 53.972 C 254.662 54.546,255.719 54.521,256.299 53.941 C 256.552 53.688,258.343 53.355,260.279 53.200 L 263.800 52.918 260.400 52.884 C 258.530 52.866,256.613 53.007,256.141 53.197 M311.600 53.382 L 312.600 53.935 312.805 77.868 L 313.009 101.800 313.105 77.714 C 313.209 51.464,313.311 52.755,311.126 52.814 C 310.837 52.822,311.050 53.077,311.600 53.382 M250.707 54.690 C 251.426 54.779,252.506 54.777,253.107 54.686 C 253.708 54.595,253.120 54.522,251.800 54.524 C 250.480 54.526,249.988 54.601,250.707 54.690 M246.600 55.600 C 246.202 56.040,246.073 56.400,246.314 56.400 C 246.556 56.400,246.872 56.207,247.017 55.972 C 247.163 55.737,247.668 55.388,248.141 55.197 C 248.998 54.852,248.998 54.851,248.162 54.825 C 247.701 54.811,246.998 55.160,246.600 55.600 M381.662 57.600 C 381.610 59.797,382.206 62.535,382.779 62.726 C 383.010 62.803,383.221 63.257,383.246 63.733 C 383.284 64.439,383.328 64.466,383.480 63.880 C 383.582 63.485,383.365 62.700,382.996 62.138 C 382.627 61.575,382.186 59.919,382.015 58.457 C 381.751 56.189,381.699 56.064,381.662 57.600 M241.156 57.300 C 240.705 58.159,240.718 58.170,241.442 57.541 C 241.859 57.179,242.560 56.795,243.000 56.688 C 243.615 56.538,243.548 56.482,242.714 56.446 C 241.965 56.414,241.482 56.679,241.156 57.300 M18.070 58.713 C 18.031 59.435,17.739 60.650,17.420 61.413 C 17.099 62.183,17.014 62.800,17.230 62.800 C 17.875 62.800,18.448 60.754,18.289 59.023 C 18.158 57.600,18.131 57.562,18.070 58.713 M236.293 59.200 C 235.916 59.640,235.713 60.000,235.841 60.000 C 235.969 60.000,236.531 59.640,237.091 59.200 C 237.696 58.724,237.879 58.400,237.543 58.400 C 237.232 58.400,236.670 58.760,236.293 59.200 M233.192 60.610 C 232.914 60.945,232.802 61.335,232.943 61.476 C 233.084 61.618,233.200 61.538,233.200 61.300 C 233.200 61.062,233.695 60.686,234.300 60.465 C 235.235 60.123,235.273 60.058,234.549 60.032 C 234.081 60.014,233.470 60.274,233.192 60.610 M230.238 62.600 C 229.644 63.150,229.326 63.600,229.530 63.600 C 229.735 63.600,230.143 63.310,230.437 62.955 C 230.731 62.601,231.338 62.162,231.786 61.981 C 232.378 61.741,232.425 61.644,231.958 61.625 C 231.606 61.611,230.831 62.050,230.238 62.600 M16.598 200.000 C 16.598 275.130,16.644 305.865,16.700 268.300 C 16.756 230.735,16.756 169.265,16.700 131.700 C 16.644 94.135,16.598 124.870,16.598 200.000 M227.275 64.600 C 226.797 65.150,226.518 65.600,226.657 65.600 C 226.795 65.600,227.325 65.150,227.835 64.600 C 228.345 64.050,228.623 63.600,228.453 63.600 C 228.283 63.600,227.753 64.050,227.275 64.600 M221.673 69.800 C 221.422 70.350,221.283 70.800,221.363 70.800 C 221.443 70.800,221.803 70.350,222.163 69.800 C 222.524 69.250,222.663 68.800,222.473 68.800 C 222.284 68.800,221.923 69.250,221.673 69.800 M216.811 75.387 C 216.543 75.709,216.386 76.142,216.462 76.350 C 216.538 76.557,216.923 76.293,217.319 75.763 C 218.085 74.736,217.631 74.399,216.811 75.387 M215.192 78.210 C 214.444 79.111,214.878 79.215,215.770 78.348 C 216.193 77.937,216.351 77.600,216.119 77.600 C 215.887 77.600,215.470 77.874,215.192 78.210 M213.189 82.021 C 212.947 82.472,212.827 83.237,212.920 83.721 C 213.066 84.469,213.099 84.441,213.146 83.529 C 213.175 82.939,213.483 82.174,213.829 81.829 C 214.174 81.483,214.271 81.200,214.043 81.200 C 213.815 81.200,213.431 81.569,213.189 82.021 M211.900 85.232 C 211.515 85.456,211.214 86.036,211.232 86.520 C 211.253 87.107,211.337 87.200,211.484 86.800 C 211.605 86.470,211.979 85.885,212.314 85.500 C 213.005 84.707,212.908 84.645,211.900 85.232 M210.832 89.280 C 210.814 89.654,210.498 90.129,210.129 90.336 C 209.629 90.616,209.433 91.361,209.360 93.256 L 209.263 95.800 209.533 93.540 C 209.690 92.225,210.112 90.939,210.543 90.463 C 210.949 90.014,211.188 89.411,211.073 89.123 C 210.933 88.775,210.853 88.827,210.832 89.280 M208.264 97.529 C 207.882 97.952,207.625 98.843,207.660 99.631 C 207.719 100.982,207.722 100.984,207.893 99.800 C 207.989 99.140,208.351 98.284,208.698 97.898 C 209.045 97.511,209.238 97.105,209.128 96.995 C 209.018 96.885,208.630 97.125,208.264 97.529 M312.070 103.661 L 311.139 104.800 297.270 104.840 C 289.641 104.862,281.870 104.997,280.000 105.140 C 278.130 105.283,284.430 105.338,294.000 105.262 L 311.400 105.124 312.348 104.205 C 312.869 103.700,313.229 103.115,313.148 102.905 C 313.066 102.695,312.581 103.035,312.070 103.661 M275.200 106.200 C 274.926 106.530,274.334 106.800,273.884 106.800 C 273.435 106.800,273.178 106.912,273.315 107.048 C 273.729 107.462,275.496 106.847,275.743 106.203 C 276.038 105.436,275.835 105.435,275.200 106.200 M270.432 109.680 C 270.414 110.054,270.085 110.544,269.700 110.768 C 269.315 110.992,269.203 111.181,269.451 111.188 C 270.111 111.206,270.909 110.109,270.669 109.513 C 270.537 109.183,270.452 109.242,270.432 109.680 M206.540 111.673 C 206.353 111.963,206.110 120.030,206.000 129.600 L 205.800 147.000 191.933 147.200 C 184.306 147.310,177.976 147.490,177.865 147.601 C 177.755 147.711,177.559 148.341,177.430 149.001 C 177.301 149.660,177.310 149.930,177.450 149.600 C 178.330 147.527,177.942 147.578,192.330 147.611 C 200.761 147.630,205.867 147.493,206.119 147.241 C 206.372 146.988,206.493 141.959,206.449 133.521 C 206.411 126.194,206.561 118.231,206.781 115.824 C 207.188 111.385,207.150 110.729,206.540 111.673 M268.260 120.900 C 267.867 127.757,267.903 146.863,268.309 147.269 C 268.512 147.472,277.614 147.619,289.290 147.607 C 310.224 147.586,311.622 147.675,312.700 149.094 C 313.141 149.675,313.200 149.679,313.200 149.125 C 313.200 147.436,312.887 147.409,290.294 147.200 L 268.709 147.000 268.776 131.700 C 268.844 115.939,268.707 113.081,268.260 120.900 M312.247 153.764 C 311.832 155.229,311.607 156.541,311.747 156.680 C 311.886 156.819,312.000 156.627,312.000 156.253 C 312.000 155.878,312.282 155.141,312.627 154.614 C 312.973 154.088,313.198 153.082,313.127 152.379 C 313.017 151.269,312.901 151.451,312.247 153.764 M311.200 167.151 C 311.200 168.004,310.930 169.349,310.600 170.138 C 309.810 172.029,309.835 172.813,310.649 171.651 C 311.280 170.751,311.966 165.600,311.455 165.600 C 311.315 165.600,311.200 166.298,311.200 167.151 M309.758 179.000 C 309.758 182.080,309.821 183.287,309.897 181.682 C 309.973 180.078,309.973 177.558,309.896 176.082 C 309.819 174.607,309.757 175.920,309.758 179.000 M309.083 185.900 C 308.968 186.505,308.755 187.450,308.608 188.000 C 308.350 188.963,308.364 188.971,308.970 188.224 C 309.317 187.796,309.600 186.851,309.600 186.124 C 309.600 184.514,309.364 184.412,309.083 185.900 M308.142 192.600 C 308.141 194.580,308.208 195.440,308.292 194.512 C 308.376 193.584,308.377 191.964,308.295 190.912 C 308.212 189.860,308.143 190.620,308.142 192.600 M177.326 198.369 C 177.367 198.901,177.670 199.410,178.000 199.499 C 178.396 199.606,178.446 199.549,178.146 199.330 C 177.897 199.149,177.593 198.640,177.472 198.200 C 177.299 197.569,177.268 197.605,177.326 198.369 M307.281 198.818 C 306.972 199.313,306.946 199.600,307.209 199.600 C 307.438 199.600,307.732 199.322,307.862 198.983 C 308.222 198.045,307.833 197.934,307.281 198.818 M205.800 199.870 C 206.064 200.088,206.200 224.599,206.200 271.935 L 206.200 343.669 207.322 344.635 L 208.445 345.600 237.422 345.600 C 269.734 345.600,267.333 345.806,268.421 342.944 C 268.965 341.515,268.922 199.493,268.378 199.674 C 268.114 199.762,267.983 223.876,267.991 271.004 C 268.004 338.117,267.964 342.280,267.302 343.600 L 266.600 345.000 238.000 345.110 C 222.270 345.171,209.032 345.132,208.583 345.023 C 206.273 344.466,206.388 348.381,206.406 270.757 C 206.419 213.515,206.323 199.781,205.911 199.673 C 205.593 199.590,205.551 199.664,205.800 199.870 M383.232 336.369 C 383.214 336.681,382.921 337.245,382.581 337.621 C 382.180 338.064,381.905 339.345,381.800 341.253 L 381.639 344.200 381.982 341.543 C 382.171 340.081,382.629 338.422,383.000 337.855 C 383.372 337.289,383.582 336.595,383.469 336.313 C 383.315 335.930,383.255 335.944,383.232 336.369 M16.813 337.420 C 16.806 337.651,16.991 338.031,17.225 338.265 C 17.459 338.499,17.798 339.570,17.978 340.645 L 18.306 342.600 18.353 340.744 C 18.386 339.434,18.169 338.611,17.613 337.944 C 17.181 337.425,16.821 337.189,16.813 337.420 M18.400 344.714 C 18.400 344.956,18.593 345.272,18.828 345.417 C 19.063 345.563,19.412 346.068,19.603 346.541 C 19.948 347.398,19.949 347.398,19.975 346.562 C 19.989 346.101,19.640 345.398,19.200 345.000 C 18.760 344.602,18.400 344.473,18.400 344.714 M380.414 345.574 C 380.186 345.999,380.015 346.764,380.034 347.274 C 380.065 348.107,380.103 348.087,380.407 347.074 C 380.592 346.455,380.959 345.690,381.221 345.374 C 381.543 344.986,381.557 344.800,381.263 344.800 C 381.024 344.800,380.642 345.148,380.414 345.574 M376.880 354.080 C 376.616 354.344,376.414 354.929,376.432 355.380 C 376.454 355.957,376.529 356.022,376.684 355.600 C 376.805 355.270,377.179 354.685,377.514 354.300 C 378.194 353.520,377.635 353.325,376.880 354.080 M24.687 357.768 C 25.469 358.814,25.752 358.863,25.378 357.888 C 25.246 357.544,24.876 357.161,24.556 357.039 C 24.118 356.870,24.150 357.051,24.687 357.768 M374.955 357.812 C 374.590 358.369,374.406 358.939,374.546 359.079 C 374.686 359.219,374.800 359.123,374.800 358.867 C 374.800 358.610,375.160 358.040,375.600 357.600 C 376.040 357.160,376.224 356.800,376.009 356.800 C 375.794 356.800,375.320 357.256,374.955 357.812 M25.600 359.904 C 25.600 360.071,25.960 360.432,26.400 360.707 C 27.276 361.254,27.485 360.845,26.720 360.080 C 26.178 359.538,25.600 359.447,25.600 359.904 M373.525 360.298 C 372.775 361.171,372.257 362.535,372.805 362.197 C 373.022 362.063,373.200 361.702,373.200 361.396 C 373.200 361.090,373.514 360.664,373.897 360.450 C 374.280 360.235,374.489 359.955,374.361 359.828 C 374.233 359.700,373.857 359.911,373.525 360.298 M367.030 367.607 C 366.166 368.483,365.602 369.200,365.777 369.200 C 365.951 369.200,366.792 368.480,367.646 367.600 C 368.500 366.720,369.064 366.003,368.900 366.007 C 368.735 366.010,367.893 366.730,367.030 367.607 M363.400 370.910 C 362.612 371.702,362.476 371.972,363.004 371.696 C 363.936 371.208,365.499 369.575,364.962 369.651 C 364.763 369.680,364.060 370.246,363.400 370.910 M39.256 373.566 C 39.775 373.987,40.271 374.261,40.357 374.175 C 40.650 373.885,39.506 372.800,38.907 372.800 C 38.501 372.800,38.612 373.044,39.256 373.566 M360.200 373.600 C 359.802 374.040,359.594 374.400,359.738 374.400 C 359.882 374.400,360.360 374.040,360.800 373.600 C 361.240 373.160,361.448 372.800,361.262 372.800 C 361.076 372.800,360.598 373.160,360.200 373.600 M44.800 376.678 C 45.130 376.796,45.625 377.176,45.900 377.522 C 46.355 378.096,46.400 378.096,46.400 377.519 C 46.400 376.892,45.570 376.371,44.667 376.432 C 44.410 376.449,44.470 376.560,44.800 376.678 M354.080 376.880 C 353.325 377.635,353.520 378.194,354.300 377.514 C 354.685 377.179,355.270 376.805,355.600 376.684 C 356.022 376.529,355.957 376.454,355.380 376.432 C 354.929 376.414,354.344 376.616,354.080 376.880 M49.600 379.200 C 50.107 379.640,50.613 380.000,50.723 380.000 C 50.834 380.000,50.598 379.640,50.200 379.200 C 49.802 378.760,49.296 378.400,49.077 378.400 C 48.857 378.400,49.093 378.760,49.600 379.200 M349.956 379.300 L 349.484 380.200 350.442 379.404 C 350.969 378.967,351.475 378.562,351.567 378.504 C 351.658 378.447,351.440 378.400,351.081 378.400 C 350.722 378.400,350.216 378.805,349.956 379.300 M52.800 380.291 C 53.350 380.391,54.115 380.754,54.500 381.098 C 54.911 381.466,55.200 381.539,55.200 381.276 C 55.200 380.658,53.844 379.989,52.726 380.054 C 51.835 380.107,51.837 380.116,52.800 380.291 M345.500 380.432 C 345.115 380.656,344.800 381.033,344.800 381.269 C 344.800 381.552,344.995 381.536,345.374 381.221 C 345.690 380.959,346.455 380.592,347.074 380.407 C 348.173 380.077,348.176 380.068,347.200 380.047 C 346.650 380.034,345.885 380.208,345.500 380.432 M58.457 381.982 C 59.918 382.171,61.493 382.529,61.957 382.777 C 62.421 383.025,62.800 383.061,62.800 382.857 C 62.800 382.259,61.591 381.952,58.600 381.791 L 55.800 381.639 58.457 381.982 M339.200 381.891 C 338.650 381.991,337.930 382.303,337.600 382.584 C 337.270 382.866,336.730 383.195,336.400 383.316 C 335.874 383.510,335.875 383.541,336.411 383.568 C 336.747 383.586,337.430 383.314,337.928 382.965 C 338.427 382.616,340.042 382.190,341.517 382.018 C 343.948 381.734,344.012 381.705,342.200 381.707 C 341.100 381.708,339.750 381.791,339.200 381.891 " stroke="none" fill="#1e4eca" fill-rule="evenodd"></path></g></svg>