<svg id="svg" version="1.1" xmlns="http://www.w3.org/2000/svg" xmlns:xlink="http://www.w3.org/1999/xlink" width="400" height="400" viewBox="0, 0, 400,400"><g id="svgg"><path id="path0" d="M192.600 12.628 C 191.940 12.719,187.260 13.167,182.200 13.624 C 177.140 14.081,171.560 14.787,169.800 15.193 C 168.040 15.600,165.438 16.051,164.017 16.195 C 162.597 16.340,160.816 16.717,160.061 17.032 C 159.305 17.348,157.678 17.719,156.444 17.856 C 155.210 17.994,153.170 18.532,151.912 19.053 C 150.654 19.574,149.097 20.000,148.452 20.000 C 147.807 20.000,146.317 20.448,145.140 20.996 C 143.963 21.544,142.496 21.994,141.880 21.996 C 141.264 21.998,140.206 22.287,139.529 22.637 C 138.852 22.987,137.376 23.542,136.249 23.871 C 135.122 24.199,133.824 24.708,133.364 25.001 C 132.904 25.295,131.734 25.748,130.764 26.009 C 129.794 26.269,127.372 27.274,125.382 28.241 C 123.391 29.209,121.588 30.000,121.374 30.000 C 121.161 30.000,120.323 30.450,119.514 31.000 C 118.705 31.550,117.708 32.000,117.299 32.000 C 116.890 32.000,115.945 32.450,115.200 33.000 C 114.455 33.550,113.574 34.000,113.244 34.000 C 112.913 34.000,111.958 34.450,111.122 35.000 C 107.578 37.329,106.554 37.933,105.753 38.170 C 105.287 38.308,104.584 38.776,104.191 39.210 C 103.798 39.645,103.215 40.000,102.896 40.000 C 102.577 40.000,101.781 40.450,101.127 41.000 C 100.473 41.550,99.714 42.000,99.439 42.000 C 99.164 42.000,98.517 42.450,98.000 43.000 C 97.483 43.550,96.900 44.000,96.704 44.000 C 96.507 44.000,95.757 44.450,95.036 45.000 C 94.314 45.550,93.585 46.000,93.415 46.000 C 93.245 46.000,92.512 46.495,91.786 47.100 C 91.060 47.705,89.600 48.830,88.541 49.600 C 79.507 56.169,67.289 67.508,58.921 77.089 C 56.457 79.910,53.937 82.894,53.321 83.720 C 52.704 84.546,51.300 86.347,50.200 87.722 C 48.244 90.168,43.463 97.067,41.727 99.950 C 41.246 100.747,40.470 102.030,40.001 102.800 C 36.572 108.437,34.328 112.679,31.328 119.200 C 30.569 120.850,29.424 123.280,28.784 124.600 C 27.242 127.778,26.000 130.793,26.000 131.357 C 26.000 131.607,25.665 132.439,25.255 133.206 C 24.846 133.973,24.218 135.610,23.860 136.845 C 23.502 138.080,22.939 139.610,22.607 140.245 C 22.276 140.880,22.004 141.810,22.002 142.312 C 22.001 142.814,21.550 144.293,21.000 145.600 C 20.450 146.907,20.000 148.335,20.000 148.773 C 20.000 149.212,19.648 150.463,19.218 151.555 C 18.788 152.646,18.314 154.498,18.166 155.670 C 18.018 156.841,17.650 158.407,17.348 159.149 C 17.047 159.891,16.524 162.411,16.187 164.749 C 15.851 167.087,15.318 170.170,15.003 171.600 C 14.415 174.273,13.558 182.641,12.742 193.668 C 12.390 198.414,12.390 201.521,12.740 206.468 C 13.479 216.916,14.398 225.979,15.024 229.000 C 15.344 230.540,15.864 233.548,16.181 235.685 C 16.497 237.822,16.941 239.916,17.167 240.339 C 17.393 240.761,17.783 242.433,18.033 244.053 C 18.284 245.674,18.718 247.450,18.998 248.000 C 19.279 248.550,19.725 250.051,19.990 251.337 C 20.255 252.622,20.812 254.422,21.227 255.337 C 21.643 256.251,21.986 257.502,21.991 258.116 C 21.996 258.730,22.341 259.901,22.758 260.718 C 23.175 261.536,23.730 263.013,23.991 264.002 C 24.252 264.991,24.689 266.160,24.964 266.600 C 25.238 267.040,25.768 268.347,26.141 269.505 C 26.751 271.398,27.561 273.214,31.687 281.937 L 32.886 284.473 34.143 283.299 C 34.834 282.653,36.750 281.105,38.400 279.858 C 40.050 278.611,42.570 276.677,44.000 275.559 C 47.039 273.183,49.117 271.574,54.644 267.315 C 56.868 265.602,59.298 263.717,60.044 263.127 C 63.137 260.680,71.192 254.411,74.596 251.800 C 80.136 247.552,82.420 245.775,88.148 241.259 C 91.037 238.981,93.745 236.873,94.167 236.574 C 94.918 236.042,94.911 235.943,93.831 231.915 C 88.691 212.741,87.992 195.903,91.600 178.200 C 93.020 171.232,94.391 165.986,95.310 164.000 C 95.666 163.230,96.869 160.260,97.983 157.400 C 99.096 154.540,100.220 151.840,100.481 151.400 C 100.742 150.960,101.483 149.610,102.127 148.400 C 105.884 141.346,107.792 138.270,111.800 132.804 C 112.240 132.203,112.950 131.192,113.377 130.556 C 113.804 129.920,114.736 128.770,115.447 128.000 C 116.158 127.230,117.994 125.160,119.527 123.400 C 124.157 118.085,136.900 107.100,139.988 105.761 C 140.545 105.520,141.247 105.025,141.549 104.661 C 141.851 104.298,142.332 104.000,142.618 104.000 C 142.904 104.000,143.673 103.550,144.327 103.000 C 144.981 102.450,145.718 102.000,145.966 102.000 C 146.365 102.000,147.253 101.513,150.200 99.678 C 150.640 99.404,151.810 98.813,152.800 98.365 C 153.790 97.917,155.230 97.225,156.000 96.827 C 156.770 96.429,157.929 95.978,158.576 95.825 C 159.222 95.672,160.212 95.224,160.776 94.829 C 161.339 94.434,162.440 93.994,163.222 93.852 C 164.005 93.709,165.348 93.234,166.207 92.796 C 167.066 92.358,168.277 92.000,168.897 92.000 C 169.517 92.000,171.093 91.550,172.400 91.000 C 173.707 90.450,175.367 90.000,176.089 90.000 C 176.812 90.000,178.662 89.635,180.201 89.189 C 187.728 87.007,213.904 87.013,220.874 89.198 C 222.263 89.633,224.030 90.000,224.800 90.012 C 225.570 90.025,226.920 90.315,227.800 90.657 C 228.680 91.000,230.530 91.534,231.911 91.845 C 233.292 92.156,235.089 92.768,235.905 93.205 C 236.721 93.642,237.751 94.001,238.194 94.002 C 238.637 94.003,239.720 94.448,240.600 94.990 C 241.480 95.532,242.468 95.981,242.796 95.988 C 243.398 96.000,247.310 97.926,251.000 100.026 C 252.100 100.652,253.611 101.456,254.358 101.812 C 255.105 102.168,255.988 102.731,256.320 103.063 C 256.652 103.395,257.301 103.836,257.762 104.042 C 258.223 104.248,259.250 104.908,260.045 105.509 C 265.732 109.803,267.995 111.615,269.524 113.100 C 270.486 114.035,271.529 114.800,271.841 114.800 C 272.590 114.800,325.200 62.252,325.200 61.504 C 325.200 61.185,324.108 60.049,322.773 58.978 C 321.438 57.907,320.223 56.841,320.073 56.608 C 319.849 56.261,316.869 53.742,314.000 51.474 C 311.540 49.530,306.678 45.977,305.012 44.907 C 303.906 44.195,302.640 43.333,302.200 42.991 C 300.618 41.760,297.791 40.014,297.370 40.007 C 297.133 40.003,296.517 39.550,296.000 39.000 C 295.483 38.450,294.857 38.000,294.608 38.000 C 294.359 38.000,293.545 37.550,292.800 37.000 C 292.055 36.450,291.191 36.000,290.880 36.000 C 290.570 36.000,289.781 35.550,289.127 35.000 C 288.473 34.450,287.717 34.000,287.447 34.000 C 287.177 34.000,286.345 33.550,285.600 33.000 C 284.855 32.450,283.910 32.000,283.501 32.000 C 283.092 32.000,282.095 31.550,281.286 31.000 C 280.477 30.450,279.625 30.000,279.393 30.000 C 279.161 30.000,277.178 29.103,274.986 28.006 C 272.794 26.909,270.689 26.009,270.309 26.006 C 269.929 26.003,268.669 25.567,267.509 25.037 C 264.602 23.710,260.083 22.088,258.400 21.768 C 257.630 21.622,256.332 21.164,255.516 20.751 C 254.700 20.338,253.479 20.000,252.804 20.000 C 252.128 20.000,250.546 19.574,249.288 19.053 C 248.030 18.532,245.990 17.994,244.756 17.856 C 243.522 17.719,241.895 17.348,241.139 17.032 C 240.384 16.717,238.603 16.337,237.183 16.188 C 235.762 16.040,233.160 15.590,231.400 15.188 C 229.640 14.786,226.670 14.342,224.800 14.203 C 222.930 14.063,219.150 13.680,216.400 13.353 C 211.621 12.783,195.116 12.280,192.600 12.628 " stroke="none" fill="#f06a26" fill-rule="evenodd"></path><path id="path1" d="M90.200 239.656 C 88.000 241.424,84.580 244.113,82.600 245.630 C 74.845 251.572,64.832 259.339,60.044 263.127 C 59.298 263.717,56.868 265.602,54.644 267.315 C 49.042 271.631,47.008 273.207,44.000 275.560 C 42.570 276.679,39.780 278.827,37.800 280.335 C 32.198 284.599,32.155 282.908,38.143 293.700 C 42.652 301.825,52.154 315.305,57.258 320.818 C 57.776 321.377,59.370 323.232,60.800 324.939 C 65.548 330.607,80.366 344.474,85.451 348.008 C 85.919 348.334,87.722 349.680,89.456 351.000 C 91.191 352.320,93.328 353.865,94.205 354.434 C 95.950 355.566,96.631 356.018,100.180 358.402 C 101.488 359.281,102.771 360.000,103.031 360.000 C 103.290 360.000,103.747 360.295,104.045 360.655 C 104.344 361.015,105.311 361.647,106.194 362.060 C 107.077 362.474,108.520 363.251,109.400 363.789 C 110.280 364.326,111.810 365.146,112.800 365.612 C 113.790 366.077,114.870 366.690,115.200 366.975 C 115.530 367.260,116.326 367.618,116.968 367.771 C 117.611 367.924,118.580 368.398,119.122 368.825 C 119.664 369.251,120.275 369.600,120.479 369.600 C 120.853 369.600,125.002 371.461,127.600 372.795 C 128.370 373.190,129.615 373.643,130.366 373.803 C 131.117 373.962,132.539 374.522,133.525 375.046 C 134.512 375.571,135.634 376.000,136.020 376.000 C 136.405 376.000,137.683 376.448,138.860 376.996 C 140.037 377.544,141.519 377.994,142.153 377.996 C 142.787 377.998,143.867 378.337,144.553 378.748 C 145.239 379.160,146.678 379.610,147.752 379.748 C 148.825 379.886,150.265 380.343,150.952 380.763 C 151.638 381.184,153.280 381.648,154.600 381.795 C 155.920 381.942,158.080 382.393,159.400 382.797 C 160.720 383.201,162.776 383.647,163.968 383.789 C 165.160 383.930,167.050 384.283,168.168 384.573 C 169.286 384.864,171.550 385.225,173.200 385.376 C 174.850 385.527,178.270 385.898,180.800 386.201 C 193.518 387.724,231.540 386.615,234.756 384.627 C 234.990 384.483,236.851 384.098,238.891 383.772 C 240.931 383.447,243.410 382.929,244.400 382.621 C 245.390 382.314,247.278 381.940,248.596 381.790 C 249.914 381.641,251.681 381.167,252.523 380.737 C 253.366 380.307,254.987 379.853,256.127 379.727 C 257.267 379.601,258.740 379.176,259.400 378.784 C 260.060 378.391,261.500 377.945,262.600 377.792 C 263.700 377.640,265.163 377.193,265.851 376.800 C 266.538 376.407,267.708 375.957,268.451 375.799 C 269.193 375.642,270.340 375.193,271.000 374.800 C 271.660 374.407,272.830 373.955,273.600 373.794 C 274.370 373.633,275.809 373.074,276.797 372.551 C 277.785 372.028,278.886 371.600,279.243 371.600 C 279.600 371.600,280.321 371.265,280.846 370.855 C 281.371 370.445,282.250 369.971,282.800 369.801 C 283.826 369.484,287.329 367.831,288.400 367.158 C 288.730 366.950,289.900 366.322,291.000 365.762 C 294.177 364.143,295.606 363.317,296.328 362.684 C 296.697 362.360,297.450 361.958,298.000 361.791 C 298.550 361.624,299.450 361.140,300.000 360.714 C 300.550 360.289,302.080 359.239,303.400 358.381 C 304.720 357.524,306.520 356.280,307.400 355.618 C 308.280 354.956,309.270 354.288,309.600 354.134 C 309.930 353.981,311.307 352.942,312.660 351.827 C 314.014 350.712,317.029 348.289,319.360 346.441 C 324.669 342.235,324.678 342.444,319.037 338.200 C 317.575 337.100,315.243 335.300,313.855 334.200 C 312.466 333.100,309.926 331.120,308.210 329.800 C 300.945 324.213,294.907 319.528,293.600 318.463 C 292.830 317.836,290.573 316.081,288.584 314.562 C 284.344 311.324,270.590 300.654,267.064 297.868 C 264.400 295.764,263.132 295.603,261.419 297.154 C 260.613 297.885,260.174 298.140,256.200 300.187 C 255.100 300.753,253.096 301.824,251.746 302.567 C 250.396 303.309,248.702 304.046,247.980 304.204 C 247.259 304.363,245.861 304.922,244.875 305.446 C 243.888 305.971,242.790 306.400,242.435 306.400 C 242.079 306.400,241.143 306.746,240.354 307.169 C 239.565 307.591,237.907 308.124,236.670 308.353 C 235.432 308.582,233.880 309.048,233.220 309.390 C 232.560 309.731,230.891 310.124,229.510 310.262 C 228.130 310.401,226.190 310.826,225.200 311.207 C 224.210 311.587,221.600 312.023,219.400 312.175 C 217.200 312.326,213.780 312.724,211.800 313.058 C 207.707 313.749,194.074 313.879,191.173 313.254 C 190.198 313.044,187.420 312.660,185.000 312.399 C 182.580 312.139,179.520 311.597,178.200 311.195 C 176.880 310.793,174.938 310.347,173.883 310.205 C 172.829 310.062,171.209 309.602,170.283 309.182 C 169.358 308.761,168.199 308.414,167.708 308.409 C 166.658 308.398,162.204 306.749,159.500 305.369 C 158.455 304.836,157.371 304.400,157.092 304.400 C 156.441 304.400,148.750 300.466,145.000 298.215 C 144.120 297.687,142.860 296.952,142.200 296.581 C 141.540 296.210,140.640 295.588,140.200 295.199 C 139.760 294.810,138.995 294.369,138.500 294.219 C 138.005 294.069,137.600 293.818,137.600 293.661 C 137.600 293.504,136.591 292.661,135.358 291.788 C 129.318 287.509,120.742 279.365,115.152 272.600 C 111.997 268.781,111.688 268.364,109.228 264.600 C 108.365 263.280,107.317 261.750,106.899 261.200 C 106.058 260.095,102.429 253.706,101.425 251.564 C 101.073 250.814,100.542 249.750,100.244 249.200 C 99.001 246.908,96.598 241.123,95.923 238.800 C 95.032 235.730,95.096 235.720,90.200 239.656 " stroke="none" fill="#34ab54" fill-rule="evenodd"></path><path id="path2" d="M201.015 166.776 C 200.504 167.603,200.788 236.545,201.304 236.873 C 201.577 237.046,224.071 237.191,251.291 237.194 L 300.782 237.200 301.404 238.151 C 301.976 239.023,301.961 239.270,301.214 241.165 C 300.766 242.301,300.400 243.768,300.400 244.427 C 300.400 245.085,299.971 246.654,299.446 247.912 C 298.921 249.170,298.360 250.815,298.199 251.567 C 298.039 252.318,297.569 253.488,297.155 254.167 C 296.741 254.845,296.402 255.712,296.401 256.094 C 296.400 256.698,294.607 260.662,293.549 262.400 C 293.348 262.730,292.918 263.578,292.593 264.284 C 292.086 265.387,290.593 267.904,289.203 270.000 C 288.985 270.330,288.229 271.500,287.523 272.600 C 283.469 278.923,272.750 289.808,266.700 293.746 C 263.856 295.597,263.828 295.375,267.233 298.009 C 268.791 299.214,273.516 302.886,277.733 306.168 C 281.950 309.450,286.930 313.304,288.800 314.733 C 290.670 316.161,292.830 317.841,293.600 318.466 C 294.912 319.532,301.071 324.310,308.210 329.800 C 309.926 331.120,312.466 333.100,313.855 334.200 C 315.243 335.300,317.575 337.100,319.037 338.200 C 320.499 339.300,322.111 340.634,322.619 341.165 C 323.481 342.065,323.604 342.089,324.471 341.512 C 326.796 339.967,334.592 331.715,340.448 324.600 C 343.163 321.302,343.824 320.428,345.600 317.790 C 345.930 317.299,346.525 316.471,346.922 315.949 C 347.798 314.797,350.669 310.464,351.885 308.459 C 354.702 303.815,355.976 301.522,358.364 296.800 C 359.310 294.930,360.246 293.130,360.445 292.800 C 360.643 292.470,361.006 291.750,361.250 291.200 C 361.495 290.650,362.577 288.220,363.654 285.800 C 364.732 283.380,365.612 281.220,365.609 281.000 C 365.607 280.780,365.893 280.060,366.246 279.400 C 366.599 278.740,367.220 277.120,367.626 275.800 C 368.599 272.644,369.927 268.683,370.847 266.200 C 371.254 265.100,371.760 263.284,371.971 262.165 C 372.182 261.045,372.620 259.425,372.944 258.565 C 373.269 257.704,373.641 256.089,373.771 254.975 C 373.901 253.862,374.358 251.953,374.787 250.734 C 375.215 249.515,375.685 247.276,375.830 245.759 C 375.976 244.241,376.418 241.740,376.812 240.200 C 377.206 238.660,377.638 235.420,377.772 233.000 C 377.905 230.580,378.273 227.380,378.589 225.888 C 380.778 215.549,381.043 195.230,379.104 186.400 C 378.549 183.870,377.974 179.655,377.827 177.033 C 377.547 172.051,376.796 167.960,375.981 166.977 C 375.407 166.286,201.442 166.085,201.015 166.776 " stroke="none" fill="#4484f4" fill-rule="evenodd"></path><path id="path3" d="M0.000 200.000 L 0.000 400.000 200.000 400.000 L 400.000 400.000 400.000 200.000 L 400.000 0.000 200.000 0.000 L 0.000 0.000 0.000 200.000 M206.210 12.380 C 207.965 12.589,211.110 12.850,213.200 12.961 C 215.290 13.071,220.060 13.540,223.800 14.003 C 231.163 14.915,231.173 14.916,234.355 15.562 C 235.540 15.803,237.295 16.000,238.255 16.000 C 239.215 16.000,240.000 16.144,240.000 16.320 C 240.000 16.839,242.410 17.538,245.200 17.827 C 246.630 17.976,248.362 18.436,249.048 18.849 C 249.735 19.263,251.175 19.716,252.248 19.857 C 253.322 19.998,254.830 20.422,255.600 20.800 C 256.370 21.178,257.858 21.599,258.907 21.737 C 259.956 21.874,261.612 22.350,262.585 22.793 C 263.559 23.237,264.502 23.600,264.681 23.600 C 264.860 23.600,265.817 24.031,266.807 24.559 C 267.798 25.086,269.393 25.729,270.352 25.987 C 272.111 26.461,274.529 27.572,281.100 30.928 C 282.255 31.517,283.462 32.000,283.782 32.000 C 284.103 32.000,285.028 32.450,285.838 33.000 C 286.649 33.550,287.633 34.000,288.027 34.000 C 288.420 34.000,289.096 34.450,289.529 35.000 C 289.961 35.550,290.580 36.000,290.904 36.000 C 291.227 36.000,291.921 36.335,292.446 36.745 C 292.971 37.155,293.850 37.629,294.400 37.800 C 294.950 37.970,295.909 38.535,296.531 39.055 C 297.153 39.575,297.844 40.000,298.067 40.000 C 298.466 40.000,299.171 40.500,302.441 43.100 C 303.340 43.815,304.246 44.400,304.454 44.400 C 304.929 44.400,306.681 45.629,309.874 48.200 C 311.240 49.300,313.461 51.010,314.809 52.000 C 316.158 52.990,318.193 54.701,319.331 55.803 C 320.469 56.904,322.267 58.511,323.326 59.372 C 326.164 61.681,326.238 61.545,317.900 69.300 C 317.075 70.067,316.400 70.883,316.400 71.114 C 316.400 71.345,316.221 71.593,316.003 71.667 C 315.668 71.779,299.090 88.153,297.756 89.689 C 297.512 89.970,295.622 91.828,293.556 93.817 C 291.490 95.807,288.767 98.507,287.504 99.817 C 286.241 101.128,284.081 103.287,282.704 104.616 C 281.327 105.945,279.543 107.745,278.739 108.616 C 276.184 111.386,272.363 114.800,271.818 114.800 C 271.528 114.800,270.332 113.900,269.161 112.800 C 267.989 111.700,266.906 110.800,266.753 110.800 C 266.479 110.800,264.121 108.986,261.800 106.989 C 259.386 104.912,258.071 104.000,257.491 104.000 C 257.165 104.000,256.672 103.728,256.396 103.395 C 256.120 103.063,255.153 102.424,254.247 101.975 C 251.725 100.727,250.255 99.858,249.019 98.887 C 248.399 98.399,247.638 98.000,247.328 98.000 C 247.017 98.000,245.918 97.550,244.885 97.000 C 243.852 96.450,242.671 96.000,242.261 96.000 C 241.851 96.000,240.981 95.550,240.327 95.000 C 239.673 94.450,238.747 93.998,238.269 93.996 C 237.791 93.994,236.500 93.550,235.400 93.009 C 234.300 92.468,232.716 92.019,231.880 92.013 C 231.044 92.006,229.818 91.720,229.155 91.377 C 228.493 91.034,226.567 90.509,224.875 90.209 C 223.184 89.910,221.297 89.472,220.682 89.235 C 213.092 86.321,183.850 87.447,173.200 91.065 C 172.210 91.402,170.394 91.817,169.164 91.987 C 167.934 92.158,166.494 92.577,165.964 92.919 C 165.434 93.261,164.319 93.665,163.486 93.817 C 162.654 93.970,161.394 94.487,160.686 94.967 C 159.979 95.447,158.545 96.079,157.500 96.372 C 156.455 96.665,155.600 97.052,155.600 97.234 C 155.600 97.415,154.968 97.682,154.197 97.827 C 153.425 97.972,152.325 98.458,151.753 98.908 C 150.605 99.811,148.208 101.163,145.900 102.208 C 145.075 102.581,144.400 103.025,144.400 103.195 C 144.400 103.364,143.815 103.743,143.100 104.037 C 141.620 104.645,139.496 105.989,137.938 107.304 C 137.354 107.797,136.214 108.650,135.405 109.200 C 133.313 110.622,129.185 113.924,127.961 115.155 C 127.390 115.730,125.537 117.453,123.845 118.985 C 122.152 120.517,120.074 122.677,119.227 123.785 C 118.379 124.893,117.002 126.520,116.165 127.400 C 114.090 129.583,112.201 132.125,109.640 136.181 C 108.451 138.063,107.254 139.789,106.979 140.017 C 106.704 140.245,105.787 141.781,104.940 143.430 C 104.093 145.079,102.832 147.456,102.137 148.714 C 100.240 152.149,98.401 156.046,98.139 157.186 C 98.011 157.744,97.577 158.920,97.175 159.800 C 94.356 165.969,93.551 168.625,91.600 178.200 C 88.607 192.885,88.554 206.599,91.433 221.200 C 93.119 229.751,94.569 235.134,95.350 235.743 C 95.673 235.994,96.506 237.730,97.202 239.600 C 97.899 241.470,98.903 243.918,99.434 245.040 C 99.965 246.162,100.400 247.355,100.400 247.691 C 100.400 248.027,100.670 248.526,101.001 248.801 C 101.331 249.075,102.412 250.977,103.403 253.027 C 104.394 255.078,105.383 256.866,105.602 257.001 C 105.821 257.137,106.000 257.528,106.000 257.871 C 106.000 258.214,106.495 259.078,107.100 259.791 C 107.705 260.504,109.190 262.685,110.400 264.636 C 111.610 266.588,113.579 269.358,114.776 270.792 C 115.973 272.227,117.323 273.846,117.776 274.391 C 121.210 278.520,131.173 287.770,135.000 290.382 C 136.100 291.133,137.578 292.209,138.285 292.773 C 141.083 295.008,141.946 295.600,142.406 295.600 C 142.669 295.600,143.419 296.050,144.073 296.600 C 144.727 297.150,145.586 297.600,145.982 297.600 C 146.378 297.600,146.947 297.895,147.245 298.255 C 147.544 298.615,148.556 299.238,149.494 299.640 C 150.432 300.043,151.200 300.551,151.200 300.770 C 151.200 300.989,151.965 301.392,152.900 301.665 C 153.835 301.939,155.140 302.486,155.800 302.880 C 156.460 303.274,157.391 303.598,157.869 303.599 C 158.347 303.599,159.247 304.024,159.869 304.542 C 160.491 305.061,161.720 305.616,162.600 305.776 C 163.480 305.936,164.761 306.412,165.447 306.834 C 166.133 307.255,167.400 307.600,168.263 307.600 C 169.125 307.600,170.544 307.969,171.415 308.421 C 172.287 308.872,173.900 309.337,175.000 309.455 C 176.100 309.573,177.720 309.942,178.600 310.275 C 185.210 312.778,216.580 312.972,222.964 310.549 C 223.824 310.222,226.074 309.766,227.964 309.536 C 229.854 309.305,231.892 308.862,232.493 308.551 C 233.094 308.241,234.444 307.878,235.493 307.746 C 236.542 307.613,238.152 307.076,239.071 306.552 C 239.990 306.029,241.145 305.600,241.636 305.600 C 242.128 305.600,243.266 305.174,244.165 304.654 C 245.064 304.134,246.457 303.589,247.259 303.443 C 248.062 303.298,249.170 302.824,249.723 302.389 C 250.275 301.955,250.989 301.600,251.309 301.600 C 251.630 301.600,252.321 301.273,252.846 300.873 C 253.894 300.074,258.933 297.600,259.513 297.600 C 259.713 297.600,260.198 297.245,260.591 296.810 C 260.984 296.376,261.686 295.900,262.151 295.752 C 262.616 295.604,263.959 294.700,265.135 293.742 C 266.311 292.784,267.421 292.000,267.600 292.000 C 268.822 292.000,280.698 280.562,282.999 277.168 C 283.658 276.196,284.311 275.310,284.450 275.200 C 284.907 274.838,287.534 271.286,288.198 270.131 C 288.556 269.509,289.378 268.100,290.026 267.000 C 290.674 265.900,291.303 264.730,291.423 264.400 C 291.543 264.070,291.935 263.260,292.294 262.600 C 293.974 259.515,295.600 255.916,295.600 255.285 C 295.600 254.902,295.958 253.920,296.396 253.103 C 296.834 252.286,297.357 250.939,297.558 250.109 C 297.759 249.279,298.287 247.700,298.730 246.600 C 299.896 243.705,300.627 239.267,300.034 238.674 C 299.686 238.326,287.209 238.208,250.397 238.203 C 204.156 238.197,201.184 238.155,200.527 237.499 C 199.433 236.405,199.419 167.209,200.513 166.116 C 201.433 165.195,374.643 165.005,376.292 165.923 C 377.698 166.706,378.571 170.504,378.976 177.601 C 379.096 179.695,379.538 181.630,380.441 184.001 L 381.734 187.400 381.736 202.200 C 381.739 221.235,381.555 224.255,380.194 227.567 C 379.418 229.456,378.938 231.831,378.377 236.567 C 377.693 242.341,377.165 245.119,375.068 254.000 C 374.730 255.430,374.277 257.590,374.060 258.800 C 373.844 260.010,373.303 262.080,372.859 263.400 C 372.415 264.720,371.466 267.690,370.750 270.000 C 370.034 272.310,369.122 274.827,368.724 275.594 C 368.326 276.361,368.000 277.296,368.000 277.673 C 368.000 278.050,367.550 279.204,367.000 280.238 C 366.450 281.273,366.000 282.365,366.000 282.665 C 366.000 282.965,365.836 283.523,365.635 283.905 C 364.970 285.172,362.492 290.558,361.257 293.421 C 359.758 296.896,357.726 300.793,356.985 301.615 C 356.680 301.953,356.164 302.853,355.839 303.615 C 355.514 304.377,354.607 305.984,353.824 307.187 C 353.041 308.389,352.400 309.576,352.400 309.825 C 352.400 310.073,352.013 310.619,351.541 311.038 C 351.068 311.457,349.636 313.420,348.357 315.400 C 347.079 317.380,345.261 319.869,344.317 320.930 C 343.372 321.992,342.436 323.162,342.236 323.530 C 339.965 327.707,323.611 344.421,316.488 349.846 C 314.886 351.065,312.755 352.774,311.751 353.642 C 310.748 354.510,309.269 355.579,308.464 356.017 C 307.659 356.456,306.190 357.438,305.200 358.200 C 304.210 358.962,302.758 359.936,301.973 360.364 C 301.189 360.792,300.311 361.425,300.024 361.771 C 299.737 362.117,299.268 362.400,298.982 362.400 C 298.696 362.400,297.927 362.850,297.273 363.400 C 296.619 363.950,295.737 364.400,295.312 364.400 C 294.887 364.400,294.117 364.850,293.600 365.400 C 293.083 365.950,292.346 366.400,291.961 366.400 C 291.576 366.400,290.727 366.850,290.073 367.400 C 289.419 367.950,288.621 368.400,288.298 368.400 C 287.976 368.400,287.049 368.850,286.238 369.400 C 285.428 369.950,284.347 370.400,283.836 370.400 C 283.326 370.400,282.476 370.740,281.948 371.155 C 281.420 371.571,280.335 372.091,279.538 372.311 C 278.741 372.531,277.709 373.091,277.245 373.555 C 276.756 374.044,275.888 374.400,275.187 374.400 C 274.519 374.400,273.085 374.850,272.000 375.400 C 270.915 375.950,269.777 376.400,269.473 376.400 C 269.168 376.400,268.112 376.829,267.125 377.354 C 266.139 377.878,264.537 378.436,263.566 378.592 C 262.595 378.749,261.377 379.146,260.859 379.474 C 260.342 379.803,258.803 380.230,257.439 380.423 C 256.076 380.616,254.114 381.148,253.080 381.606 C 252.045 382.063,250.254 382.536,249.100 382.657 C 247.945 382.778,246.280 383.122,245.400 383.421 C 244.520 383.721,242.480 384.158,240.866 384.392 C 239.252 384.626,237.272 385.102,236.466 385.449 C 235.532 385.851,232.896 386.204,229.200 386.423 C 225.664 386.632,222.697 387.021,221.600 387.419 C 218.577 388.515,183.840 388.404,179.400 387.284 C 177.640 386.840,174.310 386.353,172.000 386.201 C 169.690 386.049,167.201 385.675,166.469 385.369 C 165.736 385.064,163.846 384.654,162.269 384.457 C 160.691 384.260,158.700 383.805,157.844 383.446 C 156.988 383.087,155.278 382.676,154.044 382.531 C 152.810 382.386,150.900 381.850,149.800 381.338 C 148.700 380.826,147.296 380.406,146.680 380.404 C 146.064 380.402,144.990 380.105,144.294 379.745 C 143.597 379.385,141.770 378.830,140.234 378.512 C 138.698 378.194,137.077 377.679,136.631 377.367 C 136.186 377.055,135.547 376.800,135.211 376.800 C 134.875 376.800,133.610 376.267,132.400 375.616 C 131.190 374.965,129.874 374.425,129.475 374.416 C 128.809 374.401,124.206 372.436,122.800 371.566 C 122.470 371.361,121.750 370.999,121.200 370.761 C 120.650 370.523,119.363 369.895,118.341 369.364 C 117.319 368.834,116.175 368.400,115.799 368.400 C 115.423 368.400,114.581 367.950,113.927 367.400 C 113.273 366.850,112.399 366.400,111.985 366.400 C 111.570 366.400,110.909 366.058,110.516 365.640 C 110.122 365.222,108.315 364.134,106.500 363.221 C 104.685 362.309,103.200 361.410,103.200 361.225 C 103.200 361.039,102.720 360.766,102.134 360.619 C 101.092 360.358,100.142 359.727,97.432 357.500 C 96.697 356.895,95.987 356.400,95.855 356.400 C 95.648 356.400,93.082 354.758,90.231 352.800 C 89.750 352.470,88.928 351.795,88.403 351.300 C 87.878 350.805,87.341 350.400,87.209 350.400 C 87.076 350.400,86.165 349.666,85.184 348.770 C 84.203 347.873,82.862 346.856,82.205 346.510 C 81.548 346.164,80.556 345.413,80.001 344.841 C 79.447 344.268,77.560 342.540,75.808 341.000 C 69.483 335.439,54.911 320.238,53.400 317.625 C 52.908 316.774,50.372 313.464,48.113 310.725 C 47.186 309.599,45.836 307.695,45.113 306.493 C 44.391 305.291,43.305 303.720,42.700 303.001 C 42.095 302.282,41.600 301.527,41.600 301.323 C 41.600 301.118,41.276 300.602,40.879 300.175 C 40.483 299.749,39.808 298.740,39.379 297.933 C 38.951 297.127,37.995 295.327,37.256 293.933 C 36.517 292.540,35.508 290.860,35.013 290.200 C 34.519 289.540,33.974 288.550,33.803 288.000 C 33.631 287.450,33.172 286.593,32.784 286.095 C 32.393 285.595,32.171 284.834,32.286 284.394 C 32.400 283.956,32.040 282.653,31.486 281.499 C 28.280 274.822,26.744 271.376,26.141 269.505 C 25.768 268.347,25.238 267.040,24.964 266.600 C 24.689 266.160,24.252 264.991,23.991 264.002 C 23.730 263.013,23.175 261.536,22.758 260.718 C 22.341 259.901,21.996 258.730,21.991 258.116 C 21.986 257.502,21.643 256.251,21.227 255.337 C 20.812 254.422,20.255 252.622,19.990 251.337 C 19.725 250.051,19.279 248.550,18.998 248.000 C 18.718 247.450,18.284 245.674,18.033 244.053 C 17.783 242.433,17.393 240.761,17.167 240.339 C 16.941 239.916,16.497 237.822,16.181 235.685 C 15.864 233.548,15.344 230.540,15.024 229.000 C 14.398 225.979,13.479 216.916,12.740 206.468 C 12.390 201.521,12.390 198.414,12.742 193.668 C 13.558 182.641,14.415 174.273,15.003 171.600 C 15.318 170.170,15.851 167.087,16.187 164.749 C 16.524 162.411,17.047 159.891,17.348 159.149 C 17.650 158.407,18.018 156.841,18.166 155.670 C 18.314 154.498,18.788 152.646,19.218 151.555 C 19.648 150.463,20.000 149.212,20.000 148.773 C 20.000 148.335,20.450 146.907,21.000 145.600 C 21.550 144.293,22.001 142.814,22.002 142.312 C 22.004 141.810,22.276 140.880,22.607 140.245 C 22.939 139.610,23.502 138.080,23.860 136.845 C 24.218 135.610,24.846 133.973,25.255 133.206 C 25.665 132.439,26.000 131.607,26.000 131.357 C 26.000 130.793,27.242 127.778,28.784 124.600 C 31.398 119.209,32.800 116.119,32.800 115.743 C 32.800 115.234,35.105 110.715,35.515 110.422 C 35.686 110.300,36.434 108.940,37.178 107.400 C 37.922 105.860,38.656 104.510,38.809 104.400 C 38.963 104.290,39.389 103.613,39.756 102.896 C 40.124 102.179,40.964 100.829,41.624 99.896 C 43.033 97.905,45.408 94.275,46.746 92.069 C 47.266 91.211,48.486 89.632,49.456 88.560 C 50.426 87.488,52.010 85.439,52.975 84.006 C 53.940 82.573,55.306 80.860,56.011 80.200 C 56.716 79.540,58.242 77.830,59.401 76.400 C 61.964 73.239,71.609 63.494,75.425 60.213 C 76.951 58.899,79.213 56.919,80.452 55.813 C 81.690 54.706,83.812 52.990,85.166 52.000 C 88.627 49.469,90.879 47.719,91.727 46.901 C 92.449 46.204,93.832 45.389,96.286 44.216 C 96.993 43.878,97.764 43.241,98.000 42.801 C 98.235 42.360,98.678 42.000,98.983 42.000 C 99.289 42.000,100.073 41.550,100.727 41.000 C 101.381 40.450,102.182 40.000,102.509 40.000 C 102.835 40.000,103.349 39.701,103.651 39.335 C 103.953 38.970,105.100 38.250,106.200 37.736 C 108.361 36.726,109.111 36.289,111.073 34.901 C 111.774 34.405,112.476 34.000,112.633 34.000 C 112.791 34.000,113.928 33.523,115.160 32.940 C 118.861 31.190,126.530 27.530,127.600 27.005 C 128.150 26.735,129.484 26.298,130.565 26.035 C 131.646 25.771,132.975 25.206,133.519 24.778 C 134.063 24.350,134.759 24.000,135.066 24.000 C 135.373 24.000,136.693 23.550,138.000 23.000 C 139.307 22.450,140.973 22.000,141.703 22.000 C 142.433 22.000,143.744 21.629,144.615 21.175 C 145.487 20.722,147.230 20.179,148.489 19.968 C 149.748 19.758,151.368 19.244,152.089 18.826 C 152.817 18.404,154.646 17.942,156.200 17.787 C 157.740 17.634,159.540 17.191,160.200 16.802 C 160.863 16.411,162.652 15.987,164.200 15.854 C 165.740 15.722,167.900 15.435,169.000 15.217 C 172.123 14.598,183.814 13.185,187.800 12.945 C 189.780 12.826,192.390 12.587,193.600 12.413 C 196.783 11.957,202.530 11.942,206.210 12.380 " stroke="none" fill="#f3f3f3" fill-rule="evenodd"></path><path id="path4" d="M197.700 12.296 C 198.965 12.375,201.035 12.375,202.300 12.296 C 203.565 12.216,202.530 12.151,200.000 12.151 C 197.470 12.151,196.435 12.216,197.700 12.296 M213.700 13.076 C 214.085 13.176,214.715 13.176,215.100 13.076 C 215.485 12.975,215.170 12.893,214.400 12.893 C 213.630 12.893,213.315 12.975,213.700 13.076 M160.800 16.395 C 160.391 16.655,160.710 16.699,161.800 16.532 C 163.777 16.229,164.114 15.998,162.567 16.006 C 161.925 16.009,161.130 16.184,160.800 16.395 M238.100 16.276 C 238.485 16.376,239.115 16.376,239.500 16.276 C 239.885 16.175,239.570 16.093,238.800 16.093 C 238.030 16.093,237.715 16.175,238.100 16.276 M138.000 23.000 C 137.450 23.314,137.180 23.572,137.400 23.572 C 137.620 23.572,138.250 23.314,138.800 23.000 C 139.350 22.686,139.620 22.428,139.400 22.428 C 139.180 22.428,138.550 22.686,138.000 23.000 M296.088 39.013 C 296.686 39.643,297.247 40.077,297.335 39.979 C 297.423 39.880,296.933 39.365,296.247 38.834 L 295.000 37.869 296.088 39.013 M199.905 87.483 C 200.402 87.579,201.122 87.575,201.505 87.475 C 201.887 87.375,201.480 87.296,200.600 87.301 C 199.720 87.305,199.407 87.387,199.905 87.483 M214.100 88.276 C 214.485 88.376,215.115 88.376,215.500 88.276 C 215.885 88.175,215.570 88.093,214.800 88.093 C 214.030 88.093,213.715 88.175,214.100 88.276 M174.900 90.276 C 175.285 90.376,175.915 90.376,176.300 90.276 C 176.685 90.175,176.370 90.093,175.600 90.093 C 174.830 90.093,174.515 90.175,174.900 90.276 M202.732 165.521 C 199.571 165.725,199.798 162.898,199.815 201.862 C 199.828 234.556,199.874 236.846,200.527 237.499 C 201.184 238.155,204.156 238.197,250.397 238.203 C 287.209 238.208,299.686 238.326,300.034 238.674 C 300.627 239.267,299.896 243.705,298.730 246.600 C 298.287 247.700,297.759 249.279,297.558 250.109 C 297.357 250.939,296.834 252.286,296.396 253.103 C 295.958 253.920,295.600 254.902,295.600 255.285 C 295.600 255.916,293.974 259.515,292.294 262.600 C 291.935 263.260,291.543 264.070,291.423 264.400 C 291.303 264.730,290.674 265.900,290.026 267.000 C 289.378 268.100,288.556 269.509,288.198 270.131 C 287.534 271.286,284.907 274.838,284.450 275.200 C 284.311 275.310,283.658 276.196,282.999 277.168 C 280.698 280.562,268.822 292.000,267.600 292.000 C 267.421 292.000,266.311 292.784,265.135 293.742 C 263.959 294.700,262.616 295.604,262.151 295.752 C 261.686 295.900,260.984 296.376,260.591 296.810 C 260.198 297.245,259.713 297.600,259.513 297.600 C 258.933 297.600,253.894 300.074,252.846 300.873 C 252.321 301.273,251.630 301.600,251.309 301.600 C 250.989 301.600,250.275 301.955,249.723 302.389 C 249.170 302.824,248.062 303.298,247.259 303.443 C 246.457 303.589,245.064 304.134,244.165 304.654 C 243.266 305.174,242.128 305.600,241.636 305.600 C 241.145 305.600,239.990 306.029,239.071 306.552 C 238.152 307.076,236.542 307.613,235.493 307.746 C 234.444 307.878,233.094 308.241,232.493 308.551 C 231.892 308.862,229.854 309.305,227.964 309.536 C 226.074 309.766,223.824 310.222,222.964 310.549 C 216.580 312.972,185.210 312.778,178.600 310.275 C 177.720 309.942,176.100 309.573,175.000 309.455 C 173.900 309.337,172.287 308.872,171.415 308.421 C 170.544 307.969,169.125 307.600,168.263 307.600 C 167.400 307.600,166.133 307.255,165.447 306.834 C 164.761 306.412,163.480 305.936,162.600 305.776 C 161.720 305.616,160.491 305.061,159.869 304.542 C 159.247 304.024,158.347 303.599,157.869 303.599 C 157.391 303.598,156.460 303.274,155.800 302.880 C 155.140 302.486,153.835 301.939,152.900 301.665 C 151.965 301.392,151.200 300.989,151.200 300.770 C 151.200 300.551,150.432 300.043,149.494 299.640 C 148.556 299.238,147.544 298.615,147.245 298.255 C 146.947 297.895,146.378 297.600,145.982 297.600 C 145.586 297.600,144.727 297.150,144.073 296.600 C 143.419 296.050,142.669 295.600,142.406 295.600 C 141.946 295.600,141.083 295.008,138.285 292.773 C 137.578 292.209,136.100 291.133,135.000 290.382 C 131.173 287.770,121.210 278.520,117.776 274.391 C 117.323 273.846,115.973 272.227,114.776 270.792 C 113.579 269.358,111.610 266.588,110.400 264.636 C 109.190 262.685,107.705 260.504,107.100 259.791 C 106.495 259.078,106.000 258.214,106.000 257.871 C 106.000 257.528,105.821 257.137,105.602 257.001 C 105.383 256.866,104.394 255.078,103.403 253.027 C 102.412 250.977,101.331 249.075,101.001 248.801 C 100.670 248.526,100.400 248.027,100.400 247.691 C 100.400 247.355,99.965 246.162,99.434 245.040 C 98.903 243.918,97.896 241.470,97.197 239.600 C 96.497 237.730,95.765 236.032,95.569 235.827 C 94.961 235.188,94.642 235.954,95.122 236.901 C 95.373 237.395,95.833 238.520,96.144 239.400 C 97.648 243.650,99.044 246.987,100.244 249.200 C 100.542 249.750,101.073 250.814,101.425 251.564 C 102.429 253.706,106.058 260.095,106.899 261.200 C 107.317 261.750,108.365 263.280,109.228 264.600 C 111.688 268.364,111.997 268.781,115.152 272.600 C 120.742 279.365,129.318 287.509,135.358 291.788 C 136.591 292.661,137.600 293.504,137.600 293.661 C 137.600 293.818,138.005 294.069,138.500 294.219 C 138.995 294.369,139.760 294.810,140.200 295.199 C 140.640 295.588,141.540 296.210,142.200 296.581 C 142.860 296.952,144.120 297.687,145.000 298.215 C 148.750 300.466,156.441 304.400,157.092 304.400 C 157.371 304.400,158.455 304.836,159.500 305.369 C 162.204 306.749,166.658 308.398,167.708 308.409 C 168.199 308.414,169.358 308.761,170.283 309.182 C 171.209 309.602,172.829 310.062,173.883 310.205 C 174.938 310.347,176.880 310.793,178.200 311.195 C 179.520 311.597,182.580 312.139,185.000 312.399 C 187.420 312.660,190.198 313.044,191.173 313.254 C 194.074 313.879,207.707 313.749,211.800 313.058 C 213.780 312.724,217.200 312.326,219.400 312.175 C 221.600 312.023,224.210 311.587,225.200 311.207 C 226.190 310.826,228.130 310.401,229.510 310.262 C 230.891 310.124,232.560 309.731,233.220 309.390 C 233.880 309.048,235.432 308.582,236.670 308.353 C 237.907 308.124,239.565 307.591,240.354 307.169 C 241.143 306.746,242.079 306.400,242.435 306.400 C 242.790 306.400,243.888 305.971,244.875 305.446 C 245.861 304.922,247.259 304.363,247.980 304.204 C 248.702 304.046,250.396 303.309,251.746 302.567 C 253.096 301.824,255.100 300.753,256.200 300.187 C 260.163 298.146,260.612 297.886,261.400 297.178 C 261.840 296.783,262.695 296.336,263.300 296.186 C 263.905 296.036,264.400 295.762,264.400 295.578 C 264.400 295.394,265.435 294.569,266.700 293.746 C 272.750 289.808,283.469 278.923,287.523 272.600 C 288.229 271.500,288.985 270.330,289.203 270.000 C 290.593 267.904,292.086 265.387,292.593 264.284 C 292.918 263.578,293.348 262.730,293.549 262.400 C 294.607 260.662,296.400 256.698,296.401 256.094 C 296.402 255.712,296.741 254.845,297.155 254.167 C 297.569 253.488,298.039 252.318,298.199 251.567 C 298.360 250.815,298.921 249.170,299.446 247.912 C 299.971 246.654,300.400 245.085,300.400 244.427 C 300.400 243.768,300.766 242.301,301.214 241.165 C 301.961 239.270,301.976 239.023,301.404 238.151 L 300.782 237.200 251.291 237.194 C 224.071 237.191,201.577 237.046,201.304 236.873 C 200.788 236.545,200.504 167.603,201.015 166.776 C 201.442 166.085,375.407 166.286,375.981 166.977 C 376.796 167.960,377.547 172.051,377.827 177.033 C 377.974 179.655,378.549 183.870,379.104 186.400 C 381.043 195.230,380.778 215.549,378.589 225.888 C 378.273 227.380,377.905 230.580,377.772 233.000 C 377.638 235.420,377.206 238.660,376.812 240.200 C 376.418 241.740,375.976 244.241,375.830 245.759 C 375.685 247.276,375.215 249.515,374.787 250.734 C 374.358 251.953,373.901 253.862,373.771 254.975 C 373.641 256.089,373.269 257.704,372.944 258.565 C 372.620 259.425,372.182 261.045,371.971 262.165 C 371.760 263.284,371.254 265.100,370.847 266.200 C 369.927 268.683,368.599 272.644,367.626 275.800 C 367.220 277.120,366.599 278.740,366.246 279.400 C 365.893 280.060,365.607 280.780,365.609 281.000 C 365.612 281.220,364.732 283.380,363.654 285.800 C 362.577 288.220,361.495 290.650,361.250 291.200 C 361.006 291.750,360.643 292.470,360.445 292.800 C 360.246 293.130,359.310 294.930,358.364 296.800 C 355.976 301.522,354.702 303.815,351.885 308.459 C 350.669 310.464,347.798 314.797,346.922 315.949 C 346.525 316.471,345.930 317.299,345.600 317.790 C 343.824 320.428,343.163 321.302,340.448 324.600 C 334.624 331.675,326.798 339.965,324.500 341.494 C 324.005 341.823,323.600 342.315,323.600 342.587 C 323.600 342.859,321.692 344.594,319.360 346.441 C 317.029 348.289,314.014 350.712,312.660 351.827 C 311.307 352.942,309.930 353.981,309.600 354.134 C 309.270 354.288,308.280 354.956,307.400 355.618 C 306.520 356.280,304.720 357.524,303.400 358.381 C 302.080 359.239,300.550 360.289,300.000 360.714 C 299.450 361.140,298.550 361.624,298.000 361.791 C 297.450 361.958,296.697 362.360,296.328 362.684 C 295.606 363.317,294.177 364.143,291.000 365.762 C 289.900 366.322,288.730 366.950,288.400 367.158 C 287.329 367.831,283.826 369.484,282.800 369.801 C 282.250 369.971,281.371 370.445,280.846 370.855 C 280.321 371.265,279.600 371.600,279.243 371.600 C 278.886 371.600,277.785 372.028,276.797 372.551 C 275.809 373.074,274.370 373.633,273.600 373.794 C 272.830 373.955,271.660 374.407,271.000 374.800 C 270.340 375.193,269.193 375.642,268.451 375.799 C 267.708 375.957,266.538 376.407,265.851 376.800 C 265.163 377.193,263.700 377.640,262.600 377.792 C 261.500 377.945,260.060 378.391,259.400 378.784 C 258.740 379.176,257.267 379.601,256.127 379.727 C 254.987 379.853,253.366 380.307,252.523 380.737 C 251.681 381.167,249.914 381.641,248.596 381.790 C 247.278 381.940,245.390 382.314,244.400 382.621 C 243.410 382.929,240.931 383.447,238.891 383.772 C 236.851 384.098,234.990 384.483,234.756 384.627 C 231.540 386.615,193.518 387.724,180.800 386.201 C 178.270 385.898,174.850 385.527,173.200 385.376 C 171.550 385.225,169.286 384.864,168.168 384.573 C 167.050 384.283,165.160 383.930,163.968 383.789 C 162.776 383.647,160.720 383.201,159.400 382.797 C 158.080 382.393,155.920 381.942,154.600 381.795 C 153.280 381.648,151.638 381.184,150.952 380.763 C 150.265 380.343,148.825 379.886,147.752 379.748 C 146.678 379.610,145.239 379.160,144.553 378.748 C 143.867 378.337,142.787 377.998,142.153 377.996 C 141.519 377.994,140.037 377.544,138.860 376.996 C 137.683 376.448,136.405 376.000,136.020 376.000 C 135.634 376.000,134.512 375.571,133.525 375.046 C 132.539 374.522,131.117 373.962,130.366 373.803 C 129.615 373.643,128.370 373.190,127.600 372.795 C 125.002 371.461,120.853 369.600,120.479 369.600 C 120.275 369.600,119.664 369.251,119.122 368.825 C 118.580 368.398,117.611 367.924,116.968 367.771 C 116.326 367.618,115.530 367.260,115.200 366.975 C 114.870 366.690,113.790 366.077,112.800 365.612 C 111.810 365.146,110.280 364.326,109.400 363.789 C 108.520 363.251,107.077 362.474,106.194 362.060 C 105.311 361.647,104.344 361.015,104.045 360.655 C 103.747 360.295,103.290 360.000,103.031 360.000 C 102.771 360.000,101.488 359.281,100.180 358.402 C 96.631 356.018,95.950 355.566,94.205 354.434 C 93.328 353.865,91.191 352.320,89.456 351.000 C 87.722 349.680,85.919 348.334,85.451 348.008 C 80.366 344.474,65.548 330.607,60.800 324.939 C 59.370 323.232,57.776 321.377,57.258 320.818 C 54.699 318.054,49.682 311.511,46.094 306.256 C 40.832 298.551,39.804 296.845,34.187 286.496 C 32.904 284.132,32.567 283.788,32.275 284.548 C 32.149 284.878,32.370 285.565,32.767 286.074 C 33.165 286.584,33.631 287.450,33.803 288.000 C 33.974 288.550,34.519 289.540,35.013 290.200 C 35.508 290.860,36.517 292.540,37.256 293.933 C 37.995 295.327,38.951 297.127,39.379 297.933 C 39.808 298.740,40.483 299.749,40.879 300.175 C 41.276 300.602,41.600 301.118,41.600 301.323 C 41.600 301.527,42.095 302.282,42.700 303.001 C 43.305 303.720,44.391 305.291,45.113 306.493 C 45.836 307.695,47.186 309.599,48.113 310.725 C 50.372 313.464,52.908 316.774,53.400 317.625 C 54.911 320.238,69.483 335.439,75.808 341.000 C 77.560 342.540,79.447 344.268,80.001 344.841 C 80.556 345.413,81.548 346.164,82.205 346.510 C 82.862 346.856,84.203 347.873,85.184 348.770 C 86.165 349.666,87.076 350.400,87.209 350.400 C 87.341 350.400,87.878 350.805,88.403 351.300 C 88.928 351.795,89.750 352.470,90.231 352.800 C 93.082 354.758,95.648 356.400,95.855 356.400 C 95.987 356.400,96.697 356.895,97.432 357.500 C 100.142 359.727,101.092 360.358,102.134 360.619 C 102.720 360.766,103.200 361.039,103.200 361.225 C 103.200 361.410,104.685 362.309,106.500 363.221 C 108.315 364.134,110.122 365.222,110.516 365.640 C 110.909 366.058,111.570 366.400,111.985 366.400 C 112.399 366.400,113.273 366.850,113.927 367.400 C 114.581 367.950,115.423 368.400,115.799 368.400 C 116.175 368.400,117.319 368.834,118.341 369.364 C 119.363 369.895,120.650 370.523,121.200 370.761 C 121.750 370.999,122.470 371.361,122.800 371.566 C 124.206 372.436,128.809 374.401,129.475 374.416 C 129.874 374.425,131.190 374.965,132.400 375.616 C 133.610 376.267,134.875 376.800,135.211 376.800 C 135.547 376.800,136.186 377.055,136.631 377.367 C 137.077 377.679,138.698 378.194,140.234 378.512 C 141.770 378.830,143.597 379.385,144.294 379.745 C 144.990 380.105,146.064 380.402,146.680 380.404 C 147.296 380.406,148.700 380.826,149.800 381.338 C 150.900 381.850,152.810 382.386,154.044 382.531 C 155.278 382.676,156.988 383.087,157.844 383.446 C 158.700 383.805,160.691 384.260,162.269 384.457 C 163.846 384.654,165.736 385.064,166.469 385.369 C 167.201 385.675,169.690 386.049,172.000 386.201 C 174.310 386.353,177.640 386.840,179.400 387.284 C 183.840 388.404,218.577 388.515,221.600 387.419 C 222.697 387.021,225.664 386.632,229.200 386.423 C 232.896 386.204,235.532 385.851,236.466 385.449 C 237.272 385.102,239.252 384.626,240.866 384.392 C 242.480 384.158,244.520 383.721,245.400 383.421 C 246.280 383.122,247.945 382.778,249.100 382.657 C 250.254 382.536,252.045 382.063,253.080 381.606 C 254.114 381.148,256.076 380.616,257.439 380.423 C 258.803 380.230,260.342 379.803,260.859 379.474 C 261.377 379.146,262.595 378.749,263.566 378.592 C 264.537 378.436,266.139 377.878,267.125 377.354 C 268.112 376.829,269.168 376.400,269.473 376.400 C 269.777 376.400,270.915 375.950,272.000 375.400 C 273.085 374.850,274.519 374.400,275.187 374.400 C 275.888 374.400,276.756 374.044,277.245 373.555 C 277.709 373.091,278.741 372.531,279.538 372.311 C 280.335 372.091,281.420 371.571,281.948 371.155 C 282.476 370.740,283.326 370.400,283.836 370.400 C 284.347 370.400,285.428 369.950,286.238 369.400 C 287.049 368.850,287.976 368.400,288.298 368.400 C 288.621 368.400,289.419 367.950,290.073 367.400 C 290.727 366.850,291.576 366.400,291.961 366.400 C 292.346 366.400,293.083 365.950,293.600 365.400 C 294.117 364.850,294.887 364.400,295.312 364.400 C 295.737 364.400,296.619 363.950,297.273 363.400 C 297.927 362.850,298.696 362.400,298.982 362.400 C 299.268 362.400,299.737 362.117,300.024 361.771 C 300.311 361.425,301.189 360.792,301.973 360.364 C 302.758 359.936,304.210 358.962,305.200 358.200 C 306.190 357.438,307.659 356.456,308.464 356.017 C 309.269 355.579,310.748 354.510,311.751 353.642 C 312.755 352.774,314.886 351.065,316.488 349.846 C 323.611 344.421,339.965 327.707,342.236 323.530 C 342.436 323.162,343.372 321.992,344.317 320.930 C 345.261 319.869,347.079 317.380,348.357 315.400 C 349.636 313.420,351.068 311.457,351.541 311.038 C 352.013 310.619,352.400 310.073,352.400 309.825 C 352.400 309.576,353.041 308.389,353.824 307.187 C 354.607 305.984,355.514 304.377,355.839 303.615 C 356.164 302.853,356.680 301.953,356.985 301.615 C 357.726 300.793,359.758 296.896,361.257 293.421 C 362.492 290.558,364.970 285.172,365.635 283.905 C 365.836 283.523,366.000 282.965,366.000 282.665 C 366.000 282.365,366.450 281.273,367.000 280.238 C 367.550 279.204,368.000 278.050,368.000 277.673 C 368.000 277.296,368.326 276.361,368.724 275.594 C 369.122 274.827,370.034 272.310,370.750 270.000 C 371.466 267.690,372.415 264.720,372.859 263.400 C 373.303 262.080,373.844 260.010,374.060 258.800 C 374.277 257.590,374.730 255.430,375.068 254.000 C 377.165 245.119,377.693 242.341,378.377 236.567 C 378.938 231.831,379.418 229.456,380.194 227.567 C 381.555 224.255,381.739 221.235,381.736 202.200 L 381.734 187.400 380.441 184.001 C 379.538 181.630,379.096 179.695,378.976 177.601 C 378.571 170.502,377.698 166.704,376.292 165.925 C 375.488 165.480,209.359 165.093,202.732 165.521 " stroke="none" fill="#91c0d5" fill-rule="evenodd"></path></g></svg>