<svg id="svg" version="1.1" xmlns="http://www.w3.org/2000/svg" xmlns:xlink="http://www.w3.org/1999/xlink" width="400" height="477" viewBox="0, 0, 400,477"><g id="svgg"><path id="path0" d="M189.833 0.223 C 157.581 4.185,137.251 25.392,133.168 59.333 C 131.579 72.546,132.341 109.423,134.873 141.833 C 136.625 164.272,135.694 167.654,124.169 180.696 C 91.867 217.250,89.232 221.297,83.161 243.667 C 78.776 259.823,74.706 269.557,63.162 291.500 C 52.883 311.038,51.862 316.505,56.045 329.583 C 57.225 333.272,56.767 333.218,59.906 330.044 C 65.762 324.122,72.509 323.457,80.222 328.041 C 87.094 332.125,101.510 352.018,117.999 380.167 C 123.918 390.272,130.356 400.114,131.564 400.906 C 132.861 401.756,139.271 401.925,141.861 401.177 C 152.624 398.070,154.768 386.722,146.593 376.126 C 144.078 372.867,139.229 368.478,131.243 362.234 C 122.077 355.066,115.300 349.438,106.713 341.861 C 97.180 333.449,96.648 333.000,96.223 333.000 C 92.882 332.997,88.150 328.353,83.996 321.000 C 82.696 318.699,81.404 317.020,79.270 314.860 C 75.704 311.249,75.677 311.073,78.173 307.803 C 80.616 304.601,80.817 303.539,80.841 293.667 C 80.869 282.320,80.629 283.289,88.140 264.213 C 93.920 249.533,96.488 244.954,102.979 237.750 C 106.490 233.855,107.492 232.981,105.657 235.417 C 98.418 245.025,86.547 269.238,83.880 279.833 C 79.285 298.093,82.768 319.524,91.681 327.833 L 92.754 328.833 92.541 325.833 C 90.658 299.316,101.744 262.455,120.511 232.833 L 123.257 228.500 123.434 222.667 C 123.843 209.276,126.515 203.224,141.682 181.333 C 147.634 172.742,148.523 169.848,149.157 157.000 C 149.405 151.958,149.716 147.564,149.846 147.234 C 150.117 146.551,149.875 146.321,146.652 144.197 C 142.478 141.446,142.005 140.337,142.981 135.595 C 144.024 130.524,144.974 128.784,149.031 124.513 L 151.284 122.141 149.661 120.527 C 145.037 115.932,142.653 105.979,142.671 91.350 C 142.708 62.068,172.583 66.367,176.045 96.152 L 176.445 99.597 174.023 103.155 C 171.204 107.297,171.202 107.207,174.082 106.162 C 181.747 103.379,189.442 103.140,196.447 105.465 L 199.728 106.554 199.538 105.605 C 198.554 100.685,192.365 94.768,187.206 93.815 C 185.369 93.476,186.535 92.867,188.434 93.173 C 190.638 93.530,192.505 94.489,194.346 96.210 C 195.993 97.751,196.038 97.770,195.773 96.817 C 193.418 88.335,198.487 76.896,207.123 71.203 C 217.145 64.598,229.278 67.979,235.970 79.243 C 242.809 90.755,242.059 110.189,234.450 118.652 L 232.987 120.279 234.910 121.157 C 237.206 122.206,238.891 123.745,239.178 125.054 C 239.294 125.578,239.631 126.493,239.928 127.087 C 240.756 128.744,240.800 131.473,240.054 134.833 C 239.687 136.483,239.213 139.033,239.000 140.500 C 238.787 141.967,238.333 143.649,237.991 144.239 L 237.369 145.312 238.805 148.406 C 239.596 150.108,241.118 153.675,242.188 156.333 C 243.259 158.992,246.565 166.004,249.535 171.916 C 258.773 190.301,263.087 202.314,265.190 215.500 L 265.775 219.167 267.998 221.667 C 290.291 246.734,297.629 279.116,291.981 327.500 C 291.617 330.617,291.285 333.608,291.243 334.148 C 291.167 335.119,291.193 335.134,293.623 335.549 C 296.643 336.065,296.483 335.871,295.821 338.214 C 294.327 343.507,294.921 353.424,297.002 357.920 C 301.608 367.869,316.944 370.656,330.549 364.017 C 340.255 359.281,349.005 350.302,351.686 342.328 C 352.528 339.824,352.551 339.795,353.447 340.094 C 354.891 340.575,355.177 340.247,356.275 336.855 C 363.552 314.375,361.989 290.928,351.019 258.000 C 342.528 232.514,334.211 217.703,319.478 201.829 C 303.260 184.356,290.714 165.261,283.563 147.167 C 277.753 132.466,276.006 120.609,275.999 95.833 C 275.991 68.149,274.208 57.362,267.347 43.500 C 255.188 18.935,234.572 3.943,208.233 0.512 C 204.648 0.045,192.796 -0.141,189.833 0.223 M230.551 23.505 C 232.446 24.449,237.264 28.770,238.311 30.465 C 239.858 32.966,239.126 34.449,235.434 36.293 C 234.298 36.861,232.442 37.924,231.311 38.655 C 226.314 41.884,225.157 41.019,224.862 33.833 C 224.765 31.450,224.597 28.600,224.491 27.500 C 224.089 23.358,226.743 21.607,230.551 23.505 M233.684 64.342 C 235.448 65.242,237.111 67.504,236.646 68.371 C 236.210 69.187,235.910 69.164,234.410 68.203 C 230.421 65.646,229.804 62.363,233.684 64.342 M167.305 65.652 C 169.044 66.540,171.080 69.000,170.074 69.000 C 169.400 69.000,166.512 66.602,165.960 65.583 C 165.558 64.842,165.735 64.851,167.305 65.652 M214.627 85.444 C 205.640 88.779,202.773 105.464,210.085 111.883 C 219.428 120.087,231.387 113.884,231.387 100.833 C 231.387 90.658,222.519 82.515,214.627 85.444 M154.104 86.961 C 146.013 90.756,147.985 109.561,156.988 114.461 L 158.722 115.405 159.944 114.371 C 160.617 113.802,162.621 112.351,164.398 111.147 L 167.628 108.957 168.023 107.062 C 170.360 95.846,161.730 83.384,154.104 86.961 M222.594 90.516 C 225.274 91.633,226.333 93.158,226.333 95.901 C 226.333 97.239,226.202 98.333,226.042 98.333 C 224.282 98.333,218.446 91.499,219.185 90.303 C 219.475 89.835,221.220 89.944,222.594 90.516 M160.808 91.467 C 163.068 92.792,164.537 96.530,163.225 97.619 C 162.601 98.136,157.667 93.028,157.667 91.865 C 157.667 90.479,158.863 90.328,160.808 91.467 M263.333 145.067 C 264.892 146.077,267.217 147.483,268.500 148.192 C 271.683 149.952,273.524 151.905,274.204 154.247 C 275.669 159.285,272.132 164.518,268.053 163.349 C 264.462 162.319,263.006 160.493,257.272 149.833 C 255.737 146.979,255.554 144.855,256.750 143.767 C 258.321 142.338,259.472 142.565,263.333 145.067 M297.547 232.186 C 312.127 240.766,320.834 253.755,323.163 270.398 C 325.128 284.444,323.745 293.474,316.587 313.333 C 313.849 320.930,314.354 319.985,312.907 320.219 L 311.731 320.410 314.018 313.622 C 327.003 275.066,321.345 249.192,296.333 232.751 C 293.675 231.004,291.350 229.434,291.167 229.263 C 290.391 228.540,294.725 230.525,297.547 232.186 M299.500 246.298 C 303.760 248.978,308.667 254.720,308.667 257.026 C 308.667 259.175,307.457 259.731,303.920 259.207 C 302.379 258.979,301.429 259.066,299.047 259.655 C 293.935 260.918,293.068 260.309,295.155 256.917 C 295.803 255.862,296.858 254.146,297.500 253.103 C 298.791 251.003,298.958 249.675,298.167 247.782 C 297.249 245.586,297.654 245.137,299.500 246.298 M310.766 321.210 C 311.533 321.977,309.694 323.227,305.904 324.513 C 303.049 325.482,303.138 325.470,303.690 324.805 C 305.051 323.165,310.137 320.582,310.766 321.210 M339.770 324.317 C 347.234 326.226,351.460 331.554,348.335 335.114 C 346.139 337.615,344.450 337.520,342.500 334.784 C 341.345 333.164,339.660 331.511,334.394 326.833 C 331.093 323.902,333.585 322.735,339.770 324.317 M261.487 393.929 C 243.343 411.805,231.733 420.175,217.737 425.469 C 195.963 433.705,168.940 432.276,148.255 421.793 C 147.342 421.331,146.650 421.076,146.717 421.226 C 146.785 421.377,147.695 423.225,148.741 425.333 C 152.861 433.641,153.977 442.073,152.028 450.165 C 151.245 453.414,150.934 453.188,155.055 452.368 C 182.181 446.971,218.333 449.033,254.833 458.058 L 263.167 460.119 264.138 462.143 C 267.035 468.176,275.990 473.854,286.296 476.192 C 290.110 477.057,300.053 477.389,300.500 476.667 C 300.621 476.470,300.253 476.333,299.603 476.333 C 298.146 476.333,293.753 475.407,292.867 474.914 C 292.482 474.699,292.054 474.500,291.917 474.470 C 291.779 474.441,291.554 474.380,291.417 474.336 C 291.279 474.291,291.054 474.272,290.917 474.294 C 290.779 474.316,290.667 474.167,290.667 473.964 C 290.667 473.761,290.451 473.678,290.188 473.779 C 289.925 473.880,289.663 473.852,289.605 473.717 C 289.547 473.581,288.675 473.127,287.667 472.706 C 286.658 472.285,284.858 471.373,283.667 470.678 C 282.475 469.983,280.300 468.810,278.833 468.071 C 273.582 465.426,267.455 460.288,264.639 456.167 C 264.012 455.250,263.375 454.408,263.222 454.296 C 263.068 454.184,262.957 453.959,262.974 453.796 C 262.991 453.633,262.817 453.264,262.586 452.976 C 260.631 450.535,261.406 439.209,264.993 417.833 C 267.735 401.488,269.632 386.615,268.966 386.679 C 268.893 386.687,265.528 389.949,261.487 393.929 M149.979 456.388 C 149.754 456.816,149.129 457.729,148.590 458.417 C 148.052 459.104,147.676 459.667,147.757 459.667 C 148.381 459.667,140.352 467.382,137.832 469.204 C 136.086 470.467,134.247 471.803,133.745 472.174 C 133.244 472.544,132.158 473.344,131.333 473.950 C 129.952 474.965,129.913 475.032,130.833 474.803 C 135.987 473.521,143.469 467.754,147.229 462.167 C 148.791 459.846,150.784 456.006,150.549 455.771 C 150.460 455.682,150.203 455.960,149.979 456.388 M302.167 476.333 L 301.167 476.588 302.064 476.627 C 302.557 476.649,303.053 476.517,303.167 476.333 C 303.280 476.150,303.326 476.018,303.270 476.039 C 303.213 476.061,302.717 476.193,302.167 476.333 " stroke="none" fill="#0a0908" fill-rule="evenodd"></path><path id="path1" d="M180.833 104.479 C 171.907 106.205,161.584 111.818,156.576 117.668 C 155.974 118.372,154.656 119.597,153.647 120.391 C 152.639 121.184,151.106 122.599,150.240 123.535 L 148.667 125.236 148.668 128.035 C 148.668 129.574,148.766 133.393,148.884 136.521 L 149.100 142.210 150.433 142.977 C 151.166 143.399,153.253 144.850,155.069 146.202 C 164.213 153.007,173.086 154.192,189.568 150.810 C 201.793 148.301,212.274 142.636,223.167 132.651 C 227.292 128.869,230.333 127.732,230.333 129.973 C 230.333 131.578,230.009 131.986,227.875 133.061 C 224.536 134.744,222.395 136.239,218.233 139.793 C 211.418 145.614,205.671 148.921,198.276 151.277 C 191.366 153.479,181.258 155.243,173.238 155.648 C 167.049 155.961,167.216 155.880,169.181 157.610 C 171.338 159.508,173.192 160.333,175.299 160.333 C 176.377 160.333,178.103 160.703,179.777 161.291 C 187.978 164.175,199.076 164.057,209.502 160.975 C 211.411 160.411,212.744 159.626,216.809 156.674 C 222.285 152.696,225.921 150.564,229.566 149.191 C 232.735 147.999,238.995 141.379,239.002 139.213 C 239.004 138.821,239.313 137.225,239.690 135.667 C 242.065 125.843,239.493 122.113,228.434 119.345 C 221.577 117.629,215.345 115.095,207.146 110.691 C 195.473 104.420,189.019 102.897,180.833 104.479 M195.083 109.684 C 195.770 109.875,196.745 110.394,197.249 110.838 L 198.167 111.646 194.624 111.656 C 191.919 111.664,190.986 111.552,190.679 111.181 C 189.574 109.851,192.321 108.917,195.083 109.684 M170.667 111.855 C 170.667 113.318,170.631 113.374,169.753 113.272 C 168.595 113.139,168.443 112.375,169.345 111.228 C 170.343 109.958,170.667 110.112,170.667 111.855 M66.429 325.817 C 63.525 326.724,61.922 327.986,57.543 332.808 C 56.889 333.527,55.798 335.177,55.116 336.475 C 54.435 337.772,53.679 339.033,53.436 339.277 C 53.193 339.521,53.079 339.858,53.183 340.027 C 53.287 340.195,53.214 340.333,53.020 340.333 C 52.826 340.333,52.667 340.558,52.667 340.833 C 52.667 341.108,52.508 341.333,52.314 341.333 C 52.120 341.333,52.047 341.473,52.152 341.644 C 52.258 341.814,52.192 342.048,52.005 342.163 C 51.819 342.278,51.667 342.669,51.667 343.030 C 51.667 343.392,51.451 343.770,51.188 343.871 C 50.912 343.977,50.795 344.279,50.911 344.582 C 51.045 344.931,50.981 345.028,50.723 344.868 C 50.487 344.722,50.333 344.840,50.333 345.167 C 50.333 345.463,50.484 345.613,50.669 345.498 C 50.866 345.377,50.846 345.641,50.620 346.135 C 50.409 346.599,50.125 346.910,49.989 346.827 C 49.853 346.743,49.538 346.926,49.288 347.234 C 48.897 347.716,48.903 347.754,49.333 347.500 C 49.764 347.246,49.770 347.284,49.379 347.766 C 49.129 348.074,48.793 348.245,48.633 348.146 C 48.472 348.047,48.430 348.198,48.539 348.483 C 48.649 348.767,48.579 349.000,48.384 349.000 C 47.862 349.000,45.670 350.549,45.848 350.792 C 45.931 350.906,45.905 350.930,45.790 350.845 C 45.407 350.563,44.311 351.359,44.520 351.767 C 44.632 351.987,44.433 351.809,44.077 351.371 C 43.588 350.772,43.363 350.682,43.163 351.006 C 42.977 351.307,43.028 351.355,43.333 351.167 C 43.631 350.983,43.689 351.027,43.518 351.305 C 43.379 351.529,43.061 351.633,42.810 351.537 C 42.560 351.441,42.262 351.513,42.148 351.697 C 42.011 351.918,41.791 351.908,41.503 351.669 C 41.228 351.441,41.022 351.428,40.949 351.633 C 40.711 352.308,31.558 352.791,21.583 352.655 C 20.551 352.641,20.000 352.775,20.000 353.039 C 20.000 353.262,19.901 353.346,19.781 353.225 C 19.660 353.104,19.356 353.176,19.106 353.384 C 18.855 353.592,18.561 353.672,18.452 353.563 C 18.343 353.454,18.025 353.594,17.745 353.874 C 17.331 354.288,17.185 354.301,16.957 353.941 C 16.748 353.611,16.676 353.656,16.672 354.119 C 16.668 354.531,16.500 354.674,16.167 354.546 C 15.862 354.429,15.667 354.546,15.667 354.844 C 15.667 355.113,15.442 355.333,15.167 355.333 C 14.892 355.333,14.667 355.483,14.667 355.667 C 14.667 355.850,14.526 356.000,14.355 356.000 C 13.953 356.000,10.333 359.614,10.333 360.015 C 10.333 360.183,9.926 360.423,9.429 360.548 C 8.723 360.725,8.648 360.818,9.089 360.973 C 9.605 361.154,9.595 361.256,8.968 362.169 C 8.332 363.095,8.299 363.107,8.516 362.333 C 8.644 361.875,8.653 361.590,8.535 361.700 C 8.161 362.051,7.436 365.266,7.531 366.156 C 7.581 366.627,7.500 366.936,7.351 366.844 C 7.064 366.667,7.152 376.525,7.447 377.561 C 7.594 378.080,7.892 380.626,8.162 383.667 C 8.281 385.012,9.079 387.333,9.422 387.333 C 9.596 387.333,9.653 387.554,9.550 387.823 C 9.447 388.092,9.486 388.388,9.637 388.482 C 9.789 388.575,10.013 389.278,10.135 390.044 C 10.258 390.810,10.458 391.598,10.580 391.796 C 10.702 391.993,10.833 392.383,10.871 392.661 C 10.982 393.474,11.283 394.649,11.449 394.918 C 11.590 395.148,11.724 396.034,12.291 400.500 C 12.580 402.772,11.549 409.397,10.645 411.079 C 10.473 411.397,10.333 411.818,10.333 412.014 C 10.333 412.210,10.034 413.027,9.668 413.831 C 9.302 414.635,8.952 415.564,8.890 415.896 C 8.829 416.228,8.576 417.175,8.329 418.000 C 8.082 418.825,7.858 419.575,7.832 419.667 C 7.311 421.469,7.013 427.302,7.428 427.558 C 7.584 427.655,7.627 427.956,7.523 428.227 C 7.299 428.811,8.811 432.742,9.804 434.159 C 12.607 438.156,17.918 441.034,25.241 442.526 C 25.649 442.609,26.362 442.821,26.825 442.997 C 27.288 443.173,27.667 443.256,27.667 443.182 C 27.667 443.107,28.154 443.194,28.750 443.375 C 30.910 444.030,36.316 445.360,37.083 445.425 C 37.404 445.453,37.667 445.593,37.667 445.738 C 37.667 445.882,38.183 446.000,38.814 446.000 C 39.445 446.000,40.041 446.130,40.140 446.289 C 40.302 446.552,42.842 447.053,44.500 447.150 C 44.867 447.172,45.364 447.312,45.606 447.461 C 45.847 447.611,46.133 447.645,46.242 447.536 C 46.350 447.428,46.605 447.477,46.807 447.645 C 47.010 447.813,47.774 448.032,48.505 448.131 C 49.957 448.328,50.967 448.499,52.500 448.807 C 53.575 449.023,54.606 449.190,58.000 449.698 C 59.192 449.877,61.742 450.313,63.667 450.667 C 65.592 451.021,67.617 451.389,68.167 451.485 C 68.717 451.581,69.467 451.717,69.833 451.786 C 70.718 451.953,72.559 452.269,74.000 452.501 C 74.642 452.604,76.067 452.920,77.167 453.203 C 78.267 453.485,79.392 453.766,79.667 453.827 C 82.316 454.415,86.767 455.767,93.333 457.979 C 108.202 462.989,116.658 464.235,122.333 462.253 C 123.342 461.901,124.317 461.573,124.500 461.524 C 124.683 461.476,125.256 461.263,125.772 461.051 C 126.288 460.840,126.802 460.667,126.914 460.667 C 128.039 460.667,137.000 452.903,137.000 451.928 C 137.000 451.769,137.310 451.221,137.688 450.709 C 138.066 450.197,138.418 449.566,138.469 449.306 C 138.521 449.046,138.864 448.158,139.232 447.333 C 141.329 442.628,141.748 433.921,140.171 427.833 C 139.886 426.733,139.576 425.458,139.483 425.000 C 139.205 423.643,135.705 414.433,134.100 410.833 C 131.068 404.036,120.995 386.201,119.917 385.722 C 119.779 385.661,119.667 385.450,119.667 385.253 C 119.667 385.055,118.742 383.455,117.612 381.697 C 114.421 376.731,113.509 375.284,112.547 373.667 C 112.057 372.842,111.511 371.942,111.334 371.667 C 110.243 369.970,107.335 364.675,104.996 360.124 C 101.587 353.493,90.146 337.496,85.333 332.632 C 79.114 326.346,72.438 323.939,66.429 325.817 M276.667 334.114 C 272.601 335.039,270.980 337.073,272.291 339.605 C 272.686 340.367,272.954 347.844,273.352 369.167 C 273.538 379.067,273.808 388.817,273.954 390.833 C 274.232 394.679,274.184 408.543,273.885 410.833 C 273.789 411.567,273.627 413.217,273.524 414.500 C 273.422 415.783,273.260 417.433,273.164 418.167 C 271.577 430.348,272.777 439.568,276.701 445.333 C 278.495 447.969,281.713 451.176,282.138 450.750 C 282.246 450.643,282.333 450.739,282.333 450.963 C 282.333 451.187,283.121 451.743,284.083 452.200 C 285.046 452.656,286.058 453.156,286.333 453.310 C 287.414 453.919,291.420 455.082,292.918 455.223 C 293.788 455.305,295.325 455.451,296.333 455.548 C 297.342 455.645,298.392 455.738,298.667 455.756 C 299.366 455.800,303.296 455.374,304.500 455.124 C 305.050 455.010,305.725 454.883,306.000 454.843 C 306.275 454.802,307.325 454.522,308.333 454.219 C 309.342 453.916,310.281 453.671,310.420 453.674 C 310.560 453.677,311.103 453.458,311.628 453.187 C 312.153 452.915,312.676 452.787,312.791 452.902 C 312.906 453.017,313.000 452.954,313.000 452.761 C 313.000 452.569,313.337 452.301,313.750 452.167 C 314.162 452.033,314.575 451.883,314.667 451.833 C 314.758 451.784,315.171 451.634,315.583 451.500 C 315.996 451.365,316.333 451.139,316.333 450.997 C 316.333 450.855,316.698 450.647,317.143 450.536 C 317.589 450.424,318.151 450.143,318.393 449.912 C 318.635 449.681,319.208 449.305,319.667 449.076 C 320.125 448.847,320.950 448.366,321.500 448.007 C 322.050 447.647,322.950 447.102,323.500 446.794 C 324.050 446.487,325.100 445.765,325.833 445.191 C 326.567 444.616,328.067 443.553,329.167 442.828 C 330.267 442.102,331.242 441.427,331.333 441.327 C 331.837 440.777,334.979 438.667,335.295 438.667 C 335.499 438.667,335.668 438.554,335.669 438.417 C 335.670 438.279,336.233 437.792,336.919 437.333 C 337.605 436.875,338.457 436.238,338.813 435.917 C 339.168 435.596,339.582 435.333,339.733 435.333 C 339.884 435.333,340.718 434.838,341.587 434.233 C 346.541 430.782,352.606 428.046,362.000 425.022 C 364.475 424.225,368.150 422.988,370.167 422.273 C 372.183 421.557,373.983 420.930,374.167 420.878 C 374.350 420.827,375.081 420.533,375.791 420.226 C 376.501 419.918,377.167 419.667,377.271 419.667 C 377.634 419.667,381.837 417.497,382.274 417.083 C 382.516 416.854,382.891 416.665,383.107 416.663 C 383.323 416.661,384.352 416.024,385.392 415.246 C 386.433 414.469,387.609 413.608,388.005 413.333 C 388.794 412.786,389.329 412.316,392.895 409.036 C 395.237 406.883,396.975 405.506,397.357 405.502 C 397.462 405.501,397.811 405.237,398.133 404.914 C 398.455 404.592,399.017 404.170,399.381 403.975 C 400.365 403.448,399.529 400.418,397.833 398.371 C 396.291 396.508,395.636 395.956,391.667 393.165 C 389.375 391.554,386.825 389.697,386.000 389.038 C 369.009 375.471,365.979 371.134,365.018 359.000 C 364.138 347.891,361.223 342.765,354.485 340.478 C 352.643 339.852,352.784 339.745,351.819 342.506 C 349.064 350.391,340.571 359.182,330.936 364.122 C 327.741 365.760,326.734 366.400,325.487 367.583 C 325.245 367.813,324.952 368.000,324.835 368.000 C 324.718 368.000,324.145 368.349,323.561 368.776 C 321.882 370.004,318.446 371.374,316.830 371.460 C 316.016 371.503,315.269 371.620,315.170 371.719 C 315.071 371.818,313.980 371.709,312.745 371.478 C 309.129 370.801,308.518 370.644,308.183 370.313 C 308.009 370.141,307.613 370.000,307.302 370.000 C 306.991 370.000,306.264 369.558,305.685 369.017 C 305.106 368.476,304.340 367.941,303.983 367.828 C 303.626 367.715,303.333 367.502,303.333 367.356 C 303.333 367.210,302.941 366.699,302.462 366.220 C 301.983 365.740,301.287 364.782,300.917 364.091 C 300.546 363.399,299.680 362.193,298.991 361.411 C 295.163 357.061,293.562 346.414,295.566 338.631 L 296.219 336.096 293.026 335.549 C 283.604 333.935,279.165 333.546,276.667 334.114 " stroke="none" fill="#e7b20c" fill-rule="evenodd"></path><path id="path2" d="M226.419 23.010 C 224.995 23.582,224.273 25.262,224.491 27.500 C 224.597 28.600,224.765 31.450,224.862 33.833 C 225.157 41.019,226.314 41.884,231.311 38.655 C 232.442 37.924,234.298 36.861,235.434 36.293 C 240.444 33.790,240.341 31.876,234.928 26.847 C 231.090 23.281,228.570 22.145,226.419 23.010 M231.415 25.953 C 236.907 29.778,237.698 32.449,234.073 34.923 C 228.583 38.671,227.265 38.440,226.900 33.665 C 226.795 32.291,226.547 30.329,226.348 29.306 C 225.532 25.102,227.922 23.520,231.415 25.953 M231.156 64.367 C 230.831 65.392,234.589 69.000,235.982 69.000 C 237.782 69.000,236.090 65.570,233.684 64.342 C 232.004 63.485,231.434 63.491,231.156 64.367 M165.960 65.583 C 166.512 66.602,169.400 69.000,170.074 69.000 C 171.080 69.000,169.044 66.540,167.305 65.652 C 165.735 64.851,165.558 64.842,165.960 65.583 M234.917 66.250 C 235.099 66.797,234.055 67.188,233.607 66.740 C 233.415 66.548,233.364 66.220,233.493 66.011 C 233.788 65.534,234.731 65.693,234.917 66.250 M219.185 90.303 C 218.648 91.172,221.473 95.164,223.894 96.958 C 225.906 98.449,226.333 98.602,226.333 97.833 C 226.333 97.558,226.098 97.333,225.810 97.333 C 224.265 97.333,220.771 93.717,220.580 91.919 C 220.400 90.228,223.253 90.926,225.163 93.040 C 225.807 93.752,226.333 94.140,226.333 93.902 C 226.333 92.071,220.049 88.906,219.185 90.303 M158.083 90.887 C 157.033 91.311,157.712 92.721,160.225 95.330 C 162.998 98.210,163.667 98.357,163.667 96.088 C 163.667 93.266,160.198 90.034,158.083 90.887 M160.320 91.827 C 162.132 92.764,163.353 95.203,162.328 95.837 C 161.779 96.176,158.188 92.527,158.436 91.881 C 158.695 91.205,159.095 91.193,160.320 91.827 M186.384 93.281 C 186.063 93.494,186.302 93.648,187.217 93.817 C 190.541 94.431,195.406 97.891,197.786 101.333 C 198.103 101.792,197.943 101.352,197.431 100.355 C 195.054 95.731,188.758 91.699,186.384 93.281 M198.863 103.500 C 198.996 103.867,199.264 104.801,199.460 105.576 C 199.751 106.733,200.506 107.654,200.839 107.258 C 200.881 107.208,200.399 106.192,199.768 105.000 C 199.137 103.808,198.730 103.133,198.863 103.500 M186.254 103.902 C 186.669 103.982,187.269 103.979,187.587 103.896 C 187.906 103.812,187.567 103.747,186.833 103.751 C 186.100 103.754,185.839 103.823,186.254 103.902 M191.451 109.664 C 188.873 110.704,190.410 111.669,194.624 111.656 L 198.167 111.646 197.249 110.838 C 195.780 109.545,193.094 109.001,191.451 109.664 M169.345 111.228 C 168.443 112.375,168.595 113.139,169.753 113.272 C 170.631 113.374,170.667 113.318,170.667 111.855 C 170.667 110.112,170.343 109.958,169.345 111.228 M148.917 124.627 C 144.952 128.830,144.017 130.558,142.981 135.595 C 141.994 140.387,142.483 141.490,146.818 144.258 C 150.031 146.308,154.509 150.917,158.739 156.527 C 164.483 164.142,167.282 166.793,171.738 168.832 C 181.670 173.379,196.493 170.837,209.089 162.426 C 212.434 160.192,213.439 159.332,211.678 160.211 C 204.418 163.833,188.093 164.332,179.460 161.196 C 178.024 160.674,176.386 160.333,175.315 160.333 C 173.190 160.333,171.344 159.514,169.181 157.610 C 167.216 155.880,167.049 155.961,173.238 155.648 C 181.258 155.243,191.366 153.479,198.276 151.277 C 205.671 148.921,211.418 145.614,218.233 139.793 C 222.395 136.239,224.536 134.744,227.875 133.061 C 230.009 131.986,230.333 131.578,230.333 129.973 C 230.333 127.732,227.292 128.869,223.167 132.651 C 212.274 142.636,201.793 148.301,189.568 150.810 C 173.086 154.192,164.213 153.007,155.069 146.202 C 153.253 144.850,151.166 143.399,150.433 142.977 L 149.100 142.210 148.884 136.521 C 148.766 133.393,148.668 129.564,148.668 128.013 L 148.667 125.192 150.069 123.763 C 150.841 122.977,151.384 122.333,151.276 122.333 C 151.169 122.333,150.107 123.365,148.917 124.627 M237.674 141.725 C 237.037 142.664,235.387 144.610,234.008 146.048 C 231.522 148.642,231.547 148.884,234.167 147.588 C 236.909 146.231,238.436 144.267,238.839 141.579 C 239.132 139.622,239.098 139.626,237.674 141.725 M258.000 142.930 C 255.635 143.661,255.359 146.276,257.272 149.833 C 263.006 160.493,264.462 162.319,268.053 163.349 C 272.132 164.518,275.669 159.285,274.204 154.247 C 273.524 151.905,271.683 149.952,268.500 148.192 C 267.217 147.483,264.892 146.077,263.333 145.067 C 260.535 143.254,258.975 142.629,258.000 142.930 M262.300 145.284 C 263.364 146.010,265.618 147.384,267.307 148.337 C 272.166 151.076,273.758 153.093,273.750 156.500 C 273.734 163.003,268.074 164.741,263.799 159.555 C 262.780 158.319,257.654 149.250,257.019 147.562 C 255.604 143.794,258.370 142.601,262.300 145.284 M291.167 229.270 C 291.572 229.656,300.364 235.441,300.833 235.630 C 301.017 235.704,301.288 235.971,301.437 236.223 C 301.586 236.475,301.817 236.613,301.950 236.531 C 302.083 236.449,302.719 236.858,303.363 237.441 C 304.007 238.023,304.227 238.275,303.851 238.000 C 303.173 237.504,303.172 237.507,303.795 238.242 C 304.140 238.650,304.568 238.895,304.745 238.785 C 306.183 237.896,315.334 249.846,318.190 256.340 C 320.618 261.863,322.677 273.426,320.830 271.167 C 320.312 270.533,320.298 270.566,320.551 271.833 C 320.697 272.567,320.811 275.942,320.804 279.333 C 320.794 283.855,320.871 285.100,321.092 284.000 C 321.542 281.752,321.902 281.713,322.148 283.886 C 322.558 287.496,321.423 294.429,319.510 300.000 C 317.933 304.592,316.213 308.807,316.080 308.405 C 316.007 308.187,315.008 310.744,313.861 314.087 C 311.526 320.888,311.578 320.487,313.071 320.207 C 314.282 319.979,316.564 314.376,320.158 302.803 C 329.583 272.455,321.134 246.067,297.547 232.186 C 294.698 230.509,290.412 228.550,291.167 229.270 M102.979 237.750 C 96.488 244.954,93.920 249.533,88.140 264.213 C 80.629 283.289,80.869 282.320,80.841 293.667 C 80.817 303.539,80.616 304.601,78.173 307.803 C 75.677 311.073,75.704 311.249,79.270 314.860 C 81.404 317.020,82.696 318.699,83.996 321.000 C 88.292 328.605,90.776 331.108,95.774 332.871 L 97.112 333.343 96.473 332.635 C 96.121 332.246,94.966 331.489,93.907 330.954 C 90.661 329.314,88.338 326.555,84.825 320.167 C 83.412 317.599,81.895 315.644,79.802 313.696 C 77.480 311.535,77.393 310.846,79.137 308.419 C 81.501 305.128,81.725 304.075,81.782 295.949 C 81.810 291.979,81.956 288.904,82.105 289.115 C 82.255 289.327,82.275 289.125,82.150 288.667 C 82.025 288.208,81.909 287.758,81.893 287.667 C 81.678 286.495,83.546 278.220,83.966 278.478 C 84.076 278.546,84.200 278.140,84.241 277.576 C 84.282 277.012,84.482 276.447,84.686 276.321 C 84.890 276.195,85.062 275.959,85.068 275.796 C 85.075 275.633,85.212 275.153,85.373 274.728 C 85.535 274.304,85.667 273.771,85.667 273.545 C 85.667 273.319,85.790 272.991,85.940 272.817 C 86.281 272.422,88.123 268.007,88.222 267.350 C 88.409 266.096,89.422 264.015,89.747 264.216 C 89.958 264.347,90.006 264.279,89.864 264.049 C 88.912 262.509,99.104 242.073,100.418 242.886 C 100.625 243.013,100.671 242.943,100.530 242.716 C 100.397 242.499,100.520 242.241,100.810 242.129 C 101.096 242.020,101.252 241.805,101.158 241.652 C 101.063 241.499,101.183 241.253,101.425 241.104 C 101.666 240.955,102.590 239.783,103.479 238.500 C 104.367 237.217,105.465 235.679,105.920 235.083 C 107.574 232.913,106.280 234.087,102.979 237.750 M297.667 246.126 C 297.667 246.379,297.892 247.124,298.167 247.782 C 298.958 249.675,298.791 251.003,297.500 253.103 C 296.858 254.146,295.803 255.862,295.155 256.917 C 293.068 260.309,293.935 260.918,299.047 259.655 C 301.429 259.066,302.379 258.979,303.920 259.207 C 310.895 260.241,310.175 255.237,302.386 248.547 C 299.311 245.906,297.667 245.063,297.667 246.126 M303.491 251.417 C 308.893 256.890,309.022 258.241,304.126 258.053 C 301.898 257.967,300.478 258.115,298.382 258.652 C 294.686 259.599,294.707 259.648,297.167 255.894 C 299.363 252.543,299.843 251.218,299.604 249.169 C 299.402 247.442,299.789 247.666,303.491 251.417 M293.788 298.500 C 293.789 300.333,293.845 301.041,293.913 300.072 C 293.980 299.104,293.980 297.604,293.911 296.739 C 293.843 295.874,293.788 296.667,293.788 298.500 M92.448 322.500 C 92.449 323.967,92.507 324.525,92.578 323.741 C 92.648 322.957,92.647 321.757,92.576 321.075 C 92.504 320.392,92.446 321.033,92.448 322.500 M308.636 321.630 C 306.615 322.421,302.454 325.348,303.376 325.331 C 304.793 325.304,310.211 322.852,310.645 322.040 C 311.261 320.889,310.781 320.791,308.636 321.630 M333.018 324.145 C 332.512 324.754,332.895 325.503,334.394 326.833 C 339.660 331.511,341.345 333.164,342.500 334.784 C 344.450 337.520,346.139 337.615,348.335 335.114 C 351.460 331.554,347.234 326.226,339.770 324.317 C 336.716 323.536,333.589 323.457,333.018 324.145 M69.589 325.242 C 70.188 325.316,71.088 325.314,71.589 325.238 C 72.090 325.162,71.600 325.101,70.500 325.103 C 69.400 325.105,68.990 325.167,69.589 325.242 M342.431 326.669 C 347.147 328.434,349.449 333.000,345.622 333.000 C 343.310 333.000,340.068 330.782,338.190 327.916 C 336.911 325.964,338.946 325.366,342.431 326.669 M85.167 332.333 C 86.255 333.433,87.221 334.333,87.312 334.333 C 87.404 334.333,86.589 333.433,85.500 332.333 C 84.411 331.233,83.446 330.333,83.354 330.333 C 83.263 330.333,84.078 331.233,85.167 332.333 M271.106 337.519 C 268.955 340.535,268.994 339.871,269.481 365.167 C 269.862 384.953,269.193 392.797,264.993 417.833 C 262.091 435.128,261.588 439.510,261.735 446.243 C 261.858 451.848,261.894 452.116,262.667 453.071 C 262.942 453.410,263.116 453.779,263.055 453.890 C 262.993 454.001,263.068 454.184,263.222 454.296 C 263.375 454.408,264.012 455.250,264.639 456.167 C 267.455 460.288,273.582 465.426,278.833 468.071 C 280.300 468.810,282.475 469.983,283.667 470.678 C 284.858 471.373,286.658 472.285,287.667 472.706 C 288.675 473.127,289.547 473.581,289.605 473.717 C 289.663 473.852,289.925 473.880,290.188 473.779 C 290.451 473.678,290.667 473.761,290.667 473.964 C 290.667 474.167,290.779 474.316,290.917 474.294 C 291.054 474.272,291.279 474.291,291.417 474.336 C 291.554 474.380,291.779 474.441,291.917 474.470 C 292.054 474.500,292.482 474.699,292.867 474.914 C 293.753 475.407,298.146 476.333,299.603 476.333 C 300.253 476.333,300.621 476.470,300.500 476.667 C 300.240 477.087,300.760 477.104,301.183 476.689 C 301.358 476.518,302.100 476.305,302.833 476.217 C 310.956 475.237,317.999 470.797,330.212 458.956 C 343.432 446.140,349.764 441.831,371.000 431.207 C 390.930 421.236,394.958 418.278,398.681 410.878 C 400.935 406.398,400.574 402.473,398.133 404.914 C 397.811 405.237,397.462 405.501,397.357 405.502 C 396.975 405.506,395.237 406.883,392.895 409.036 C 389.329 412.316,388.794 412.786,388.005 413.333 C 387.609 413.608,386.433 414.469,385.392 415.246 C 384.352 416.024,383.323 416.661,383.107 416.663 C 382.891 416.665,382.516 416.854,382.274 417.083 C 381.837 417.497,377.634 419.667,377.271 419.667 C 377.167 419.667,376.501 419.918,375.791 420.226 C 375.081 420.533,374.350 420.827,374.167 420.878 C 373.983 420.930,372.183 421.557,370.167 422.273 C 368.150 422.988,364.475 424.225,362.000 425.022 C 352.606 428.046,346.541 430.782,341.587 434.233 C 340.718 434.838,339.884 435.333,339.733 435.333 C 339.582 435.333,339.168 435.596,338.813 435.917 C 338.457 436.238,337.605 436.875,336.919 437.333 C 336.233 437.792,335.670 438.279,335.669 438.417 C 335.668 438.554,335.499 438.667,335.295 438.667 C 334.979 438.667,331.837 440.777,331.333 441.327 C 331.242 441.427,330.267 442.102,329.167 442.828 C 328.067 443.553,326.567 444.616,325.833 445.191 C 325.100 445.765,324.050 446.487,323.500 446.794 C 322.950 447.102,322.050 447.647,321.500 448.007 C 320.950 448.366,320.125 448.847,319.667 449.076 C 319.208 449.305,318.635 449.681,318.393 449.912 C 318.151 450.143,317.589 450.424,317.143 450.536 C 316.698 450.647,316.333 450.855,316.333 450.997 C 316.333 451.139,315.996 451.365,315.583 451.500 C 315.171 451.634,314.758 451.784,314.667 451.833 C 314.575 451.883,314.162 452.033,313.750 452.167 C 313.337 452.301,313.000 452.569,313.000 452.761 C 313.000 452.954,312.906 453.017,312.791 452.902 C 312.676 452.787,312.153 452.915,311.628 453.187 C 311.103 453.458,310.560 453.677,310.420 453.674 C 310.281 453.671,309.342 453.916,308.333 454.219 C 307.325 454.522,306.275 454.802,306.000 454.843 C 305.725 454.883,305.050 455.010,304.500 455.124 C 303.296 455.374,299.366 455.800,298.667 455.756 C 298.392 455.738,297.342 455.645,296.333 455.548 C 295.325 455.451,293.788 455.305,292.918 455.223 C 291.420 455.082,287.414 453.919,286.333 453.310 C 286.058 453.156,285.046 452.656,284.083 452.200 C 283.121 451.743,282.333 451.187,282.333 450.963 C 282.333 450.739,282.246 450.643,282.138 450.750 C 281.713 451.176,278.495 447.969,276.701 445.333 C 272.777 439.568,271.577 430.348,273.164 418.167 C 273.260 417.433,273.422 415.783,273.524 414.500 C 273.627 413.217,273.789 411.567,273.885 410.833 C 274.176 408.604,274.231 394.728,273.963 391.000 C 273.825 389.075,273.554 379.250,273.361 369.167 C 272.934 346.858,272.735 341.183,272.323 339.667 C 272.149 339.025,271.968 338.050,271.920 337.500 L 271.833 336.500 271.106 337.519 M50.566 343.961 C 50.066 344.716,49.743 345.333,49.847 345.333 C 49.951 345.333,49.174 346.121,48.120 347.083 C 47.065 348.046,45.932 349.096,45.601 349.417 C 45.271 349.738,44.927 350.004,44.837 350.009 C 43.696 350.073,43.462 350.621,44.191 351.520 C 44.480 351.875,44.626 351.987,44.515 351.767 C 44.310 351.358,45.408 350.564,45.790 350.845 C 45.905 350.930,45.931 350.906,45.848 350.792 C 45.670 350.549,47.862 349.000,48.384 349.000 C 48.579 349.000,48.649 348.767,48.539 348.483 C 48.430 348.198,48.472 348.047,48.633 348.146 C 48.793 348.245,49.129 348.074,49.379 347.766 C 49.770 347.284,49.764 347.246,49.333 347.500 C 48.903 347.754,48.897 347.716,49.288 347.234 C 49.538 346.926,49.853 346.743,49.989 346.827 C 50.125 346.910,50.409 346.599,50.620 346.135 C 50.846 345.641,50.866 345.377,50.669 345.498 C 50.484 345.613,50.333 345.463,50.333 345.167 C 50.333 344.851,50.489 344.724,50.710 344.860 C 50.939 345.001,51.025 344.911,50.931 344.630 C 50.845 344.375,50.996 344.004,51.267 343.804 C 51.537 343.605,51.694 343.250,51.616 343.015 C 51.535 342.771,51.085 343.175,50.566 343.961 M294.790 346.667 C 294.790 348.592,294.845 349.379,294.912 348.417 C 294.980 347.454,294.980 345.879,294.912 344.917 C 294.845 343.954,294.790 344.742,294.790 346.667 M42.179 351.135 C 41.569 351.385,41.337 351.629,41.572 351.775 C 41.782 351.905,42.044 351.865,42.154 351.687 C 42.265 351.508,42.560 351.441,42.810 351.537 C 43.061 351.633,43.359 351.562,43.472 351.379 C 43.817 350.821,43.221 350.709,42.179 351.135 M101.725 354.583 C 102.686 356.004,104.166 358.517,105.015 360.167 C 107.354 364.709,110.254 369.987,111.334 371.667 C 111.511 371.942,112.057 372.842,112.547 373.667 C 113.509 375.284,114.421 376.731,117.612 381.697 C 118.742 383.455,119.667 385.055,119.667 385.253 C 119.667 385.450,119.779 385.661,119.917 385.722 C 120.995 386.201,131.068 404.036,134.100 410.833 C 135.705 414.433,139.205 423.643,139.483 425.000 C 139.576 425.458,139.886 426.733,140.171 427.833 C 141.748 433.921,141.329 442.628,139.232 447.333 C 138.864 448.158,138.521 449.046,138.469 449.306 C 138.418 449.566,138.066 450.197,137.688 450.709 C 137.310 451.221,137.000 451.769,137.000 451.928 C 137.000 452.903,128.039 460.667,126.914 460.667 C 126.802 460.667,126.288 460.840,125.772 461.051 C 125.256 461.263,124.683 461.476,124.500 461.524 C 124.317 461.573,123.342 461.901,122.333 462.253 C 116.658 464.235,108.202 462.989,93.333 457.979 C 86.767 455.767,82.316 454.415,79.667 453.827 C 79.392 453.766,78.267 453.485,77.167 453.203 C 76.067 452.920,74.642 452.606,74.000 452.505 C 73.358 452.404,72.458 452.252,72.000 452.167 C 71.542 452.081,70.717 451.935,70.167 451.841 C 68.887 451.622,67.950 451.452,63.667 450.666 C 61.742 450.312,59.192 449.877,58.000 449.698 C 54.606 449.190,53.575 449.023,52.500 448.807 C 50.967 448.499,49.957 448.328,48.505 448.131 C 47.774 448.032,47.010 447.813,46.807 447.645 C 46.605 447.477,46.350 447.428,46.242 447.536 C 46.133 447.645,45.847 447.611,45.606 447.461 C 45.364 447.312,44.867 447.172,44.500 447.150 C 42.842 447.053,40.302 446.552,40.140 446.289 C 40.041 446.130,39.445 446.000,38.814 446.000 C 38.183 446.000,37.667 445.882,37.667 445.738 C 37.667 445.593,37.404 445.453,37.083 445.425 C 36.316 445.360,30.910 444.030,28.750 443.375 C 28.154 443.194,27.667 443.107,27.667 443.182 C 27.667 443.256,27.288 443.173,26.825 442.997 C 26.362 442.821,25.649 442.609,25.241 442.526 C 17.918 441.034,12.607 438.156,9.804 434.159 C 8.811 432.742,7.299 428.811,7.523 428.227 C 7.627 427.956,7.584 427.655,7.428 427.558 C 7.013 427.302,7.311 421.469,7.832 419.667 C 7.858 419.575,8.082 418.825,8.329 418.000 C 8.576 417.175,8.829 416.228,8.890 415.896 C 8.952 415.564,9.302 414.635,9.668 413.831 C 10.034 413.027,10.333 412.210,10.333 412.014 C 10.333 411.818,10.473 411.397,10.645 411.079 C 11.549 409.397,12.580 402.772,12.291 400.500 C 11.724 396.034,11.590 395.148,11.449 394.918 C 11.283 394.649,10.982 393.474,10.871 392.661 C 10.833 392.383,10.702 391.993,10.580 391.796 C 10.458 391.598,10.258 390.810,10.135 390.044 C 10.013 389.278,9.780 388.570,9.617 388.470 C 9.455 388.369,9.419 388.131,9.537 387.940 C 9.655 387.749,9.605 387.496,9.426 387.379 C 9.247 387.262,8.929 386.717,8.721 386.167 C 8.390 385.293,8.364 385.419,8.518 387.167 C 9.950 403.461,9.097 409.646,3.945 420.333 C 0.436 427.614,-0.100 429.431,0.067 433.496 C 0.369 440.852,3.133 443.192,16.000 446.983 C 19.758 448.091,25.683 449.907,29.167 451.019 C 35.517 453.047,47.037 455.979,62.377 459.473 C 76.204 462.621,84.230 465.001,92.468 468.394 C 111.070 476.057,112.391 476.443,120.000 476.458 C 123.995 476.466,125.620 476.334,127.167 475.877 C 128.267 475.552,129.354 475.271,129.583 475.254 C 129.813 475.236,130.000 475.081,130.000 474.909 C 130.000 474.736,130.233 474.685,130.517 474.794 C 130.802 474.903,130.958 474.868,130.864 474.717 C 130.770 474.565,131.302 474.004,132.046 473.470 C 132.789 472.937,133.871 472.118,134.449 471.651 C 135.027 471.185,136.753 469.912,138.284 468.823 C 140.505 467.244,148.344 459.667,147.757 459.667 C 147.676 459.667,148.043 459.104,148.571 458.417 C 149.995 456.565,150.667 455.419,150.667 454.845 C 150.667 454.564,150.826 454.333,151.020 454.333 C 151.214 454.333,151.286 454.194,151.181 454.023 C 151.075 453.852,151.144 453.617,151.333 453.500 C 151.523 453.383,151.613 453.182,151.533 453.053 C 151.454 452.925,151.677 451.623,152.029 450.160 C 153.397 444.481,153.204 438.133,151.478 432.073 C 150.685 429.286,147.014 421.311,146.101 420.391 C 145.860 420.147,145.490 419.622,145.280 419.224 C 144.637 418.008,140.637 412.717,135.497 406.283 C 129.540 398.827,124.684 391.580,117.999 380.167 C 110.872 368.000,100.734 352.000,100.151 352.000 C 100.057 352.000,100.765 353.162,101.725 354.583 M25.583 352.569 C 25.996 352.648,26.671 352.648,27.083 352.569 C 27.496 352.489,27.158 352.424,26.333 352.424 C 25.508 352.424,25.171 352.489,25.583 352.569 M17.222 353.556 C 16.817 353.960,16.992 354.316,17.500 354.121 C 17.775 354.015,18.000 353.795,18.000 353.631 C 18.000 353.282,17.541 353.237,17.222 353.556 M342.823 355.417 L 340.833 357.500 342.917 355.510 C 344.063 354.416,345.000 353.479,345.000 353.427 C 345.000 353.181,344.671 353.481,342.823 355.417 M15.917 353.896 C 15.596 353.980,15.333 354.213,15.333 354.413 C 15.333 354.614,15.244 354.689,15.135 354.580 C 14.842 354.287,11.333 356.609,11.333 357.096 C 11.333 357.188,10.891 357.736,10.350 358.315 C 9.801 358.904,9.449 359.580,9.553 359.850 C 9.655 360.116,9.547 360.333,9.313 360.333 C 9.080 360.333,8.967 360.412,9.063 360.508 C 9.304 360.748,10.333 360.326,10.333 359.986 C 10.333 359.605,13.970 356.000,14.355 356.000 C 14.526 356.000,14.667 355.850,14.667 355.667 C 14.667 355.483,14.892 355.333,15.167 355.333 C 15.442 355.333,15.667 355.113,15.667 354.844 C 15.667 354.546,15.862 354.429,16.167 354.546 C 16.483 354.668,16.667 354.542,16.667 354.202 C 16.667 353.908,16.629 353.684,16.583 353.705 C 16.537 353.727,16.237 353.813,15.917 353.896 M299.217 361.675 C 299.794 362.312,300.564 363.399,300.929 364.091 C 301.293 364.782,301.983 365.740,302.462 366.220 C 302.941 366.699,303.333 367.210,303.333 367.356 C 303.333 367.502,303.626 367.715,303.983 367.828 C 304.340 367.941,305.106 368.476,305.685 369.017 C 306.264 369.558,306.991 370.000,307.302 370.000 C 307.613 370.000,308.009 370.141,308.183 370.313 C 308.518 370.644,309.129 370.801,312.745 371.478 C 313.980 371.709,315.071 371.818,315.170 371.719 C 315.269 371.620,316.016 371.503,316.830 371.460 C 318.446 371.374,321.882 370.004,323.561 368.776 C 324.145 368.349,324.705 368.000,324.807 368.000 C 324.998 368.000,325.727 367.423,327.278 366.043 C 327.964 365.433,328.015 365.311,327.500 365.508 C 317.665 369.278,306.224 367.912,300.030 362.226 C 299.005 361.286,298.639 361.038,299.217 361.675 M8.644 361.083 C 8.389 362.008,8.421 363.070,8.692 362.663 C 9.615 361.276,9.695 361.000,9.178 361.000 C 8.897 361.000,8.656 361.037,8.644 361.083 M330.667 364.000 C 329.658 364.533,328.951 364.976,329.094 364.984 C 329.449 365.006,332.667 363.363,332.667 363.161 C 332.667 362.938,332.713 362.919,330.667 364.000 " stroke="none" fill="#916507" fill-rule="evenodd"></path><path id="path3" d="M226.649 71.250 C 226.453 71.571,225.279 73.558,224.039 75.667 C 222.273 78.671,221.647 79.479,221.143 79.404 C 210.487 77.805,198.079 80.627,196.513 85.006 C 195.384 88.166,195.526 97.044,196.734 98.833 C 197.230 99.567,198.505 101.868,199.567 103.948 L 201.500 107.729 205.632 109.901 C 209.408 111.886,209.706 111.991,209.092 111.120 C 201.864 100.864,207.310 84.800,218.000 84.844 C 234.156 84.910,236.680 112.661,220.816 115.811 C 219.542 116.064,218.580 116.285,218.678 116.302 C 218.776 116.319,220.403 116.859,222.293 117.502 C 224.184 118.145,227.254 119.058,229.115 119.531 L 232.500 120.390 234.232 118.532 C 239.392 112.997,242.184 98.804,239.811 90.167 C 239.645 89.563,234.470 85.213,232.482 84.007 C 231.422 83.364,231.413 83.409,233.200 80.310 L 234.734 77.651 233.795 76.421 C 230.981 72.731,227.350 70.104,226.649 71.250 M155.401 80.674 C 150.107 82.061,143.226 87.444,142.927 90.432 C 142.567 94.036,143.601 105.703,144.689 110.320 C 145.739 114.773,148.944 120.566,150.951 121.641 C 151.622 122.000,154.717 119.731,157.110 117.126 L 158.678 115.419 157.663 114.999 C 146.439 110.349,145.814 86.333,156.918 86.333 C 164.301 86.333,170.702 98.616,168.079 107.750 C 167.882 108.438,167.752 109.000,167.790 109.000 C 167.828 109.000,168.423 108.713,169.111 108.361 C 172.114 106.831,176.000 101.013,176.000 98.048 C 176.000 92.761,172.549 81.751,170.716 81.188 C 166.773 79.977,159.051 79.718,155.401 80.674 M239.318 151.223 C 239.449 151.925,239.881 153.132,240.278 153.903 C 242.282 157.799,241.156 158.830,234.881 158.843 C 228.356 158.856,226.613 159.628,219.814 165.517 C 213.750 170.768,210.976 172.624,201.167 177.993 C 198.050 179.699,193.582 182.285,191.238 183.740 C 180.609 190.339,175.653 190.454,167.500 184.289 C 159.082 177.923,154.154 170.130,151.510 159.002 C 151.009 156.895,150.321 154.645,149.981 154.002 L 149.363 152.833 149.348 157.175 C 149.310 168.409,147.738 172.956,140.133 183.833 C 126.605 203.184,122.435 213.726,123.530 225.808 L 123.745 228.182 121.599 231.508 C 102.881 260.512,93.447 289.527,92.765 320.178 L 92.572 328.856 97.045 333.011 C 107.146 342.395,118.035 351.648,131.191 362.026 C 147.922 375.224,152.121 380.956,151.604 389.887 C 151.105 398.511,142.164 403.896,132.408 401.447 C 131.778 401.289,132.796 402.749,136.889 407.871 C 139.802 411.517,143.188 415.938,144.413 417.696 L 146.641 420.892 149.913 422.411 C 173.780 433.488,202.043 433.403,224.833 422.184 C 236.388 416.496,245.631 409.318,261.113 394.009 L 269.060 386.152 269.390 379.826 C 269.744 373.047,269.548 359.671,268.960 350.582 C 268.017 336.002,271.946 332.380,286.421 334.485 C 288.760 334.825,290.735 335.042,290.808 334.968 C 290.881 334.894,291.251 332.283,291.630 329.167 C 297.592 280.131,289.969 245.649,267.896 221.809 L 265.741 219.481 264.856 214.657 C 262.115 199.726,258.627 190.208,248.707 170.582 C 245.996 165.220,242.833 158.508,241.676 155.667 C 239.413 150.106,238.945 149.225,239.318 151.223 " stroke="none" fill="#f9f9f9" fill-rule="evenodd"></path><path id="path4" d="M227.408 24.914 C 226.471 25.239,225.965 27.334,226.348 29.306 C 226.547 30.329,226.795 32.291,226.900 33.665 C 227.129 36.655,227.617 37.565,228.941 37.473 C 230.572 37.360,235.665 34.249,236.367 32.936 C 237.692 30.461,230.355 23.891,227.408 24.914 M233.493 66.011 C 233.364 66.220,233.415 66.548,233.607 66.740 C 234.055 67.188,235.099 66.797,234.917 66.250 C 234.731 65.693,233.788 65.534,233.493 66.011 M213.801 68.162 C 207.691 69.491,200.009 76.048,197.518 82.061 L 197.009 83.289 198.421 82.476 C 203.357 79.634,213.488 78.264,221.149 79.404 C 221.661 79.480,222.295 78.650,224.177 75.434 C 225.486 73.197,226.732 71.156,226.947 70.897 C 228.352 69.204,218.464 67.147,213.801 68.162 M153.110 71.931 C 147.098 74.078,142.525 81.969,142.734 89.833 C 142.771 91.203,142.802 91.282,142.908 90.280 C 143.075 88.701,147.799 84.045,150.895 82.407 C 155.847 79.789,164.491 79.269,170.790 81.212 C 171.758 81.510,169.633 78.577,167.080 76.089 C 162.865 71.981,157.467 70.375,153.110 71.931 M233.219 80.278 C 231.411 83.412,231.421 83.363,232.482 84.007 C 234.402 85.172,239.655 89.542,239.686 90.000 C 239.704 90.275,239.786 90.340,239.867 90.145 C 240.304 89.092,237.048 80.558,235.376 78.377 L 234.771 77.587 233.219 80.278 M217.088 84.906 C 217.595 84.982,218.345 84.980,218.755 84.901 C 219.165 84.822,218.750 84.760,217.833 84.762 C 216.917 84.765,216.581 84.829,217.088 84.906 M226.667 88.833 C 227.289 89.475,227.872 90.000,227.964 90.000 C 228.056 90.000,227.622 89.475,227.000 88.833 C 226.378 88.192,225.794 87.667,225.703 87.667 C 225.611 87.667,226.045 88.192,226.667 88.833 M195.440 92.000 C 195.440 93.192,195.501 93.679,195.574 93.083 C 195.648 92.487,195.648 91.513,195.574 90.917 C 195.501 90.321,195.440 90.808,195.440 92.000 M220.519 91.303 C 219.776 92.505,224.013 97.333,225.810 97.333 C 226.842 97.333,226.489 94.534,225.284 93.161 C 223.686 91.341,221.115 90.339,220.519 91.303 M158.436 91.881 C 158.188 92.527,161.779 96.176,162.328 95.837 C 163.353 95.203,162.132 92.764,160.320 91.827 C 159.095 91.193,158.695 91.205,158.436 91.881 M142.767 94.333 C 142.767 95.342,142.829 95.754,142.905 95.250 C 142.982 94.746,142.982 93.921,142.905 93.417 C 142.829 92.912,142.767 93.325,142.767 94.333 M240.417 95.167 C 240.421 95.900,240.489 96.161,240.569 95.746 C 240.649 95.331,240.646 94.731,240.562 94.413 C 240.479 94.094,240.414 94.433,240.417 95.167 M176.091 98.667 C 176.091 99.492,176.156 99.829,176.235 99.417 C 176.315 99.004,176.315 98.329,176.235 97.917 C 176.156 97.504,176.091 97.842,176.091 98.667 M143.077 100.000 C 143.077 100.642,143.146 100.904,143.230 100.583 C 143.314 100.263,143.314 99.737,143.230 99.417 C 143.146 99.096,143.077 99.358,143.077 100.000 M240.417 101.500 C 240.421 102.233,240.489 102.494,240.569 102.079 C 240.649 101.665,240.646 101.065,240.562 100.746 C 240.479 100.427,240.414 100.767,240.417 101.500 M168.424 103.333 C 168.424 104.158,168.489 104.496,168.569 104.083 C 168.648 103.671,168.648 102.996,168.569 102.583 C 168.489 102.171,168.424 102.508,168.424 103.333 M233.649 119.250 L 232.500 120.500 233.750 119.351 C 234.913 118.282,235.153 118.000,234.899 118.000 C 234.843 118.000,234.281 118.563,233.649 119.250 M257.371 144.296 C 256.028 145.639,256.302 146.561,260.088 153.424 C 265.583 163.386,270.654 165.774,273.170 159.585 C 275.002 155.077,273.229 151.675,267.307 148.337 C 265.618 147.384,263.364 146.010,262.300 145.284 C 259.867 143.623,258.348 143.318,257.371 144.296 M236.470 146.034 C 235.626 146.966,233.918 147.814,230.400 149.046 C 225.889 150.625,222.130 152.775,216.596 156.941 C 202.558 167.508,194.021 171.071,182.833 171.033 C 172.428 170.998,167.392 167.968,158.723 156.527 C 153.956 150.235,150.292 146.368,149.956 147.275 C 149.269 149.134,149.255 152.539,149.930 153.863 C 150.299 154.586,151.010 156.900,151.510 159.005 C 154.154 170.129,159.083 177.924,167.500 184.289 C 175.653 190.454,180.609 190.339,191.238 183.740 C 193.582 182.285,198.050 179.699,201.167 177.993 C 210.976 172.624,213.750 170.768,219.814 165.517 C 226.613 159.628,228.356 158.856,234.881 158.843 C 241.156 158.830,242.282 157.799,240.278 153.903 C 239.512 152.415,238.900 149.899,239.375 150.192 C 239.732 150.413,238.641 147.852,237.766 146.415 L 237.106 145.331 236.470 146.034 M149.112 160.333 C 149.112 161.708,149.171 162.271,149.243 161.583 C 149.315 160.896,149.315 159.771,149.243 159.083 C 149.171 158.396,149.112 158.958,149.112 160.333 M123.424 220.333 C 123.424 221.158,123.489 221.496,123.569 221.083 C 123.648 220.671,123.648 219.996,123.569 219.583 C 123.489 219.171,123.424 219.508,123.424 220.333 M265.667 219.438 C 265.667 219.495,266.154 219.983,266.750 220.521 L 267.833 221.500 266.854 220.417 C 265.942 219.407,265.667 219.180,265.667 219.438 M123.424 226.667 C 123.424 227.492,123.489 227.829,123.569 227.417 C 123.648 227.004,123.648 226.329,123.569 225.917 C 123.489 225.504,123.424 225.842,123.424 226.667 M305.530 239.833 C 313.185 247.536,320.333 262.065,320.333 269.922 C 320.333 270.262,320.568 270.830,320.854 271.186 C 321.332 271.780,321.362 271.546,321.215 268.333 C 320.737 257.894,313.630 245.494,303.526 237.470 C 302.595 236.730,303.461 237.752,305.530 239.833 M99.887 243.083 C 98.323 245.164,96.064 248.855,94.736 251.501 C 93.279 254.402,90.333 261.190,90.333 261.647 C 90.333 261.803,89.873 263.011,89.311 264.332 C 87.622 268.301,88.386 267.267,90.491 262.734 C 93.214 256.870,98.699 245.861,99.947 243.750 C 101.120 241.768,101.093 241.477,99.887 243.083 M299.604 249.169 C 299.843 251.218,299.363 252.543,297.167 255.894 C 294.707 259.648,294.686 259.599,298.382 258.652 C 300.478 258.115,301.898 257.967,304.126 258.053 C 309.022 258.241,308.893 256.890,303.491 251.417 C 299.789 247.666,299.402 247.442,299.604 249.169 M83.350 279.943 C 82.546 282.645,82.095 285.016,81.858 287.794 C 81.599 290.827,81.944 289.835,82.669 285.467 C 83.031 283.285,83.548 280.682,83.818 279.682 C 84.541 277.005,84.162 277.216,83.350 279.943 M321.606 282.167 C 321.385 282.522,320.899 285.070,319.481 293.310 C 318.994 296.139,318.008 300.628,317.290 303.287 C 315.724 309.085,315.775 309.931,317.433 305.651 C 320.436 297.898,321.736 292.896,322.152 287.500 C 322.355 284.876,322.010 281.515,321.606 282.167 M293.417 288.833 C 293.421 289.567,293.489 289.827,293.569 289.413 C 293.649 288.998,293.646 288.398,293.562 288.079 C 293.479 287.761,293.414 288.100,293.417 288.833 M81.704 302.338 C 81.640 303.766,80.444 306.600,79.137 308.419 C 77.393 310.846,77.480 311.535,79.802 313.696 C 81.895 315.644,83.412 317.599,84.825 320.167 C 88.294 326.476,90.676 329.331,93.739 330.852 L 95.500 331.728 92.965 329.247 C 86.539 322.958,84.212 317.741,82.338 305.418 C 82.010 303.263,81.725 301.877,81.704 302.338 M293.424 308.667 C 293.424 309.492,293.489 309.829,293.569 309.417 C 293.648 309.004,293.648 308.329,293.569 307.917 C 293.489 307.504,293.424 307.842,293.424 308.667 M92.757 314.000 C 92.757 314.825,92.822 315.162,92.902 314.750 C 92.981 314.337,92.981 313.662,92.902 313.250 C 92.822 312.837,92.757 313.175,92.757 314.000 M337.786 326.503 C 337.400 327.508,340.870 331.388,343.101 332.446 C 347.301 334.439,349.113 331.527,345.564 328.489 C 343.179 326.448,338.287 325.198,337.786 326.503 M96.667 332.771 C 96.667 332.828,97.154 333.316,97.750 333.854 L 98.833 334.833 97.854 333.750 C 96.942 332.740,96.667 332.513,96.667 332.771 M268.779 346.000 C 268.779 347.375,268.838 347.938,268.909 347.250 C 268.981 346.563,268.981 345.438,268.909 344.750 C 268.838 344.063,268.779 344.625,268.779 346.000 M269.084 352.500 C 269.088 353.233,269.156 353.494,269.236 353.079 C 269.315 352.665,269.312 352.065,269.229 351.746 C 269.146 351.427,269.080 351.767,269.084 352.500 M269.452 360.500 C 269.451 362.150,269.507 362.867,269.577 362.093 C 269.647 361.320,269.648 359.970,269.579 359.093 C 269.510 358.217,269.453 358.850,269.452 360.500 M140.667 369.771 C 140.667 369.828,141.154 370.316,141.750 370.854 L 142.833 371.833 141.854 370.750 C 140.942 369.740,140.667 369.513,140.667 369.771 M143.667 372.771 C 143.667 372.828,144.154 373.316,144.750 373.854 L 145.833 374.833 144.854 373.750 C 143.942 372.740,143.667 372.513,143.667 372.771 M269.448 379.167 C 269.449 380.633,269.507 381.192,269.578 380.408 C 269.648 379.624,269.647 378.424,269.576 377.741 C 269.504 377.059,269.446 377.700,269.448 379.167 M262.830 392.417 L 256.833 398.500 262.917 392.503 C 268.569 386.932,269.151 386.333,268.913 386.333 C 268.865 386.333,266.128 389.071,262.830 392.417 M252.982 401.917 L 251.833 403.167 253.083 402.018 C 254.247 400.949,254.487 400.667,254.232 400.667 C 254.176 400.667,253.614 401.229,252.982 401.917 M135.909 401.907 C 136.501 401.981,137.551 401.982,138.243 401.910 C 138.934 401.838,138.450 401.778,137.167 401.776 C 135.883 401.775,135.317 401.834,135.909 401.907 M186.589 430.908 C 187.188 430.982,188.088 430.981,188.589 430.905 C 189.090 430.829,188.600 430.768,187.500 430.770 C 186.400 430.772,185.990 430.834,186.589 430.908 " stroke="none" fill="#949493" fill-rule="evenodd"></path></g></svg>