<svg id="svg" version="1.1" xmlns="http://www.w3.org/2000/svg" xmlns:xlink="http://www.w3.org/1999/xlink" width="400" height="400" viewBox="0, 0, 400,400"><g id="svgg"><path id="path0" d="M49.561 67.417 C 26.227 92.191,10.154 120.665,1.360 152.806 L -0.000 157.778 0.047 173.306 C 0.081 184.540,0.170 187.820,0.369 185.167 C 3.665 141.186,21.487 99.281,50.802 66.583 C 55.216 61.660,54.582 62.086,49.561 67.417 M78.749 174.244 L 78.833 231.167 85.432 231.257 L 92.031 231.348 91.888 183.590 C 91.809 157.324,91.633 135.252,91.498 134.542 C 91.107 132.498,91.768 133.177,93.564 136.667 C 94.998 139.453,152.612 229.254,153.925 230.750 C 154.385 231.275,155.232 231.333,162.385 231.333 L 170.333 231.333 170.333 174.333 L 170.333 117.333 163.833 117.333 L 157.333 117.333 157.333 162.298 C 157.333 191.290,157.458 208.473,157.683 210.671 C 157.875 212.545,157.971 214.140,157.895 214.216 C 157.819 214.292,156.475 212.287,154.907 209.760 C 153.340 207.234,139.456 185.442,124.054 161.333 L 96.050 117.500 87.357 117.411 L 78.665 117.322 78.749 174.244 M200.000 174.386 L 200.000 231.439 230.074 231.201 C 246.615 231.070,260.202 230.909,260.268 230.843 C 260.335 230.776,260.474 228.085,260.578 224.861 L 260.768 219.000 244.967 218.999 C 236.277 218.999,225.679 218.900,221.417 218.779 L 213.667 218.560 213.667 198.780 L 213.667 179.000 234.167 179.000 L 254.667 179.000 254.667 173.167 L 254.667 167.333 234.167 167.333 L 213.667 167.333 213.667 148.333 L 213.667 129.333 235.667 129.333 L 257.667 129.333 257.667 123.333 L 257.667 117.333 228.833 117.333 L 200.000 117.333 200.000 174.386 M271.000 123.333 L 271.000 129.333 287.333 129.333 L 303.667 129.333 303.667 180.333 L 303.667 231.333 310.167 231.333 L 316.667 231.333 316.667 180.333 L 316.667 129.333 333.333 129.333 L 350.000 129.333 350.000 123.333 L 350.000 117.333 310.500 117.333 L 271.000 117.333 271.000 123.333 M0.048 232.167 L 0.002 253.167 1.179 257.667 C 18.893 325.424,74.450 380.980,142.333 398.816 L 146.833 399.998 167.833 399.946 C 179.383 399.917,188.308 399.843,187.667 399.783 C 187.025 399.722,184.550 399.509,182.167 399.309 C 85.309 391.213,7.685 312.445,0.369 214.833 C 0.184 212.366,0.079 218.038,0.048 232.167 M43.333 215.633 C 36.211 218.152,35.623 228.427,42.407 231.807 C 47.997 234.593,54.966 230.340,54.993 224.125 C 55.019 217.946,49.061 213.606,43.333 215.633 M147.226 258.050 C 127.035 260.119,116.834 285.897,129.502 302.833 C 135.894 311.378,149.063 314.194,161.064 309.581 C 163.216 308.754,163.322 308.552,163.329 305.272 L 163.333 303.043 160.917 304.149 C 145.003 311.431,130.514 302.464,130.514 285.333 C 130.514 268.123,145.219 258.345,161.095 264.998 L 163.358 265.945 163.262 262.922 L 163.167 259.899 161.866 259.449 C 158.146 258.164,151.920 257.569,147.226 258.050 M184.534 272.865 C 166.576 277.210,165.577 305.279,183.181 310.869 C 195.467 314.771,206.765 306.282,207.263 292.777 C 207.794 278.349,197.854 269.642,184.534 272.865 M253.271 273.139 C 236.245 278.016,235.963 306.758,252.898 311.169 C 257.211 312.293,263.510 311.590,267.855 309.500 L 270.333 308.308 270.333 305.654 C 270.333 303.233,270.048 302.446,269.495 303.341 C 268.581 304.820,262.544 306.721,258.735 306.728 C 251.901 306.742,247.513 302.674,246.778 295.643 L 246.572 293.667 259.786 293.667 L 273.000 293.667 273.000 290.070 C 273.000 277.582,264.182 270.014,253.271 273.139 M229.732 273.560 C 227.857 274.223,225.313 276.793,224.115 279.234 L 223.167 281.167 223.072 277.417 L 222.978 273.667 219.989 273.667 L 217.000 273.667 217.000 292.333 L 217.000 311.000 220.000 311.000 L 223.000 311.000 223.007 300.917 C 223.015 287.380,223.643 284.012,226.769 280.709 C 228.869 278.491,232.731 277.655,235.511 278.816 L 236.667 279.299 236.667 276.355 C 236.667 273.584,236.623 273.399,235.917 273.210 C 234.573 272.850,231.200 273.041,229.732 273.560 M193.787 278.344 C 204.557 282.374,203.724 304.231,192.710 306.576 C 183.055 308.631,176.218 302.033,176.750 291.170 C 177.246 281.023,185.114 275.100,193.787 278.344 M261.833 278.585 C 264.687 280.062,266.588 283.102,266.915 286.712 L 267.093 288.667 257.880 288.729 C 252.812 288.764,248.254 288.801,247.750 288.813 C 245.000 288.875,249.130 280.806,252.811 278.926 C 255.703 277.448,259.369 277.309,261.833 278.585 M334.667 348.058 C 303.771 376.980,260.583 395.749,216.333 399.484 C 211.228 399.915,211.350 399.921,226.693 399.960 L 242.220 400.000 246.527 398.825 C 280.135 389.653,314.019 370.097,335.982 347.198 C 337.737 345.368,337.083 345.796,334.667 348.058 " stroke="none" fill="#f8f7f9" fill-rule="evenodd"></path><path id="path1" d="M60.146 57.376 C 59.607 57.949,58.417 59.005,57.500 59.722 C 56.583 60.440,55.008 61.980,54.000 63.146 C 52.992 64.311,50.806 66.817,49.143 68.716 C -13.938 140.712,-16.555 248.591,42.955 323.833 C 113.858 413.479,246.107 425.875,331.266 350.857 C 333.154 349.194,335.495 347.158,336.468 346.333 C 337.441 345.508,338.737 344.233,339.347 343.500 C 339.957 342.767,341.214 341.377,342.139 340.411 L 343.821 338.656 290.161 284.994 L 236.501 231.333 218.250 231.333 L 200.000 231.333 200.000 213.082 L 200.000 194.830 185.333 180.167 L 170.667 165.503 170.667 198.424 L 170.667 231.345 162.273 231.256 L 153.879 231.167 124.418 185.500 C 108.214 160.383,94.254 138.408,93.395 136.667 L 91.833 133.500 91.929 182.417 L 92.025 231.333 85.346 231.333 L 78.667 231.333 78.667 174.333 L 78.667 117.333 87.417 117.335 L 96.167 117.338 125.784 163.752 C 142.074 189.280,155.919 210.992,156.550 212.000 L 157.698 213.833 157.492 212.167 C 157.378 211.250,157.215 197.300,157.128 181.167 L 156.971 151.833 109.236 104.083 C 82.982 77.821,61.416 56.333,61.313 56.333 C 61.209 56.333,60.684 56.802,60.146 57.376 M160.601 117.249 C 162.490 117.308,165.490 117.308,167.268 117.248 C 169.045 117.188,167.500 117.140,163.833 117.140 C 160.167 117.140,158.712 117.189,160.601 117.249 M214.442 117.250 C 222.476 117.300,235.526 117.300,243.442 117.250 C 251.357 117.200,244.783 117.159,228.833 117.159 C 212.883 117.159,206.407 117.200,214.442 117.250 M290.776 117.250 C 301.744 117.299,319.594 117.299,330.442 117.250 C 341.291 117.201,332.317 117.161,310.500 117.161 C 288.683 117.161,279.807 117.201,290.776 117.250 M224.583 129.583 C 230.679 129.634,240.654 129.634,246.750 129.583 C 252.846 129.532,247.858 129.491,235.667 129.491 C 223.475 129.491,218.487 129.532,224.583 129.583 M278.750 129.583 C 283.287 129.635,290.712 129.635,295.250 129.583 C 299.787 129.531,296.075 129.488,287.000 129.488 C 277.925 129.488,274.212 129.531,278.750 129.583 M325.273 129.583 C 329.915 129.635,337.415 129.635,341.940 129.583 C 346.465 129.531,342.667 129.488,333.500 129.488 C 324.333 129.488,320.631 129.531,325.273 129.583 M213.667 213.667 L 213.667 218.667 218.746 218.667 L 223.825 218.667 218.833 213.667 C 216.088 210.917,213.802 208.667,213.754 208.667 C 213.706 208.667,213.667 210.917,213.667 213.667 M49.128 215.408 C 51.332 216.063,54.145 219.039,54.839 221.449 C 57.372 230.253,46.567 236.720,40.057 230.297 C 33.344 223.675,40.030 212.703,49.128 215.408 M156.855 258.022 C 157.943 258.217,159.846 258.673,161.083 259.036 L 163.333 259.695 163.333 263.020 L 163.333 266.345 161.635 265.484 C 155.995 262.626,147.268 262.520,141.833 265.243 C 128.261 272.043,126.554 294.969,139.000 303.280 C 144.613 307.029,153.582 307.312,160.943 303.974 C 162.125 303.438,163.146 303.000,163.213 303.000 C 163.279 303.000,163.333 304.339,163.333 305.976 L 163.333 308.952 161.417 309.674 C 155.515 311.895,146.964 312.589,142.000 311.248 C 117.729 304.695,117.868 266.759,142.192 258.867 C 145.877 257.672,152.711 257.278,156.855 258.022 M195.739 272.995 C 208.207 276.846,211.899 295.967,202.167 306.284 C 191.765 317.311,173.519 311.665,170.778 296.571 C 167.854 280.477,180.696 268.349,195.739 272.995 M261.292 272.659 C 268.720 274.067,273.333 280.924,273.333 290.553 L 273.333 294.000 260.167 294.000 L 247.000 294.000 247.000 295.298 C 247.000 305.327,258.435 309.882,268.457 303.845 C 269.533 303.197,270.471 302.667,270.540 302.667 C 270.610 302.667,270.667 303.951,270.667 305.522 L 270.667 308.377 267.917 309.645 C 257.511 314.446,246.780 311.632,242.562 302.996 C 234.953 287.417,245.870 269.734,261.292 272.659 M235.417 272.881 L 236.667 273.087 236.667 276.386 L 236.667 279.684 235.702 279.185 C 231.934 277.237,227.336 279.053,225.159 283.348 C 223.532 286.559,223.344 288.293,223.338 300.083 L 223.333 311.000 220.167 311.000 L 217.000 311.000 217.000 292.167 L 217.000 273.333 220.167 273.333 L 223.333 273.333 223.336 276.750 L 223.340 280.167 224.306 278.500 C 226.886 274.052,230.733 272.106,235.417 272.881 M186.137 278.024 C 174.818 280.746,173.463 300.928,184.275 305.755 C 192.029 309.217,199.882 304.306,201.071 295.250 C 202.577 283.793,195.601 275.747,186.137 278.024 M253.500 278.786 C 250.578 280.153,247.647 284.140,247.104 287.488 L 246.913 288.667 256.994 288.667 L 267.076 288.667 266.854 287.083 C 265.802 279.586,259.784 275.847,253.500 278.786 " stroke="none" fill="#6c449c" fill-rule="evenodd"></path><path id="path2" d="M187.167 0.227 C 138.699 3.348,87.730 26.596,57.500 59.371 C 55.925 61.078,57.098 60.225,59.589 57.851 L 61.344 56.179 109.169 104.002 L 156.994 151.826 157.080 134.497 L 157.167 117.167 163.833 117.167 L 170.500 117.167 170.585 141.337 L 170.671 165.507 185.335 180.169 L 200.000 194.830 200.000 155.913 L 200.000 116.996 228.917 117.081 L 257.833 117.167 257.833 123.333 L 257.833 129.500 235.750 129.586 L 213.667 129.671 213.667 148.336 L 213.667 167.000 234.333 167.000 L 255.000 167.000 255.000 173.167 L 255.000 179.333 234.333 179.333 L 213.667 179.333 213.667 193.921 L 213.667 208.508 218.754 213.587 L 223.841 218.667 242.254 218.667 L 260.667 218.667 260.667 225.000 L 260.667 231.333 248.584 231.333 L 236.501 231.333 290.161 284.994 L 343.821 338.656 342.155 340.411 C 339.169 343.556,338.460 344.549,340.782 342.333 C 369.351 315.078,390.476 274.427,397.335 233.512 C 418.701 106.064,315.884 -8.061,187.167 0.227 M350.000 123.333 L 350.000 129.667 333.500 129.667 L 317.000 129.667 317.000 180.500 L 317.000 231.333 310.167 231.333 L 303.333 231.333 303.333 180.500 L 303.333 129.667 287.000 129.667 L 270.667 129.667 270.667 123.556 C 270.667 120.194,270.767 117.344,270.889 117.222 C 271.011 117.100,288.861 117.000,310.556 117.000 L 350.000 117.000 350.000 123.333 " stroke="none" fill="#5c2b94" fill-rule="evenodd"></path><path id="path3" d="M170.496 174.333 C 170.496 205.775,170.535 218.638,170.583 202.917 C 170.631 187.196,170.631 161.471,170.583 145.750 C 170.535 130.029,170.496 142.892,170.496 174.333 M257.805 123.333 C 257.805 126.725,257.855 128.112,257.915 126.417 C 257.976 124.721,257.976 121.946,257.915 120.250 C 257.855 118.554,257.805 119.942,257.805 123.333 M303.496 180.333 C 303.496 208.475,303.535 219.988,303.583 205.917 C 303.631 191.846,303.631 168.821,303.583 154.750 C 303.535 140.679,303.496 152.192,303.496 180.333 M234.076 167.249 L 254.651 167.338 254.754 173.086 L 254.856 178.833 254.845 173.000 L 254.833 167.167 234.167 167.163 L 213.500 167.159 234.076 167.249 M55.084 223.833 C 55.088 224.567,55.156 224.827,55.236 224.413 C 55.315 223.998,55.312 223.398,55.229 223.079 C 55.146 222.761,55.080 223.100,55.084 223.833 M149.576 263.241 C 150.168 263.314,151.218 263.315,151.909 263.243 C 152.601 263.171,152.117 263.111,150.833 263.109 C 149.550 263.108,148.984 263.167,149.576 263.241 M188.583 272.241 C 189.179 272.315,190.154 272.315,190.750 272.241 C 191.346 272.167,190.858 272.107,189.667 272.107 C 188.475 272.107,187.987 272.167,188.583 272.241 M201.333 276.104 C 201.333 276.162,201.821 276.649,202.417 277.188 L 203.500 278.167 202.521 277.083 C 201.608 276.074,201.333 275.847,201.333 276.104 M257.254 277.902 C 257.669 277.982,258.269 277.979,258.587 277.896 C 258.906 277.812,258.567 277.747,257.833 277.751 C 257.100 277.754,256.839 277.823,257.254 277.902 M207.450 291.667 C 207.450 293.225,207.507 293.862,207.577 293.083 C 207.648 292.304,207.648 291.029,207.577 290.250 C 207.507 289.471,207.450 290.108,207.450 291.667 M176.779 292.333 C 176.779 293.708,176.838 294.271,176.909 293.583 C 176.981 292.896,176.981 291.771,176.909 291.083 C 176.838 290.396,176.779 290.958,176.779 292.333 M170.433 293.000 C 170.433 294.008,170.496 294.421,170.572 293.917 C 170.648 293.412,170.648 292.587,170.572 292.083 C 170.496 291.579,170.433 291.992,170.433 293.000 M253.394 293.916 C 257.003 293.970,263.003 293.970,266.728 293.916 C 270.453 293.863,267.500 293.819,260.167 293.819 C 252.833 293.818,249.786 293.862,253.394 293.916 M256.417 311.909 C 257.104 311.981,258.229 311.981,258.917 311.909 C 259.604 311.838,259.042 311.779,257.667 311.779 C 256.292 311.779,255.729 311.838,256.417 311.909 " stroke="none" fill="#9677b5" fill-rule="evenodd"></path><path id="path4" d="M157.162 161.167 C 157.162 185.367,157.201 195.217,157.250 183.057 C 157.298 170.897,157.298 151.097,157.250 139.057 C 157.201 127.017,157.162 136.967,157.162 161.167 M270.805 123.333 C 270.805 126.725,270.855 128.112,270.915 126.417 C 270.976 124.721,270.976 121.946,270.915 120.250 C 270.855 118.554,270.805 119.942,270.805 123.333 M316.829 180.333 C 316.829 208.475,316.869 219.988,316.917 205.917 C 316.965 191.846,316.965 168.821,316.917 154.750 C 316.869 140.679,316.829 152.192,316.829 180.333 M91.744 139.333 C 91.744 139.975,91.813 140.237,91.896 139.917 C 91.980 139.596,91.980 139.071,91.896 138.750 C 91.813 138.429,91.744 138.692,91.744 139.333 M223.941 179.250 C 229.683 179.301,238.983 179.301,244.607 179.250 C 250.232 179.199,245.533 179.157,234.167 179.157 C 222.800 179.157,218.198 179.199,223.941 179.250 M233.083 218.916 C 238.171 218.968,246.496 218.968,251.583 218.916 C 256.671 218.865,252.508 218.822,242.333 218.822 C 232.158 218.822,227.996 218.865,233.083 218.916 M37.424 224.000 C 37.424 224.825,37.489 225.162,37.569 224.750 C 37.648 224.338,37.648 223.662,37.569 223.250 C 37.489 222.838,37.424 223.175,37.424 224.000 M260.333 229.329 L 260.333 230.992 248.250 231.083 L 236.167 231.175 248.417 231.254 L 260.667 231.333 260.667 229.500 C 260.667 228.492,260.592 227.667,260.500 227.667 C 260.408 227.667,260.333 228.415,260.333 229.329 M153.083 257.896 C 153.404 257.980,153.929 257.980,154.250 257.896 C 154.571 257.813,154.308 257.744,153.667 257.744 C 153.025 257.744,152.762 257.813,153.083 257.896 M257.083 272.572 C 257.587 272.648,258.412 272.648,258.917 272.572 C 259.421 272.496,259.008 272.433,258.000 272.433 C 256.992 272.433,256.579 272.496,257.083 272.572 M232.583 272.902 C 232.996 272.981,233.671 272.981,234.083 272.902 C 234.496 272.822,234.158 272.757,233.333 272.757 C 232.508 272.757,232.171 272.822,232.583 272.902 M219.917 273.582 L 223.000 273.692 223.000 277.366 C 223.000 279.386,223.112 280.970,223.250 280.886 C 223.387 280.801,223.453 279.067,223.396 277.033 L 223.292 273.333 220.063 273.403 L 216.833 273.472 219.917 273.582 M245.812 277.417 L 244.833 278.500 245.917 277.521 C 246.512 276.983,247.000 276.495,247.000 276.438 C 247.000 276.180,246.725 276.407,245.812 277.417 M130.450 285.333 C 130.450 286.892,130.507 287.529,130.577 286.750 C 130.648 285.971,130.648 284.696,130.577 283.917 C 130.507 283.137,130.450 283.775,130.450 285.333 M273.120 290.667 C 273.120 292.408,273.176 293.121,273.245 292.250 C 273.314 291.379,273.314 289.954,273.245 289.083 C 273.176 288.212,273.120 288.925,273.120 290.667 M223.149 300.500 C 223.149 306.367,223.194 308.720,223.250 305.729 C 223.305 302.738,223.305 297.938,223.249 295.062 C 223.194 292.186,223.149 294.633,223.149 300.500 M246.757 295.000 C 246.757 295.825,246.822 296.162,246.902 295.750 C 246.981 295.337,246.981 294.662,246.902 294.250 C 246.822 293.837,246.757 294.175,246.757 295.000 M270.261 304.583 C 270.425 307.928,270.565 308.256,270.617 305.417 C 270.644 303.904,270.554 302.666,270.417 302.666 C 270.279 302.666,270.209 303.528,270.261 304.583 M175.000 305.771 C 175.000 305.828,175.487 306.316,176.083 306.854 L 177.167 307.833 176.188 306.750 C 175.275 305.740,175.000 305.513,175.000 305.771 M148.583 306.574 C 149.179 306.648,150.154 306.648,150.750 306.574 C 151.346 306.501,150.858 306.440,149.667 306.440 C 148.475 306.440,147.987 306.501,148.583 306.574 M188.417 306.905 C 188.921 306.982,189.746 306.982,190.250 306.905 C 190.754 306.829,190.342 306.767,189.333 306.767 C 188.325 306.767,187.912 306.829,188.417 306.905 M147.576 311.907 C 148.168 311.981,149.218 311.982,149.909 311.910 C 150.601 311.838,150.117 311.778,148.833 311.776 C 147.550 311.775,146.984 311.834,147.576 311.907 M188.254 311.902 C 188.669 311.982,189.269 311.979,189.587 311.896 C 189.906 311.812,189.567 311.747,188.833 311.751 C 188.100 311.754,187.839 311.823,188.254 311.902 M58.500 341.667 C 60.142 343.317,61.561 344.667,61.653 344.667 C 61.744 344.667,60.476 343.317,58.833 341.667 C 57.191 340.017,55.772 338.667,55.681 338.667 C 55.589 338.667,56.858 340.017,58.500 341.667 " stroke="none" fill="#b49ccc" fill-rule="evenodd"></path></g></svg>